<?xml version="1.0" encoding="utf-8"?>
<!-- Generator: Adobe Illustrator 27.0.0, SVG Export Plug-In . SVG Version: 6.00 Build 0)  -->
<svg version="1.1" id="Layer_1" xmlns="http://www.w3.org/2000/svg" xmlns:xlink="http://www.w3.org/1999/xlink" x="0px" y="0px"
	 viewBox="0 0 800 4124" style="enable-background:new 0 0 800 4124;" xml:space="preserve">
<style type="text/css">
	@import url('https://fonts.googleapis.com/css?family=Roboto:300,400,700');
	.st0{fill:#303639;}
	.st1{fill:none;stroke:#FFFFFF;stroke-width:2;stroke-miterlimit:10;}
	.st2{fill:none;stroke:#EF7E25;stroke-width:2;stroke-miterlimit:10;}
	.st3{fill:none;}
	.st4{fill:#FFFFFF;}
	.st5{font-family:'Roboto';font-weight: 700;}
	.st6{font-size:32px;}
	.st7{fill:#FFEC00;}
	.st8{font-size:48px;}
	.st9{letter-spacing:-1;}
	.st10{font-family:'Roboto';font-weight: 700;}
	.st11{font-size:70px;}
	.st12{font-size:82px;}
	.st13{letter-spacing:-2;}
	.st14{opacity:0.2;fill:#FFFFFF;}
	.st15{fill:none;stroke:#FFFFFF;stroke-width:4;stroke-linecap:round;stroke-linejoin:round;stroke-miterlimit:10;}
	.st16{fill:none;stroke:#F6A841;stroke-miterlimit:10;}
	.st17{fill:none;stroke:#F6A841;stroke-linecap:round;stroke-linejoin:round;stroke-miterlimit:10;}
	.st18{clip-path:url(#SVGID_00000106859712323434936790000003143279217868583554_);}
	.st19{fill:#EF7E25;}
	.st20{font-size:40px;}
	.st21{fill:none;stroke:#FFFFFF;stroke-width:0.5;stroke-miterlimit:10;}
	.st22{font-family:'Roboto';font-weight: 300;}
	.st23{fill:none;stroke:#8A8687;stroke-width:5;stroke-linecap:round;stroke-miterlimit:7;}
	.st24{fill:none;stroke:#FFFFFF;stroke-width:5;stroke-linecap:round;stroke-miterlimit:7;}
	.st25{fill:#DC835B;}
</style>
<rect x="1.07" y="-44" class="st0" width="800" height="7254"/>
<image style="overflow:visible;" width="801" height="1501" xlink:href="4F7137A2D281F752.png"  transform="matrix(1 0 0 1 -1.4919 3739.8118)">
</image>
<g>
	<path class="st1" d="M150.2,1124.5c0,0,15-160.04,55.01-231.72l-15.84-11.67c0,0-41.68,16.67-45.01,19.17s-7.5,6.67-12.5,9.17
		s-22.51,12.5-24.17,15s-68.35,31.67-94.19-11.67c0,0-16.59-80.9,45.01-111.69c5-2.5,57.51-28.34,53.35-27.51
		s78.35-30.01,78.35-30.01l47.51-26.67c0,0,31.67-21.67,75.02-8.34l8.34-2.5c0,0,10.84-10.84,18.34-7.5c0,0,3.33-27.51,53.35-14.17
		l30.84,17.5v5.83l6.67,4.17v17.5l8.34-2.5l0.83-20c0,0-9.17-12.5-1.67-46.68c0,0-13.34-6.67,15-52.51"/>
	<path class="st1" d="M467.78,586.04c0,0,35.84-53.35,103.36-57.51c0,0,95.02-0.83,93.36,91.69c0,0-3.33,34.17-18.34,54.18"/>
	<path class="st1" d="M640.32,666.06c0-3.33,13.34-37.51-3.33-58.35c-16.67-20.84-20.84-12.5-20.84-12.5s-20,6.67-36.68-10.84
		c-16.67-17.5-46.68-4.17-46.68-4.17s-47.51-4.17-60.85,43.34"/>
	<path class="st1" d="M463.61,610.21l7.5,29.17l7.5-2.5c0,0,12.5-22.51,41.68-15l104.19,34.17c0,0,10.84,2.5,15.84,15.84
		l14.17,11.67c18.34,22.51,4.17,41.68,4.17,41.68s-9.17,24.17-44.18,37.51c-35.01,13.34-38.34-13.34-38.34-13.34l-7.5-33.34
		c-8.34-19.17-40.84-5-55.01,6.67c-14.17,11.67-20,13.34-35.84,12.5c-15.84-0.83-33.34-53.35-33.34-53.35s7.95-36.99,11.67-36.68
		l22.51-8.34c22.51-8.34,60.01,9.17,73.35,16.67c13.34,7.5,11.67,8.34,45.84,14.17c34.17,5.83,56.68,15.84,56.68,15.84"/>
	<path class="st1" d="M483.62,739.41c0,0,20.84,11.67,32.51,15c11.67,3.33,51.68,13.34,64.18,10.84"/>
	<path class="st1" d="M516.13,754.41c0,0,11.67-14.17,29.17-6.67c0,0,13.34,3.33,5,13.34"/>
	<path class="st1" d="M487.79,647.72c0,0-24.17,30.01-5.83,75.02"/>
	<path class="st1" d="M511.12,645.22c0,0-26.67-10.84-47.51,21.67c0,0-7.5,23.34,4.17,49.18c11.67,25.84,33.34,6.67,33.34,6.67
		s49.18-45.84,64.18-37.51s16.67,50.01,16.67,50.01s3.33,28.34,19.17,25.01c15.84-3.33,41.68-18.34,49.18-35.01
		c7.5-16.67,5.83-20,1.67-28.34c-4.17-8.34-7.5-9.17-15-10.84c-7.5-1.67-60.01-12.5-85.85-25.01L511.12,645.22z"/>
	<path class="st1" d="M492.79,772.75c0,0-1.67,15.84,15.84,23.34l-0.83,15.84l-18.34,1.67l-8.34,3.33l-67.52,0.83"/>
	<path class="st1" d="M438.61,726.9l-5,15.84c0,0,7.5,31.67,15.84,46.68c8.34,15,31.67,27.51,31.67,27.51"/>
	<path class="st1" d="M601.15,767.75c0,0-14.17,23.34-30.84,31.67"/>
	<line class="st1" x1="560.3" y1="784.42" x2="573.64" y2="807.76"/>
	<path class="st1" d="M607.81,846.93c0,0,2.5-22.51-17.5-35.01c-20-12.5-60.85-5-71.68,7.5s-24.17,25.01-15,59.18
		c0,0,11.67,31.67,55.01,26.67C558.64,905.28,606.15,896.11,607.81,846.93z"/>
	<path class="st1" d="M578.64,822.76c0,0-49.18-5.83-62.52,33.34c-13.34,39.18,26.67,42.51,36.68,42.51c10.84,0,34.17-5,47.51-39.18
		C613.65,825.26,578.64,822.76,578.64,822.76z"/>
	<path class="st2" d="M389.43,833.6l29.17,32.51c0,0,5.83,10,11.67,19.17c5.83,9.17,11.67,20.84,11.67,20.84l49.18,43.34l9.17,8.34
		l58.35,17.5c0,0,20,4.17,35.01,15s23.34,18.34,23.34,18.34"/>
	<path class="st2" d="M606.98,1011.97l-32.51-23.34l-38.34,21.67l41.68,27.51l26.67,15c0,0-1.67,7.5-10.84,6.67
		c-9.17-0.83-43.34-10-43.34-10s-36.68-16.67-50.85-35.01c-14.17-18.34-18.34-25.01-18.34-25.01l-121.7-49.18l-19.17-0.83"/>
	<polyline class="st2" points="330.25,896.94 480.28,954.46 500.29,957.79 	"/>
	<path class="st2" d="M331.91,918.62l100.02,37.51l53.35,25.84c0,0,36.68,35.01,44.18,39.18c7.5,4.17,42.51,25.01,75.02,31.67"/>
	<polyline class="st2" points="595.31,1023.64 570.31,1016.14 553.64,1020.31 	"/>
	<path class="st2" d="M574.47,988.63c-3.33,7.5-4.17,27.51-4.17,27.51"/>
	<polyline class="st1" points="371.09,826.09 378.59,828.59 389.43,833.6 	"/>
	<path class="st1" d="M418.6,866.1c0,0,8.34-4.17,4.17-14.17c-4.17-10-7.5-20-7.5-20v-7.5c0,0,1.67-10-6.67-13.34
		c-8.34-3.33-18.34-11.67-18.34-11.67l-12.5-5.83c0,0-10.84-16.67-22.51-18.34l-45.84-13.34l-34.17-15c0,0-29.17-12.5-42.51,7.5
		c0,0-46.68,40.84-32.51,87.52l5.83,30.01l-0.83,20.84c0,0-1.67,17.5-0.83,20c0.83,2.5,5,11.67,7.5,18.34
		c2.5,6.67,18.34,18.34,18.34,18.34s17.5,4.17,22.51-11.67"/>
	<path class="st1" d="M296.07,946.96c0,0-4.17,6.67-8.34,7.5c-4.17,0.83-18.34,8.34-26.67-4.17c-8.34-12.5-20.84-34.17-20.84-34.17
		l-3.33-18.34l-1.67-25.84"/>
	<path class="st1" d="M279.4,857.77l4.17,42.51l4.17,19.17l12.5,35.84c0,0,3.33,12.5,24.17,7.5s14.17-13.34,14.17-13.34l-4.17-8.34
		l-3.33-34.17l-4.17-30.01v-14.17l1.67-5.83l11.67,5.83l25.84,37.51l8.34,11.67"/>
	<path class="st1" d="M421.94,929.45l-10.84-23.34l-16.67-29.17l-15-32.51l-10-25.01c0,0-0.83-13.34-10-20.84"/>
	<path class="st1" d="M265.23,741.91c0,0-21.67-11.67-75.02,1.67"/>
	<path class="st1" d="M533.63,1043.65l-11.67,1.67l-10,1.67c0,0-10.84,1.67-5,13.34c5.83,11.67,28.34,18.34,28.34,18.34
		s-3.33,15-0.83,19.17"/>
	<line class="st1" x1="535.3" y1="1078.66" x2="551.13" y2="1076.99"/>
	<path class="st1" d="M590.31,1064.48l17.5,11.67l15,15.84c0,0,14.17,20.84,10.84,35.84l-3.33,10.84l-2.5,16.67
		c0,0-8.34,20.84-11.67,22.51c-3.33,1.67-5.83,9.17-5.83,9.17s-8.34,8.34-11.67,10.84c-3.33,2.5-3.33,2.5-3.33,2.5l-6.67,5
		c0,0-16.67,10.84-27.51,7.5c-10.84-3.33-39.18-13.34-39.18-13.34l-5.83-5.83l-17.5-26.67l-3.33-17.5l5.83-2.5l-8.34-15
		l-11.67-16.67c0,0-18.34-15.84-2.5-23.34c15.84-7.5,45.01,4.17,45.01,4.17l29.17,5l10-2.5c0,0,24.17-3.33,29.17-3.33"/>
	<polyline class="st1" points="596.98,1139.5 546.97,1137 528.63,1131.17 481.12,1115.33 	"/>
	<line class="st1" x1="492.79" y1="1132" x2="546.97" y2="1137"/>
	<polyline class="st1" points="501.12,1147 519.46,1169.51 536.13,1179.51 572.81,1192.02 	"/>
	<polyline class="st1" points="585.31,1172.01 535.3,1161.17 499.46,1140.34 	"/>
	<path class="st1" d="M590.31,782.75c0,0,20,15.84,27.51,44.18l-2.5,8.34c0,0,5,11.67,5.83,20.84c0,0,37.51,29.17,38.34,85.85"/>
	<path class="st1" d="M658.66,1005.3l10.84,78.35c0,0,5.83,53.35,5.83,63.35s-4.17,25.01-15.84,40.01s-40.01,26.67-64.18,13.34"/>
</g>
<g>
	<rect x="-0.19" y="1274" class="st3" width="794.76" height="151"/>
	<text transform="matrix(1 0 0 1 -0.1868 1297.9978)"><tspan x="0" y="0" class="st4 st5 st6">The fragments belong to two dominant local species, </tspan><tspan x="0" y="38.4" class="st4 st5 st6">Acropora hyacinthus and Acropora microphthalma.</tspan></text>
</g>
<rect x="-0.19" y="378.7" class="st3" width="794.76" height="151.3"/>
<text transform="matrix(1 0 0 1 -0.1868 414.7002)"><tspan x="0" y="0" class="st7 st5 st8 st9">Coral fragments are cut from a natural </tspan><tspan x="0" y="57.6" class="st7 st5 st8 st9">source. They are 5 to 8 cm long.</tspan></text>
<g>
	<circle class="st7" cx="43.11" cy="298.23" r="43.71"/>
	<g>
		<text transform="matrix(1 0 0 1 19.6716 325.6465)" class="st0 st10 st11 st9">1</text>
	</g>
</g>
<text transform="matrix(1 0 0 1 -5.593 199.6641)" class="st7 st5 st12 st13">PLANTING PROCESS</text>
<g>
	<path class="st14" d="M304.17,5868.35l-265.52,66.38l30.64,263.48l481.41,147.06l174.22-176.67l15.32-250.2L304.17,5868.35z
		 M129.53,5990.9l115.4,22.47v55.15l-104.17,44.93L129.53,5990.9z M210.21,6158.38l37.79-21.45l2.04,32.68L210.21,6158.38z
		 M282.72,5952.09l-72.51-10.21l72.51-19.81V5952.09z M457.35,5956.18l1.02,24.51l-37.79-6.13L457.35,5956.18z M345.63,5913.9
		l34.72,4.08l-34.72,12.25V5913.9z M347.06,6032.77l108.25,19.4l1.02,17.36l-109.27-21.45V6032.77z M336.85,6153.28l-1.02-51.06
		l61.27,15.32L336.85,6153.28z M490.03,6231.91l-89.87-25.53l90.89-59.23L490.03,6231.91z M546.2,5996.01l-21.45-4.08l-1.02-51.06
		l99.06,12.25L546.2,5996.01z M585.01,6189.02l2.45-30.64l25.12,6.13L585.01,6189.02z M657.51,6106.3l-69.44-13.28v-38.81l74.55-48
		L657.51,6106.3z"/>
	<path class="st15" d="M304.17,5868.35l-265.52,66.38l30.64,263.48l481.41,147.06l174.22-176.67l15.32-250.2L304.17,5868.35z
		 M129.53,5990.9l112.85,19.4l2.55,58.21l-104.17,44.93L129.53,5990.9z M210.21,6158.38l37.79-21.45l2.04,32.68L210.21,6158.38z
		 M282.98,5953.12l-72.76-11.23l72.51-19.81L282.98,5953.12z M457.35,5956.18l1.02,24.51l-37.79-6.13L457.35,5956.18z
		 M345.63,5913.9l37.43,3.98l-37.43,12.87V5913.9z M347.06,6032.77l108.25,19.4l1.02,17.36l-109.27-21.45V6032.77z M336.85,6153.28
		l-1.02-51.06l61.27,15.32L336.85,6153.28z M490.03,6231.91l-89.87-25.53l90.89-59.23L490.03,6231.91z M546.2,5996.01l-21.45-4.08
		l-1.02-51.06l99.06,12.25L546.2,5996.01z M585.01,6189.02l2.45-30.64l25.12,6.13L585.01,6189.02z M657.51,6106.3l-69.44-13.28
		v-38.81l74.55-48L657.51,6106.3z"/>
	<polygon class="st1" points="116.26,5926.56 546.2,5996.01 688.15,5919.41 314.38,5878.56 	"/>
	<line class="st1" x1="282.72" y1="5952.09" x2="451.22" y2="5894.9"/>
	<line class="st1" x1="314.38" y1="5878.56" x2="314.38" y2="5942.9"/>
	<line class="st1" x1="495.75" y1="5901.03" x2="335.82" y2="5961.29"/>
	<line class="st1" x1="500.24" y1="5987.84" x2="500.24" y2="5900.01"/>
	<polyline class="st1" points="740.23,5918.39 560.5,6019.5 38.64,5934.73 	"/>
	<line class="st1" x1="560.5" y1="6019.5" x2="550.69" y2="6345.27"/>
	<line class="st1" x1="591.13" y1="6002.13" x2="583.99" y2="6254.38"/>
	<polyline class="st1" points="726.96,6121.62 552.33,6284.4 64.18,6145.62 	"/>
	<polyline class="st1" points="43.24,5973.03 558.45,6071.58 737.17,5959.24 	"/>
	<polyline class="st1" points="721.85,5928.61 709.6,6138.98 587.05,6109.36 	"/>
	<line class="st1" x1="493.1" y1="6008.26" x2="489.01" y2="6325.87"/>
	<line class="st1" x1="302.12" y1="6270.72" x2="292.93" y2="5975.58"/>
	<line class="st1" x1="240.85" y1="5968.43" x2="254.13" y2="6256.42"/>
	<polyline class="st1" points="332.76,6029.71 337.87,6191.06 490.03,6231.91 	"/>
	<line class="st1" x1="302.12" y1="6213.53" x2="492.07" y2="6098.13"/>
	<line class="st1" x1="332.76" y1="6059.32" x2="493.1" y2="6092.41"/>
	<polyline class="st1" points="81.54,5941.88 104,6156.34 245.96,6092 	"/>
	<polyline class="st1" points="523.73,5940.86 499.22,5938.82 457.35,5956.18 	"/>
	<polyline class="st1" points="345.63,5913.9 314.38,5912.27 282.72,5922.07 	"/>
	<line class="st1" x1="347.06" y1="6048.09" x2="332.76" y2="6053.6"/>
	<polyline class="st1" points="657.51,6106.3 657.51,6125.7 612.58,6164.51 	"/>
	<polyline class="st1" points="456.33,6069.54 455.31,6084.85 397.1,6117.53 	"/>
	<polyline class="st1" points="140.77,6113.45 141.79,6137.96 210.21,6158.38 	"/>
</g>
<g>
	<line class="st16" x1="304.17" y1="5868.35" x2="38.64" y2="5934.73"/>
	<line class="st16" x1="314.8" y1="5869.57" x2="51.37" y2="5936.8"/>
	<line class="st16" x1="325.44" y1="5870.79" x2="64.1" y2="5938.87"/>
	<line class="st16" x1="336.07" y1="5872.01" x2="76.83" y2="5940.94"/>
	<line class="st16" x1="346.71" y1="5873.23" x2="89.56" y2="5943"/>
	<line class="st16" x1="357.35" y1="5874.46" x2="102.28" y2="5945.07"/>
	<line class="st16" x1="367.98" y1="5875.68" x2="115.01" y2="5947.14"/>
	<line class="st16" x1="378.62" y1="5876.9" x2="127.74" y2="5949.21"/>
	<line class="st16" x1="389.25" y1="5878.12" x2="140.47" y2="5951.27"/>
	<line class="st16" x1="399.89" y1="5879.34" x2="153.2" y2="5953.34"/>
	<line class="st16" x1="410.52" y1="5880.56" x2="165.93" y2="5955.41"/>
	<line class="st16" x1="421.16" y1="5881.78" x2="178.65" y2="5957.47"/>
	<line class="st16" x1="431.8" y1="5883" x2="191.38" y2="5959.54"/>
	<line class="st16" x1="442.43" y1="5884.22" x2="204.11" y2="5961.61"/>
	<line class="st16" x1="453.07" y1="5885.44" x2="216.84" y2="5963.68"/>
	<line class="st16" x1="463.7" y1="5886.66" x2="229.57" y2="5965.74"/>
	<line class="st16" x1="474.34" y1="5887.88" x2="242.29" y2="5967.81"/>
	<line class="st16" x1="484.97" y1="5889.1" x2="255.02" y2="5969.88"/>
	<line class="st16" x1="495.61" y1="5890.32" x2="267.75" y2="5971.95"/>
	<line class="st16" x1="506.25" y1="5891.54" x2="280.48" y2="5974.01"/>
	<line class="st16" x1="516.88" y1="5892.76" x2="293.21" y2="5976.08"/>
	<line class="st16" x1="527.52" y1="5893.98" x2="305.93" y2="5978.15"/>
	<line class="st16" x1="538.15" y1="5895.2" x2="318.66" y2="5980.22"/>
	<line class="st16" x1="548.79" y1="5896.42" x2="331.39" y2="5982.28"/>
	<line class="st16" x1="559.43" y1="5897.65" x2="344.12" y2="5984.35"/>
	<line class="st16" x1="570.06" y1="5898.87" x2="356.85" y2="5986.42"/>
	<line class="st16" x1="580.7" y1="5900.09" x2="369.58" y2="5988.49"/>
	<line class="st16" x1="591.33" y1="5901.31" x2="382.3" y2="5990.55"/>
	<line class="st16" x1="601.97" y1="5902.53" x2="395.03" y2="5992.62"/>
	<line class="st16" x1="612.6" y1="5903.75" x2="407.76" y2="5994.69"/>
	<line class="st16" x1="623.24" y1="5904.97" x2="420.49" y2="5996.75"/>
	<line class="st16" x1="633.88" y1="5906.19" x2="433.22" y2="5998.82"/>
	<line class="st16" x1="644.51" y1="5907.41" x2="445.94" y2="6000.89"/>
	<line class="st16" x1="655.15" y1="5908.63" x2="458.67" y2="6002.96"/>
	<line class="st16" x1="665.78" y1="5909.85" x2="471.4" y2="6005.02"/>
	<line class="st16" x1="676.42" y1="5911.07" x2="484.13" y2="6007.09"/>
	<line class="st16" x1="687.06" y1="5912.29" x2="496.86" y2="6009.16"/>
	<line class="st16" x1="697.69" y1="5913.51" x2="509.58" y2="6011.23"/>
	<line class="st16" x1="708.33" y1="5914.73" x2="522.31" y2="6013.29"/>
	<line class="st16" x1="718.96" y1="5915.95" x2="535.04" y2="6015.36"/>
	<line class="st16" x1="729.6" y1="5917.17" x2="547.77" y2="6017.43"/>
	<line class="st16" x1="740.23" y1="5918.39" x2="560.5" y2="6019.5"/>
</g>
<g>
	<line class="st17" x1="740.23" y1="5918.39" x2="304.17" y2="5868.35"/>
	<line class="st16" x1="731.68" y1="5923.21" x2="291.52" y2="5871.51"/>
	<line class="st16" x1="723.12" y1="5928.02" x2="278.88" y2="5874.67"/>
	<line class="st16" x1="714.56" y1="5932.84" x2="266.23" y2="5877.84"/>
	<line class="st16" x1="706" y1="5937.65" x2="253.59" y2="5881"/>
	<line class="st16" x1="697.44" y1="5942.47" x2="240.95" y2="5884.16"/>
	<line class="st16" x1="688.88" y1="5947.28" x2="228.3" y2="5887.32"/>
	<line class="st16" x1="680.32" y1="5952.09" x2="215.66" y2="5890.48"/>
	<line class="st16" x1="671.76" y1="5956.91" x2="203.01" y2="5893.64"/>
	<line class="st16" x1="663.2" y1="5961.72" x2="190.37" y2="5896.8"/>
	<line class="st16" x1="654.64" y1="5966.54" x2="177.73" y2="5899.96"/>
	<line class="st16" x1="646.09" y1="5971.35" x2="165.08" y2="5903.12"/>
	<line class="st16" x1="637.53" y1="5976.17" x2="152.44" y2="5906.28"/>
	<line class="st16" x1="628.97" y1="5980.98" x2="139.8" y2="5909.45"/>
	<line class="st16" x1="620.41" y1="5985.79" x2="127.15" y2="5912.61"/>
	<line class="st16" x1="611.85" y1="5990.61" x2="114.51" y2="5915.77"/>
	<line class="st16" x1="603.29" y1="5995.42" x2="101.86" y2="5918.93"/>
	<line class="st16" x1="594.73" y1="6000.24" x2="89.22" y2="5922.09"/>
	<line class="st16" x1="586.17" y1="6005.05" x2="76.58" y2="5925.25"/>
	<line class="st16" x1="577.61" y1="6009.87" x2="63.93" y2="5928.41"/>
	<line class="st16" x1="569.06" y1="6014.68" x2="51.29" y2="5931.57"/>
	<line class="st16" x1="560.5" y1="6019.5" x2="38.64" y2="5934.73"/>
</g>
<g>
	<text transform="matrix(1 0 0 1 2.9519 6289.2632)"><tspan x="0" y="0" class="st19 st5 st6">I-shaped reef</tspan><tspan x="0" y="56" class="st4 st5 st6">Weight: 3 metric tons</tspan><tspan x="0" y="112" class="st4 st5 st6">Depth: 6 to 8 meters</tspan></text>
</g>
<g>
	<text transform="matrix(1 0 0 1 605.3933 6450.48)"><tspan x="0" y="0" class="st19 st5 st6">Ship-type reef</tspan><tspan x="-28.98" y="56" class="st4 st5 st6">Weight: 3.5 tons</tspan><tspan x="-83.23" y="112" class="st4 st5 st6">Depth: 6 to 8 meters</tspan></text>
</g>
<g>
	<line class="st1" x1="2.95" y1="6307.36" x2="370.54" y2="6307.36"/>
	<line class="st1" x1="2.95" y1="6362.91" x2="370.54" y2="6362.91"/>
</g>
<g>
	<line class="st1" x1="428.95" y1="6466.44" x2="796.54" y2="6466.44"/>
	<line class="st1" x1="428.95" y1="6521.98" x2="796.54" y2="6521.98"/>
</g>
<g>
	<path class="st16" d="M198.13,6500.79c0,0-26.51-9.94-62.97,29c0,0-115.16,101.91-126.76,285.83l-1.66,28.17"/>
	<path class="st16" d="M204.8,6502.46c0,0-26.38-9.89-62.66,28.85c0,0-114.6,101.41-126.14,284.43l-1.65,28.03"/>
	<path class="st16" d="M211.47,6504.12c0,0-26.25-9.84-62.35,28.71c0,0-114.03,100.9-125.51,283.02l-1.64,27.89"/>
	<path class="st16" d="M218.15,6505.79c0,0-26.12-9.8-62.04,28.57c0,0-113.46,100.4-124.89,281.62l-1.63,27.75"/>
	<path class="st16" d="M224.82,6507.45c0,0-25.99-9.75-61.73,28.43c0,0-112.9,99.9-124.27,280.21l-1.62,27.62"/>
	<path class="st16" d="M231.49,6509.12c0,0-25.86-9.7-61.42,28.28c0,0-112.33,99.4-123.65,278.81l-1.62,27.48"/>
	<path class="st16" d="M238.16,6510.78c0,0-25.73-9.65-61.11,28.14c0,0-111.77,98.9-123.02,277.4l-1.61,27.34"/>
	<path class="st16" d="M244.83,6512.45c0,0-25.6-9.6-60.8,28c0,0-111.2,98.4-122.4,276l-1.6,27.2"/>
	<path class="st16" d="M251.5,6514.11c0,0-25.47-9.55-60.49,27.86c0,0-110.63,97.9-121.78,274.59l-1.59,27.06"/>
	<path class="st16" d="M258.17,6515.78c0,0-25.34-9.5-60.18,27.71c0,0-110.07,97.4-121.15,273.19l-1.58,26.92"/>
	<path class="st16" d="M264.84,6517.44c0,0-25.21-9.45-59.87,27.57c0,0-109.5,96.9-120.53,271.78l-1.58,26.78"/>
	<path class="st16" d="M271.51,6519.11c0,0-25.08-9.4-59.56,27.43c0,0-108.93,96.4-119.91,270.38l-1.57,26.65"/>
	<path class="st16" d="M278.19,6520.77c0,0-24.95-9.36-59.25,27.29c0,0-108.37,95.89-119.28,268.97l-1.56,26.51"/>
	<path class="st16" d="M284.86,6522.44c0,0-24.82-9.31-58.94,27.14c0,0-107.8,95.39-118.66,267.57l-1.55,26.37"/>
	<path class="st16" d="M291.53,6524.1c0,0-24.69-9.26-58.63,27c0,0-107.24,94.89-118.04,266.16l-1.54,26.23"/>
	<path class="st16" d="M298.2,6525.77c0,0-24.56-9.21-58.32,26.86c0,0-106.67,94.39-117.41,264.76l-1.53,26.09"/>
	<path class="st16" d="M304.87,6527.43c0,0-24.43-9.16-58.01,26.72c0,0-106.1,93.89-116.79,263.35l-1.53,25.95"/>
	<path class="st16" d="M311.54,6529.1c0,0-24.3-9.11-57.7,26.57c0,0-105.54,93.39-116.17,261.94l-1.52,25.81"/>
	<path class="st16" d="M318.21,6530.76c0,0-24.17-9.06-57.39,26.43c0,0-104.97,92.89-115.54,260.54l-1.51,25.68"/>
	<path class="st16" d="M324.88,6532.43c0,0-24.04-9.01-57.08,26.29c0,0-104.4,92.39-114.92,259.13l-1.5,25.54"/>
	<path class="st16" d="M331.56,6534.09c0,0-23.91-8.96-56.78,26.15c0,0-103.84,91.89-114.3,257.73l-1.49,25.4"/>
	<path class="st16" d="M338.23,6535.76c0,0-23.78-8.92-56.47,26c0,0-103.27,91.39-113.67,256.32l-1.49,25.26"/>
	<path class="st16" d="M344.9,6537.42c0,0-23.64-8.87-56.16,25.86c0,0-102.71,90.88-113.05,254.92l-1.48,25.12"/>
	<path class="st16" d="M351.57,6539.09c0,0-23.51-8.82-55.85,25.72c0,0-102.14,90.38-112.43,253.51l-1.47,24.98"/>
	<path class="st16" d="M358.24,6540.75c0,0-23.38-8.77-55.54,25.58c0,0-101.57,89.88-111.8,252.11l-1.46,24.85"/>
	<path class="st16" d="M364.91,6542.42c0,0-23.25-8.72-55.23,25.43c0,0-101.01,89.38-111.18,250.7l-1.45,24.71"/>
	<path class="st16" d="M371.58,6544.08c0,0-23.12-8.67-54.92,25.29c0,0-100.44,88.88-110.56,249.3l-1.45,24.57"/>
	<path class="st16" d="M378.25,6545.75c0,0-22.99-8.62-54.61,25.15c0,0-99.88,88.38-109.93,247.89l-1.44,24.43"/>
	<path class="st16" d="M384.92,6547.41c0,0-22.86-8.57-54.3,25.01c0,0-99.31,87.88-109.31,246.49l-1.43,24.29"/>
	<path class="st16" d="M391.6,6549.08c0,0-22.73-8.52-53.99,24.86c0,0-98.74,87.38-108.69,245.08l-1.42,24.15"/>
	<path class="st16" d="M398.27,6550.74c0,0-22.6-8.48-53.68,24.72c0,0-98.18,86.88-108.07,243.68l-1.41,24.01"/>
	<path class="st16" d="M404.94,6552.41c0,0-22.47-8.43-53.37,24.58c0,0-97.61,86.38-107.44,242.27l-1.4,23.88"/>
	<path class="st16" d="M411.61,6554.07c0,0-22.34-8.38-53.06,24.44c0,0-97.04,85.87-106.82,240.87l-1.4,23.74"/>
	<path class="st16" d="M418.28,6555.73c0,0-22.21-8.33-52.75,24.29c0,0-96.48,85.37-106.2,239.46l-1.39,23.6"/>
	<path class="st16" d="M424.95,6557.4c0,0-22.08-8.28-52.44,24.15c0,0-95.91,84.87-105.57,238.06l-1.38,23.46"/>
	<path class="st16" d="M431.62,6559.06c0,0-21.95-8.23-52.13,24.01c0,0-95.35,84.37-104.95,236.65l-1.37,23.32"/>
	<path class="st16" d="M438.29,6560.73c0,0-21.82-8.18-51.82,23.87c0,0-94.78,83.87-104.33,235.25l-1.36,23.18"/>
	<path class="st16" d="M444.97,6562.4c0,0-21.69-8.13-51.51,23.72c0,0-94.21,83.37-103.7,233.84l-1.36,23.04"/>
	<path class="st16" d="M451.64,6564.06c0,0-21.56-8.08-51.2,23.58c0,0-93.65,82.87-103.08,232.43l-1.35,22.91"/>
	<path class="st16" d="M458.31,6565.72c0,0-21.43-8.04-50.89,23.44c0,0-93.08,82.37-102.46,231.03l-1.34,22.77"/>
	<path class="st16" d="M464.98,6567.39c0,0-21.3-7.99-50.58,23.3c0,0-92.52,81.87-101.83,229.62l-1.33,22.63"/>
	<path class="st16" d="M471.65,6569.05c0,0-21.17-7.94-50.27,23.15c0,0-91.95,81.37-101.21,228.22l-1.32,22.49"/>
	<path class="st16" d="M478.32,6570.72c0,0-21.04-7.89-49.96,23.01c0,0-91.38,80.86-100.59,226.81l-1.31,22.35"/>
	<path class="st16" d="M484.99,6572.38c0,0-20.91-7.84-49.66,22.87c0,0-90.82,80.36-99.96,225.41l-1.31,22.21"/>
	<path class="st16" d="M491.66,6574.05c0,0-20.78-7.79-49.35,22.73c0,0-90.25,79.86-99.34,224l-1.3,22.08"/>
	<path class="st16" d="M498.33,6575.71c0,0-20.65-7.74-49.04,22.58c0,0-89.68,79.36-98.72,222.6l-1.29,21.94"/>
	<path class="st16" d="M505.01,6577.38c0,0-20.52-7.69-48.73,22.44c0,0-89.12,78.86-98.09,221.19l-1.28,21.8"/>
	<path class="st16" d="M511.68,6579.04c0,0-20.39-7.65-48.42,22.3c0,0-88.55,78.36-97.47,219.79l-1.27,21.66"/>
	<path class="st16" d="M518.35,6580.71c0,0-20.26-7.6-48.11,22.15c0,0-87.99,77.86-96.85,218.38l-1.27,21.52"/>
	<path class="st16" d="M525.02,6582.37c0,0-20.13-7.55-47.8,22.01c0,0-87.42,77.36-96.22,216.98l-1.26,21.38"/>
	<path class="st16" d="M531.69,6584.04c0,0-20-7.5-47.49,21.87c0,0-86.85,76.86-95.6,215.57l-1.25,21.24"/>
	<path class="st16" d="M538.36,6585.7c0,0-19.86-7.45-47.18,21.73c0,0-86.29,76.35-94.98,214.17l-1.24,21.11"/>
</g>
<g>
	<line class="st16" x1="47.98" y1="6656.37" x2="449.51" y2="6724.81"/>
	<line class="st16" x1="47.05" y1="6660.96" x2="449.24" y2="6727.68"/>
	<line class="st16" x1="46.11" y1="6665.56" x2="448.96" y2="6730.56"/>
	<line class="st16" x1="45.17" y1="6670.15" x2="448.68" y2="6733.43"/>
	<line class="st16" x1="44.23" y1="6674.74" x2="448.4" y2="6736.31"/>
	<line class="st16" x1="43.29" y1="6679.34" x2="448.12" y2="6739.18"/>
	<line class="st16" x1="42.35" y1="6683.93" x2="447.84" y2="6742.06"/>
	<line class="st16" x1="41.41" y1="6688.53" x2="447.56" y2="6744.94"/>
	<line class="st16" x1="40.47" y1="6693.12" x2="447.28" y2="6747.81"/>
	<line class="st16" x1="39.53" y1="6697.71" x2="447" y2="6750.69"/>
	<line class="st16" x1="38.59" y1="6702.31" x2="446.73" y2="6753.56"/>
	<line class="st16" x1="37.65" y1="6706.9" x2="446.45" y2="6756.44"/>
	<line class="st16" x1="36.71" y1="6711.5" x2="446.17" y2="6759.31"/>
	<line class="st16" x1="35.77" y1="6716.09" x2="445.89" y2="6762.19"/>
	<line class="st16" x1="34.83" y1="6720.68" x2="445.61" y2="6765.06"/>
	<line class="st16" x1="33.89" y1="6725.28" x2="445.33" y2="6767.94"/>
	<line class="st16" x1="32.95" y1="6729.87" x2="445.05" y2="6770.81"/>
	<line class="st16" x1="32.02" y1="6734.47" x2="444.77" y2="6773.69"/>
	<line class="st16" x1="31.08" y1="6739.06" x2="444.5" y2="6776.57"/>
	<line class="st16" x1="30.14" y1="6743.65" x2="444.22" y2="6779.44"/>
	<line class="st16" x1="29.2" y1="6748.25" x2="443.94" y2="6782.32"/>
	<line class="st16" x1="28.26" y1="6752.84" x2="443.66" y2="6785.19"/>
	<line class="st16" x1="27.32" y1="6757.44" x2="443.38" y2="6788.07"/>
	<line class="st16" x1="26.38" y1="6762.03" x2="443.1" y2="6790.94"/>
	<line class="st16" x1="25.44" y1="6766.62" x2="442.82" y2="6793.82"/>
	<line class="st16" x1="24.5" y1="6771.22" x2="442.54" y2="6796.69"/>
	<line class="st16" x1="23.56" y1="6775.81" x2="442.26" y2="6799.57"/>
	<line class="st16" x1="22.62" y1="6780.41" x2="441.99" y2="6802.45"/>
	<line class="st16" x1="21.68" y1="6785" x2="441.71" y2="6805.32"/>
	<line class="st16" x1="20.74" y1="6789.59" x2="441.43" y2="6808.2"/>
	<line class="st16" x1="19.8" y1="6794.19" x2="441.15" y2="6811.07"/>
	<line class="st16" x1="18.86" y1="6798.78" x2="440.87" y2="6813.95"/>
	<line class="st16" x1="17.92" y1="6803.38" x2="440.59" y2="6816.82"/>
	<line class="st16" x1="16.98" y1="6807.97" x2="440.31" y2="6819.7"/>
	<line class="st16" x1="16.05" y1="6812.56" x2="440.03" y2="6822.57"/>
	<line class="st16" x1="15.11" y1="6817.16" x2="439.76" y2="6825.45"/>
	<line class="st16" x1="14.17" y1="6821.75" x2="439.48" y2="6828.33"/>
	<line class="st16" x1="13.23" y1="6826.34" x2="439.2" y2="6831.2"/>
	<line class="st16" x1="12.29" y1="6830.94" x2="438.92" y2="6834.08"/>
	<line class="st16" x1="11.35" y1="6835.53" x2="438.64" y2="6836.95"/>
	<line class="st16" x1="10.41" y1="6840.13" x2="438.36" y2="6839.83"/>
	<line class="st16" x1="9.47" y1="6844.72" x2="438.08" y2="6842.7"/>
</g>
<g>
	<line class="st16" x1="47.98" y1="6656.37" x2="449.51" y2="6724.81"/>
	<line class="st16" x1="51.61" y1="6652.56" x2="450.97" y2="6721.29"/>
	<line class="st16" x1="55.23" y1="6648.74" x2="452.43" y2="6717.77"/>
	<line class="st16" x1="58.85" y1="6644.93" x2="453.88" y2="6714.25"/>
	<line class="st16" x1="62.48" y1="6641.12" x2="455.34" y2="6710.74"/>
	<line class="st16" x1="66.1" y1="6637.3" x2="456.79" y2="6707.22"/>
	<line class="st16" x1="69.72" y1="6633.49" x2="458.25" y2="6703.7"/>
	<line class="st16" x1="73.35" y1="6629.68" x2="459.71" y2="6700.19"/>
	<line class="st16" x1="76.97" y1="6625.86" x2="461.16" y2="6696.67"/>
	<line class="st16" x1="80.59" y1="6622.05" x2="462.62" y2="6693.15"/>
	<line class="st16" x1="84.22" y1="6618.24" x2="464.07" y2="6689.63"/>
	<line class="st16" x1="87.84" y1="6614.43" x2="465.53" y2="6686.12"/>
	<line class="st16" x1="91.46" y1="6610.61" x2="466.99" y2="6682.6"/>
	<line class="st16" x1="95.09" y1="6606.8" x2="468.44" y2="6679.08"/>
	<line class="st16" x1="98.71" y1="6602.99" x2="469.9" y2="6675.57"/>
	<line class="st16" x1="102.33" y1="6599.17" x2="471.35" y2="6672.05"/>
	<line class="st16" x1="105.96" y1="6595.36" x2="472.81" y2="6668.53"/>
	<line class="st16" x1="109.58" y1="6591.55" x2="474.27" y2="6665.02"/>
	<line class="st16" x1="113.2" y1="6587.74" x2="475.72" y2="6661.5"/>
	<line class="st16" x1="116.83" y1="6583.92" x2="477.18" y2="6657.98"/>
	<line class="st16" x1="120.45" y1="6580.11" x2="478.63" y2="6654.46"/>
	<line class="st16" x1="124.07" y1="6576.3" x2="480.09" y2="6650.95"/>
	<line class="st16" x1="127.7" y1="6572.48" x2="481.55" y2="6647.43"/>
	<line class="st16" x1="131.32" y1="6568.67" x2="483" y2="6643.91"/>
	<line class="st16" x1="134.94" y1="6564.86" x2="484.46" y2="6640.4"/>
	<line class="st16" x1="138.57" y1="6561.04" x2="485.91" y2="6636.88"/>
	<line class="st16" x1="142.19" y1="6557.23" x2="487.37" y2="6633.36"/>
	<line class="st16" x1="145.81" y1="6553.42" x2="488.83" y2="6629.84"/>
	<line class="st16" x1="149.44" y1="6549.61" x2="490.28" y2="6626.33"/>
	<line class="st16" x1="153.06" y1="6545.79" x2="491.74" y2="6622.81"/>
	<line class="st16" x1="156.68" y1="6541.98" x2="493.19" y2="6619.29"/>
	<line class="st16" x1="160.31" y1="6538.17" x2="494.65" y2="6615.78"/>
	<line class="st16" x1="163.93" y1="6534.35" x2="496.11" y2="6612.26"/>
	<line class="st16" x1="167.55" y1="6530.54" x2="497.56" y2="6608.74"/>
	<line class="st16" x1="171.18" y1="6526.73" x2="499.02" y2="6605.22"/>
	<line class="st16" x1="174.8" y1="6522.92" x2="500.47" y2="6601.71"/>
	<line class="st16" x1="178.42" y1="6519.1" x2="501.93" y2="6598.19"/>
	<line class="st16" x1="182.05" y1="6515.29" x2="503.39" y2="6594.67"/>
	<line class="st16" x1="185.67" y1="6511.48" x2="504.84" y2="6591.16"/>
	<line class="st16" x1="189.29" y1="6507.66" x2="506.3" y2="6587.64"/>
	<line class="st16" x1="192.92" y1="6503.85" x2="507.75" y2="6584.12"/>
	<line class="st16" x1="196.54" y1="6500.04" x2="509.21" y2="6580.6"/>
</g>
<g>
	<path class="st14" d="M137.1,6970.16l-120.46,10.73v29.7L393.71,7070l394.4-84.99l-0.83-27.23l-83.34-5.78l-0.83-101.49l56.11-0.83
		l34.65-6.6l-2.48-24.75c0,0-13.2-152.64-156.77-206.27c-4.51-1.68-434-108.91-434-108.91s-26.4-9.9-62.71,28.88
		c0,0-114.69,101.49-126.24,284.66l-1.65,28.05l16.5,4.13l110.56-0.83V6970.16z M200.64,6503.15c0,0-26.4-9.9-62.71,28.88
		c0,0-114.69,101.49-126.24,284.66l-1.65,28.05 M720.45,6725.1l6.6,1.65c0,0,25.58,60.23,28.88,91.59l-8.25-0.82
		C747.68,6817.52,732.83,6741.61,720.45,6725.1z M78.52,6702.83l48.68,4.13l-23.1,112.21l-51.16,1.65
		C52.94,6820.82,62.02,6742.43,78.52,6702.83z M229.51,6551.83l-26.4,28.05l-42.91-9.08l38.78-32.18
		C198.99,6538.63,211.36,6541.11,229.51,6551.83z M283.97,6595.56l-32.18-6.6l13.2-12.38
		C269.12,6579.89,283.97,6595.56,283.97,6595.56z M319.45,6647.55l-20.63,27.23l-56.11,5.78l-55.28-5.78c0,0,14.03-36.3,31.35-51.16
		l96.54,14.85L319.45,6647.55z M227.04,6716.85l52.81,4.13l-25.58,98.19h-74.26l-0.16-99.01L227.04,6716.85z M372.53,6821.09h-46.48
		l-0.16-87.74l30.69-2.48c0,0,15.69,53.63,15.68,85.81L372.53,6821.09z M412.69,6854.65l-0.83,84.99l-86.64,9.9l0.33-103.96
		l49.18-0.83l1.65,9.9H412.69z M557.08,6735.83l-0.83,77.56l-44.56-0.83c0-9.9-14.03-73.43-14.03-73.43L557.08,6735.83z
		 M702.3,6817.52l1.65-30.53l5.78,30.53H702.3z M598.99,6853l69.47-0.83l-2.48,99.84l-67-5.78V6853z M666.82,6815.04l-20.63,0.82
		c0,0-13.2-75.08-21.45-84.16l42.91-3.3L666.82,6815.04z M570.28,6638.47l44.56,8.25l28.88,28.88l-52.81-9.9L570.28,6638.47z
		 M461.37,6975.11c0,0,93.24,3.3,95.71,3.3l-6.6,5.78l-89.11,15.68V6975.11z M461.37,6854.65l96.54-0.83l-1.65,89.11l-94.06-5.78
		L461.37,6854.65z M444.04,6626.92l27.23,4.13l9.9,16.5l-26.4-4.13L444.04,6626.92z M293.05,6991.61l120.46-15.68l-0.83,28.88
		L293.05,6991.61z M179.18,6847.22l112.21-1.65v108.09l-112.21,12.38V6847.22z M143.7,6667.35l-48.68-4.13
		c0,0,14.03-36.3,33.83-53.63c0,0,46.21,6.6,43.73,6.6C170.11,6616.19,143.7,6667.35,143.7,6667.35z"/>
	<g>
		<path class="st15" d="M137.1,6970.16l-120.46,10.73v29.7L393.71,7070l394.4-84.99l-0.83-27.23l-83.34-5.78l-0.83-101.49
			l56.11-0.83l34.65-6.6l-2.48-24.75c0,0-13.2-152.64-156.77-206.27c-4.51-1.68-434-108.91-434-108.91s-26.4-9.9-62.71,28.88
			c0,0-114.69,101.49-126.24,284.66l-1.65,28.05l16.5,4.13l110.56-0.83V6970.16z M720.45,6725.1l6.6,1.65
			c0,0,25.58,60.23,28.88,91.59l-8.25-0.82C747.68,6817.52,732.83,6741.61,720.45,6725.1z M78.52,6702.83l48.68,4.13l-23.1,112.21
			l-51.16,1.65C52.94,6820.82,62.02,6742.43,78.52,6702.83z M229.51,6551.83l-26.4,28.05l-42.91-9.08l38.78-32.18
			C198.99,6538.63,211.36,6541.11,229.51,6551.83z M283.97,6595.56l-32.18-6.6l13.2-12.38
			C269.12,6579.89,283.97,6595.56,283.97,6595.56z M319.45,6647.55l-20.63,27.23l-56.11,5.78l-55.28-5.78
			c0,0,14.03-36.3,31.35-51.16l96.54,14.85L319.45,6647.55z M227.04,6716.85l52.81,4.13l-25.58,98.19h-74.26l-0.16-99.01
			L227.04,6716.85z M372.53,6821.09h-46.48l-0.16-87.74l30.69-2.48c0,0,15.69,53.63,15.68,85.81L372.53,6821.09z M412.69,6854.65
			l-0.83,84.99l-86.64,9.9l0.33-103.96l49.18-0.83l1.65,9.9H412.69z M557.08,6735.83l-0.83,77.56l-44.56-0.83
			c0-9.9-14.03-73.43-14.03-73.43L557.08,6735.83z M702.3,6817.52l1.65-30.53l5.78,30.53H702.3z M598.99,6853l68.48-0.83
			l-1.49,99.84l-67-5.78V6853z M666.82,6815.04l-20.63,0.82c0,0-13.2-75.08-21.45-84.16l42.91-3.3L666.82,6815.04z M570.28,6638.47
			l44.56,8.25l28.88,28.88l-52.81-9.9L570.28,6638.47z M461.37,6975.11c0,0,93.24,3.3,95.71,3.3l-6.6,5.78l-89.11,15.68V6975.11z
			 M461.37,6854.65l96.54-0.83l-1.65,89.11l-94.06-5.78L461.37,6854.65z M444.04,6626.92l27.23,4.13l9.9,16.5l-26.4-4.13
			L444.04,6626.92z M293.05,6991.61l120.46-15.68l-0.83,28.88L293.05,6991.61z M179.18,6847.22l112.21-1.65v108.09l-112.21,12.38
			V6847.22z M143.7,6667.35l-48.68-4.13c0,0,14.03-36.3,33.83-53.63c0,0,46.21,6.6,43.73,6.6
			C170.11,6616.19,143.7,6667.35,143.7,6667.35z"/>
	</g>
	<g>
		<path class="st1" d="M631.34,6816.42l-119.64-3.85c0,0-20.08-114.41-40.98-140.27l120.46,17.6
			C591.18,6689.9,619.24,6739.96,631.34,6816.42z"/>
		<path class="st1" d="M710.55,6708.05c0,0,28.05,37.4,37.13,109.46l33.28-0.55c0,0-8.8-53.36-35.75-104.51L710.55,6708.05z"/>
		<path class="st1" d="M638.49,6628.29c0,0,44.56,31.9,56.66,56.66l34.65,4.95c0,0-29.15-38.5-55.01-52.81L638.49,6628.29z"/>
		<path class="st1" d="M624.19,6624.44c0,0,30.25,16.5,57.21,57.76l-90.49-16.5c0,0-34.93-47.31-58.58-62.16
			C532.33,6603.54,626.94,6624.99,624.19,6624.44z"/>
		<path class="st1" d="M514.72,6598.59c0,0,36.3,27.5,59.96,64.91l-119.91-20.08c0,0-42.36-62.43-63.26-73.43L514.72,6598.59z"/>
		<path class="st1" d="M586.78,6599.69c12.1,3.3,30.8,15.95,30.8,15.95l28.05,4.95c0,0-11.55-6.6-18.15-10.45"/>
		<path class="st1" d="M573.03,6596.39c18.7,8.8,28.6,15.4,28.6,15.4l-93.51-23.1c0,0-13.75-9.9-30.8-15.4"/>
		<path class="st1" d="M487.77,6582.64l-115.51-26.95c0,0-22-11.55-28.05-13.75l115.51,26.4
			C459.72,6568.34,483.37,6577.14,487.77,6582.64z"/>
		<path class="st1" d="M301.3,6529.28c20.35,4.95,41.26,18.7,41.26,18.7c-6.6-1.65-63.26-14.85-63.26-14.85s-22-15.4-40.15-19.8"/>
		<path class="st1" d="M366.76,6563.94c0,0,28.05,17.05,65.46,74.81l-66.56-11.55c0,0-39.6-62.16-64.91-78.66L366.76,6563.94z"/>
		<polyline class="st1" points="343.65,6593.09 355.75,6593.64 391.51,6631.04 		"/>
		<polyline class="st1" points="432.21,6609.59 500.42,6623.34 533.43,6656.35 		"/>
		<line class="st1" x1="557.63" y1="6705.85" x2="557.08" y2="6735.83"/>
		<path class="st1" d="M603.28,6814.22c-11.55-62.16-34.65-108.36-34.65-108.36l-85.81-10.45"/>
		<path class="st1" d="M617.59,6713c0,0,61.61,7.15,59.96,7.7s20.63,35.75,26.4,66.28"/>
		<path class="st1" d="M646.19,6815.87l88.56,1.65c-7.15-59.96-36.3-112.21-36.3-112.21c-4.4,0.55-91.86-12.65-91.86-12.65
			s14.85,26.95,18.15,39.05"/>
		<path class="st1" d="M449.27,6667.9c0,0,38.5,77.56,41.26,145.77l-65.46-0.55c0,0-6.05-80.31-42.36-155.12L449.27,6667.9z"/>
		<path class="st1" d="M394.81,6683.85c2.2,0.55,32.45,2.75,32.45,2.75s24.75,52.26,33.55,126.52"/>
		<line class="st1" x1="412.41" y1="6686.6" x2="412.41" y2="6744.36"/>
		<line class="st1" x1="438.81" y1="6716.85" x2="438.81" y2="6813.12"/>
		<line class="st1" x1="583.48" y1="6740.51" x2="583.48" y2="6814.22"/>
		<line class="st1" x1="597.78" y1="6814.22" x2="597.78" y2="6789.46"/>
		<path class="st1" d="M793.88,6843.09c-4.68-1.38-390.27,6.88-390.27,6.88l-27.23,4.68"/>
		<path class="st1" d="M403.61,6849.97c-1.1-4.4,1.1-111.11-60.51-225.53c0,0-51.71-102.86-142.47-121.29"/>
		<path class="st1" d="M355.75,6593.64c0-2.2,11-29.7,11-29.7"/>
		<line class="st1" x1="500.42" y1="6623.34" x2="514.72" y2="6598.59"/>
		<line class="st1" x1="614.84" y1="6646.72" x2="624.19" y2="6624.44"/>
		<line class="st1" x1="667.09" y1="6650.85" x2="674.79" y2="6637.09"/>
		<line class="st1" x1="745.2" y1="6712.45" x2="727.05" y2="6726.76"/>
		<line class="st1" x1="677.54" y1="6720.7" x2="690.75" y2="6705.85"/>
		<line class="st1" x1="568.63" y1="6705.85" x2="591.18" y2="6689.9"/>
		<line class="st1" x1="427.26" y1="6686.6" x2="449.27" y2="6667.9"/>
		<path class="st1" d="M332.65,6671.2c-6.6-0.55-175.47,18.7-175.47,18.7l-0.55,286.59"/>
		<path class="st1" d="M78.52,6702.83l68.21,5.23c0,0-20.35,45.66-25.3,111.11"/>
		<path class="st1" d="M271.04,6845.57c0,0,8.8-94.06,31.35-135.32"/>
		<line class="st1" x1="347.5" y1="6705.85" x2="227.04" y2="6716.85"/>
		<polyline class="st1" points="179.84,6720.15 158.83,6716.85 345.3,6701.45 		"/>
		<line class="st1" x1="374.73" y1="6844.74" x2="372.53" y2="6821.09"/>
		<path class="st1" d="M356.58,6730.88c0,0-24.48-80.58-72.61-135.32"/>
		<path class="st1" d="M264.99,6576.59c0,0-15.95-20.35-66.01-37.95c0,0-20.35-6.05-41.81,8.8c0,0-72.61,58.31-103.41,151.82
			c0,0-26.4,91.31-25.3,120.46l-1.93,29.15"/>
		<path class="st1" d="M160.21,6570.81c0,0-15.13,16.23-16.78,17.88l69.31,12.65c0,0,22.55-24.2,40.71-34.65"/>
		<line class="st1" x1="203.11" y1="6579.89" x2="212.74" y2="6601.34"/>
		<path class="st1" d="M172.58,6616.19l24.75,4.95c0,0-26.95,29.15-41.26,64.91l-68.21-7.15l7.15-15.68"/>
		<line class="st1" x1="412.69" y1="6854.65" x2="461.37" y2="6854.65"/>
		<polyline class="st1" points="461.37,6999.86 461.37,7004.54 439.36,7009.49 412.69,7004.81 		"/>
		<line class="st1" x1="438.26" y1="6854.92" x2="438.37" y2="7009.49"/>
		<line class="st1" x1="557.9" y1="6853.82" x2="598.99" y2="6853"/>
		<line class="st1" x1="703.12" y1="6850.52" x2="668.47" y2="6852.17"/>
		<polyline class="st1" points="703.95,6952.01 703.4,6963.83 690.75,6966.03 666.54,6963.83 665.99,6952.01 		"/>
		<line class="st1" x1="692.4" y1="6852.17" x2="690.75" y2="6966.03"/>
		<polyline class="st1" points="598.99,6946.23 597.78,6980.89 582.38,6984.19 554.88,6982.54 		"/>
		<line class="st1" x1="582.38" y1="6984.19" x2="582.93" y2="6853.82"/>
		<polyline class="st1" points="598.88,6974.84 666.54,6963.83 599.43,6959.98 		"/>
		<line class="st1" x1="555.98" y1="6956.13" x2="461.92" y2="6949.53"/>
		<line class="st1" x1="556.25" y1="6942.93" x2="557.08" y2="6978.41"/>
		<line class="st1" x1="462.19" y1="6937.16" x2="461.37" y2="6975.11"/>
		<line class="st1" x1="413.51" y1="6975.94" x2="411.86" y2="6939.63"/>
		<polyline class="st1" points="325.23,6949.53 326.05,6958.88 309,6959.98 291.4,6957.23 		"/>
		<line class="st1" x1="309" y1="6959.98" x2="309.55" y2="6709.15"/>
		<line class="st1" x1="557.63" y1="6713.55" x2="491.07" y2="6717.95"/>
		<line class="st1" x1="471.27" y1="6631.04" x2="483.37" y2="6620.04"/>
		<line class="st1" x1="692.95" y1="6753.16" x2="692.4" y2="6816.42"/>
		<polyline class="st1" points="787.28,6957.78 392.61,7030.94 16.64,6980.89 		"/>
		<line class="st1" x1="392.61" y1="7030.94" x2="393.71" y2="7070"/>
		<polyline class="st1" points="289.75,6992.44 137.93,6974.84 139.03,6730.06 		"/>
		<line class="st1" x1="156.63" y1="6976.49" x2="411.86" y2="6948.98"/>
	</g>
</g>
<g>
	<path class="st16" d="M403.61,6849.97c-1.1-4.4,1.1-111.11-60.51-225.53c0,0-51.71-102.86-142.47-121.29"/>
	<path class="st16" d="M408.43,6849.89c-1.1-4.38,1.1-110.56-60.33-224.51c0,0-51.68-102.42-142.1-120.88"/>
	<path class="st16" d="M413.25,6849.8c-1.09-4.36,1.09-110.01-60.15-223.49c0,0-51.65-101.98-141.72-120.48"/>
	<path class="st16" d="M418.06,6849.72c-1.09-4.35,1.09-109.46-59.97-222.47c0,0-51.62-101.54-141.35-120.07"/>
	<path class="st16" d="M422.88,6849.63c-1.09-4.33,1.09-108.91-59.8-221.45c0,0-51.59-101.1-140.98-119.67"/>
	<path class="st16" d="M427.7,6849.55c-1.08-4.31,1.08-108.36-59.62-220.43c0,0-51.56-100.66-140.61-119.26"/>
	<path class="st16" d="M432.52,6849.46c-1.08-4.29,1.08-107.81-59.44-219.41c0,0-51.53-100.22-140.24-118.86"/>
	<path class="st16" d="M437.34,6849.38c-1.08-4.27,1.08-107.26-59.26-218.39c0,0-51.5-99.79-139.87-118.45"/>
	<path class="st16" d="M442.16,6849.29c-1.07-4.26,1.07-106.71-59.09-217.36c0,0-51.48-99.35-139.5-118.05"/>
	<path class="st16" d="M446.97,6849.21c-1.07-4.24,1.07-106.16-58.91-216.34c0,0-51.45-98.91-139.12-117.64"/>
	<path class="st16" d="M451.79,6849.12c-1.07-4.22,1.07-105.61-58.73-215.32c0,0-51.42-98.47-138.75-117.24"/>
	<path class="st16" d="M456.61,6849.04c-1.06-4.2,1.06-105.06-58.55-214.3c0,0-51.39-98.03-138.38-116.83"/>
	<path class="st16" d="M461.43,6848.95c-1.06-4.18,1.06-104.51-58.38-213.28c0,0-51.36-97.59-138.01-116.43"/>
	<path class="st16" d="M466.25,6848.87c-1.06-4.17,1.06-103.96-58.2-212.26c0,0-51.33-97.15-137.64-116.02"/>
	<path class="st16" d="M471.06,6848.78c-1.05-4.15,1.05-103.41-58.02-211.24c0,0-51.3-96.71-137.27-115.62"/>
	<path class="st16" d="M475.88,6848.7c-1.05-4.13,1.05-102.86-57.84-210.22c0,0-51.27-96.27-136.89-115.21"/>
	<path class="st16" d="M480.7,6848.61c-1.05-4.11,1.05-102.31-57.67-209.2c0,0-51.25-95.83-136.52-114.81"/>
	<path class="st16" d="M485.52,6848.53c-1.05-4.09,1.05-101.76-57.49-208.18c0,0-51.22-95.39-136.15-114.4"/>
	<path class="st16" d="M490.34,6848.44c-1.04-4.07,1.04-101.21-57.31-207.16c0,0-51.19-94.95-135.78-114"/>
	<path class="st16" d="M495.16,6848.36c-1.04-4.06,1.04-100.66-57.13-206.14c0,0-51.16-94.51-135.41-113.59"/>
	<path class="st16" d="M499.97,6848.27c-1.04-4.04,1.04-100.11-56.96-205.12c0,0-51.13-94.07-135.04-113.18"/>
	<path class="st16" d="M504.79,6848.19c-1.03-4.02,1.03-99.56-56.78-204.1c0,0-51.1-93.63-134.67-112.78"/>
	<path class="st16" d="M509.61,6848.1c-1.03-4,1.03-99.01-56.6-203.08c0,0-51.07-93.19-134.29-112.37"/>
	<path class="st16" d="M514.43,6848.02c-1.03-3.98,1.03-98.46-56.42-202.06c0,0-51.04-92.75-133.92-111.97"/>
	<path class="st16" d="M519.25,6847.93c-1.02-3.97,1.02-97.91-56.24-201.04c0,0-51.02-92.31-133.55-111.56"/>
	<path class="st16" d="M524.07,6847.85c-1.02-3.95,1.02-97.36-56.07-200.02c0,0-50.99-91.87-133.18-111.16"/>
	<path class="st16" d="M528.88,6847.76c-1.02-3.93,1.02-96.81-55.89-199c0,0-50.96-91.43-132.81-110.75"/>
	<path class="st16" d="M533.7,6847.68c-1.01-3.91,1.01-96.26-55.71-197.98c0,0-50.93-90.99-132.44-110.35"/>
	<path class="st16" d="M538.52,6847.59c-1.01-3.89,1.01-95.71-55.53-196.96c0,0-50.9-90.55-132.07-109.94"/>
	<path class="st16" d="M543.34,6847.51c-1.01-3.88,1.01-95.16-55.36-195.94c0,0-50.87-90.11-131.69-109.54"/>
	<path class="st16" d="M548.16,6847.42c-1-3.86,1-94.61-55.18-194.92c0,0-50.84-89.67-131.32-109.13"/>
	<path class="st16" d="M552.97,6847.34c-1-3.84,1-94.06-55-193.9c0,0-50.81-89.23-130.95-108.73"/>
	<path class="st16" d="M557.79,6847.25c-1-3.82,1-93.51-54.82-192.88c0,0-50.79-88.79-130.58-108.32"/>
	<path class="st16" d="M562.61,6847.17c-0.99-3.8,0.99-92.96-54.65-191.86c0,0-50.76-88.35-130.21-107.92"/>
	<path class="st16" d="M567.43,6847.08c-0.99-3.79,0.99-92.41-54.47-190.84c0,0-50.73-87.91-129.84-107.51"/>
	<path class="st16" d="M572.25,6847c-0.99-3.77,0.99-91.86-54.29-189.81c0,0-50.7-87.47-129.46-107.11"/>
	<path class="st16" d="M577.07,6846.91c-0.98-3.75,0.98-91.31-54.11-188.79c0,0-50.67-87.03-129.09-106.7"/>
	<path class="st16" d="M581.88,6846.83c-0.98-3.73,0.98-90.76-53.94-187.77c0,0-50.64-86.59-128.72-106.3"/>
	<path class="st16" d="M586.7,6846.74c-0.98-3.71,0.98-90.21-53.76-186.75c0,0-50.61-86.15-128.35-105.89"/>
	<path class="st16" d="M591.52,6846.66c-0.97-3.7,0.97-89.66-53.58-185.73c0,0-50.58-85.72-127.98-105.48"/>
	<path class="st16" d="M596.34,6846.58c-0.97-3.68,0.97-89.11-53.4-184.71c0,0-50.56-85.28-127.61-105.08"/>
	<path class="st16" d="M601.16,6846.49c-0.97-3.66,0.97-88.56-53.23-183.69c0,0-50.53-84.84-127.24-104.67"/>
	<path class="st16" d="M605.97,6846.41c-0.96-3.64,0.96-88.01-53.05-182.67c0,0-50.5-84.4-126.86-104.27"/>
	<path class="st16" d="M610.79,6846.32c-0.96-3.62,0.96-87.46-52.87-181.65c0,0-50.47-83.96-126.49-103.86"/>
	<path class="st16" d="M615.61,6846.24c-0.96-3.6,0.96-86.91-52.69-180.63c0,0-50.44-83.52-126.12-103.46"/>
	<path class="st16" d="M620.43,6846.15c-0.95-3.59,0.95-86.36-52.52-179.61c0,0-50.41-83.08-125.75-103.05"/>
	<path class="st16" d="M625.25,6846.07c-0.95-3.57,0.95-85.81-52.34-178.59c0,0-50.38-82.64-125.38-102.65"/>
	<path class="st16" d="M630.07,6845.98c-0.95-3.55,0.95-85.26-52.16-177.57c0,0-50.35-82.2-125.01-102.24"/>
	<path class="st16" d="M634.88,6845.9c-0.95-3.53,0.95-84.71-51.98-176.55c0,0-50.32-81.76-124.63-101.84"/>
	<path class="st16" d="M639.7,6845.81c-0.94-3.51,0.94-84.16-51.8-175.53c0,0-50.3-81.32-124.26-101.43"/>
	<path class="st16" d="M644.52,6845.73c-0.94-3.5,0.94-83.61-51.63-174.51c0,0-50.27-80.88-123.89-101.03"/>
	<path class="st16" d="M649.34,6845.64c-0.94-3.48,0.94-83.06-51.45-173.49c0,0-50.24-80.44-123.52-100.62"/>
	<path class="st16" d="M654.16,6845.56c-0.93-3.46,0.93-82.51-51.27-172.47c0,0-50.21-80-123.15-100.22"/>
	<path class="st16" d="M658.97,6845.47c-0.93-3.44,0.93-81.96-51.09-171.45c0,0-50.18-79.56-122.78-99.81"/>
	<path class="st16" d="M663.79,6845.39c-0.93-3.42,0.93-81.41-50.92-170.43c0,0-50.15-79.12-122.41-99.41"/>
	<path class="st16" d="M668.61,6845.3c-0.92-3.41,0.92-80.86-50.74-169.41c0,0-50.12-78.68-122.03-99"/>
	<path class="st16" d="M673.43,6845.22c-0.92-3.39,0.92-80.31-50.56-168.39c0,0-50.09-78.24-121.66-98.6"/>
	<path class="st16" d="M678.25,6845.13c-0.92-3.37,0.92-79.76-50.38-167.37c0,0-50.07-77.8-121.29-98.19"/>
	<path class="st16" d="M683.07,6845.05c-0.91-3.35,0.91-79.21-50.21-166.35c0,0-50.04-77.36-120.92-97.78"/>
	<path class="st16" d="M687.88,6844.96c-0.91-3.33,0.91-78.66-50.03-165.33c0,0-50.01-76.92-120.55-97.38"/>
	<path class="st16" d="M692.7,6844.88c-0.91-3.32,0.91-78.11-49.85-164.31c0,0-49.98-76.48-120.18-96.97"/>
	<path class="st16" d="M697.52,6844.79c-0.9-3.3,0.9-77.56-49.67-163.29c0,0-49.95-76.04-119.81-96.57"/>
	<path class="st16" d="M702.34,6844.71c-0.9-3.28,0.9-77.01-49.5-162.26c0,0-49.92-75.6-119.43-96.16"/>
	<path class="st16" d="M707.16,6844.62c-0.9-3.26,0.9-76.46-49.32-161.24c0,0-49.89-75.16-119.06-95.76"/>
	<path class="st16" d="M711.97,6844.54c-0.89-3.24,0.89-75.91-49.14-160.22c0,0-49.86-74.72-118.69-95.35"/>
	<path class="st16" d="M716.79,6844.45c-0.89-3.22,0.89-75.36-48.96-159.2c0,0-49.84-74.28-118.32-94.95"/>
	<path class="st16" d="M721.61,6844.37c-0.89-3.21,0.89-74.81-48.79-158.18c0,0-49.81-73.84-117.95-94.54"/>
	<path class="st16" d="M726.43,6844.28c-0.88-3.19,0.88-74.26-48.61-157.16c0,0-49.78-73.4-117.58-94.14"/>
	<path class="st16" d="M731.25,6844.2c-0.88-3.17,0.88-73.71-48.43-156.14c0,0-49.75-72.96-117.2-93.73"/>
	<path class="st16" d="M736.07,6844.11c-0.88-3.15,0.88-73.16-48.25-155.12c0,0-49.72-72.52-116.83-93.33"/>
	<path class="st16" d="M740.88,6844.03c-0.87-3.13,0.87-72.61-48.08-154.1c0,0-49.69-72.08-116.46-92.92"/>
	<path class="st16" d="M745.7,6843.94c-0.87-3.12,0.87-72.06-47.9-153.08c0,0-49.66-71.65-116.09-92.52"/>
	<path class="st16" d="M750.52,6843.86c-0.87-3.1,0.87-71.51-47.72-152.06c0,0-49.63-71.21-115.72-92.11"/>
	<path class="st16" d="M755.34,6843.77c-0.86-3.08,0.86-70.96-47.54-151.04c0,0-49.61-70.77-115.35-91.71"/>
	<path class="st16" d="M760.16,6843.69c-0.86-3.06,0.86-70.41-47.36-150.02c0,0-49.58-70.33-114.98-91.3"/>
	<path class="st16" d="M764.97,6843.6c-0.86-3.04,0.86-69.86-47.19-149c0,0-49.55-69.89-114.6-90.9"/>
	<path class="st16" d="M769.79,6843.52c-0.85-3.03,0.85-69.31-47.01-147.98c0,0-49.52-69.45-114.23-90.49"/>
	<path class="st16" d="M774.61,6843.43c-0.85-3.01,0.85-68.76-46.83-146.96c0,0-49.49-69.01-113.86-90.08"/>
	<path class="st16" d="M779.43,6843.35c-0.85-2.99,0.85-68.21-46.65-145.94c0,0-49.46-68.57-113.49-89.68"/>
	<path class="st16" d="M784.25,6843.26c-0.85-2.97,0.85-67.66-46.48-144.92c0,0-49.43-68.13-113.12-89.27"/>
	<path class="st16" d="M789.07,6843.18c-0.84-2.95,0.84-67.11-46.3-143.9c0,0-49.4-67.69-112.75-88.87"/>
	<path class="st16" d="M793.88,6843.09c-0.84-2.94,0.84-66.56-46.12-142.88c0,0-49.38-67.25-112.37-88.46"/>
</g>
<g>
	<defs>
		<path id="SVGID_1_" d="M403.61,6849.97c-1.1-4.4,1.1-111.11-60.51-225.53c0,0-51.71-102.86-142.47-121.29l434,108.91
			c0,0,146.32,44.28,159.24,231.03L403.61,6849.97z"/>
	</defs>
	<clipPath id="SVGID_00000115505839881510971280000015278478343094515368_">
		<use xlink:href="#SVGID_1_"  style="overflow:visible;"/>
	</clipPath>
	<g style="clip-path:url(#SVGID_00000115505839881510971280000015278478343094515368_);">
		<g>
			<line class="st16" x1="802.34" y1="6708.05" x2="349.21" y2="6637.23"/>
			<line class="st16" x1="802.03" y1="6712.4" x2="350.96" y2="6644.09"/>
			<line class="st16" x1="801.72" y1="6716.76" x2="352.72" y2="6650.96"/>
			<line class="st16" x1="801.41" y1="6721.11" x2="354.47" y2="6657.82"/>
			<line class="st16" x1="801.1" y1="6725.46" x2="356.23" y2="6664.68"/>
			<line class="st16" x1="800.79" y1="6729.81" x2="357.98" y2="6671.54"/>
			<line class="st16" x1="800.48" y1="6734.16" x2="359.74" y2="6678.41"/>
			<line class="st16" x1="800.17" y1="6738.52" x2="361.49" y2="6685.27"/>
			<line class="st16" x1="799.86" y1="6742.87" x2="363.25" y2="6692.13"/>
			<line class="st16" x1="799.55" y1="6747.22" x2="365" y2="6698.99"/>
			<line class="st16" x1="799.24" y1="6751.57" x2="366.76" y2="6705.86"/>
			<line class="st16" x1="798.93" y1="6755.92" x2="368.51" y2="6712.72"/>
			<line class="st16" x1="798.62" y1="6760.27" x2="370.27" y2="6719.58"/>
			<line class="st16" x1="798.31" y1="6764.63" x2="372.02" y2="6726.44"/>
			<line class="st16" x1="798" y1="6768.98" x2="373.78" y2="6733.31"/>
			<line class="st16" x1="797.69" y1="6773.33" x2="375.53" y2="6740.17"/>
			<line class="st16" x1="797.38" y1="6777.68" x2="377.29" y2="6747.03"/>
			<line class="st16" x1="797.07" y1="6782.03" x2="379.04" y2="6753.9"/>
			<line class="st16" x1="796.76" y1="6786.38" x2="380.8" y2="6760.76"/>
			<line class="st16" x1="796.45" y1="6790.74" x2="382.55" y2="6767.62"/>
			<line class="st16" x1="796.13" y1="6795.09" x2="384.31" y2="6774.48"/>
			<line class="st16" x1="795.82" y1="6799.44" x2="386.06" y2="6781.35"/>
			<line class="st16" x1="795.51" y1="6803.79" x2="387.82" y2="6788.21"/>
			<line class="st16" x1="795.2" y1="6808.14" x2="389.57" y2="6795.07"/>
			<line class="st16" x1="794.89" y1="6812.5" x2="391.33" y2="6801.93"/>
			<line class="st16" x1="794.58" y1="6816.85" x2="393.08" y2="6808.8"/>
			<line class="st16" x1="794.27" y1="6821.2" x2="394.84" y2="6815.66"/>
			<line class="st16" x1="793.96" y1="6825.55" x2="396.59" y2="6822.52"/>
			<line class="st16" x1="793.65" y1="6829.9" x2="398.35" y2="6829.38"/>
			<line class="st16" x1="793.34" y1="6834.25" x2="400.1" y2="6836.25"/>
			<line class="st16" x1="793.03" y1="6838.61" x2="401.86" y2="6843.11"/>
			<line class="st16" x1="792.72" y1="6842.96" x2="403.61" y2="6849.97"/>
		</g>
		<g>
			<line class="st16" x1="780.96" y1="6647.55" x2="182.15" y2="6500.26"/>
			<line class="st16" x1="781.98" y1="6650.43" x2="190.11" y2="6506.79"/>
			<line class="st16" x1="782.99" y1="6653.31" x2="198.06" y2="6513.31"/>
			<line class="st16" x1="784.01" y1="6656.19" x2="206.02" y2="6519.83"/>
			<line class="st16" x1="785.03" y1="6659.07" x2="213.97" y2="6526.35"/>
			<line class="st16" x1="786.05" y1="6661.95" x2="221.93" y2="6532.88"/>
			<line class="st16" x1="787.07" y1="6664.83" x2="229.88" y2="6539.4"/>
			<line class="st16" x1="788.09" y1="6667.71" x2="237.84" y2="6545.92"/>
			<line class="st16" x1="789.1" y1="6670.6" x2="245.79" y2="6552.44"/>
			<line class="st16" x1="790.12" y1="6673.48" x2="253.75" y2="6558.96"/>
			<line class="st16" x1="791.14" y1="6676.36" x2="261.7" y2="6565.49"/>
			<line class="st16" x1="792.16" y1="6679.24" x2="269.66" y2="6572.01"/>
			<line class="st16" x1="793.18" y1="6682.12" x2="277.61" y2="6578.53"/>
			<line class="st16" x1="794.2" y1="6685" x2="285.57" y2="6585.05"/>
			<line class="st16" x1="795.21" y1="6687.88" x2="293.52" y2="6591.58"/>
			<line class="st16" x1="796.23" y1="6690.77" x2="301.48" y2="6598.1"/>
			<line class="st16" x1="797.25" y1="6693.65" x2="309.43" y2="6604.62"/>
			<line class="st16" x1="798.27" y1="6696.53" x2="317.39" y2="6611.14"/>
			<line class="st16" x1="799.29" y1="6699.41" x2="325.34" y2="6617.67"/>
			<line class="st16" x1="800.31" y1="6702.29" x2="333.3" y2="6624.19"/>
			<line class="st16" x1="801.32" y1="6705.17" x2="341.25" y2="6630.71"/>
			<line class="st16" x1="802.34" y1="6708.05" x2="349.21" y2="6637.23"/>
		</g>
	</g>
</g>
<g>
	<rect x="-3.12" y="1939.83" class="st3" width="481.69" height="328.97"/>
	<text transform="matrix(1 0 0 1 -3.1207 1963.8301)"><tspan x="0" y="0" class="st4 st5 st6">The FRM is supported by four legs </tspan><tspan x="0" y="38.4" class="st4 st5 st6">that elevate the replanted coral </tspan><tspan x="0" y="76.8" class="st4 st5 st6">from the substrate, the surface on </tspan><tspan x="0" y="115.2" class="st4 st5 st6">which they have been attached.</tspan></text>
</g>
<rect x="596.26" y="2081.4" class="st3" width="205.05" height="151.21"/>
<text transform="matrix(1 0 0 1 596.2611 2105.3994)"><tspan x="0" y="0" class="st4 st5 st6">16 sites for </tspan><tspan x="0" y="38.4" class="st4 st5 st6">coral </tspan><tspan x="0" y="76.8" class="st4 st5 st6">transplants</tspan></text>
<g>
	<text transform="matrix(1 0 0 1 -3.1725 1885.4795)" class="st19 st5 st20 st9">Framed reef module prototype</text>
</g>
<g>
	<g>
		<line class="st21" x1="380.47" y1="2577.85" x2="409.58" y2="2742.34"/>
		<g>
			<polygon class="st4" points="378.75,2579.84 379.17,2580.11 380.5,2578.04 382.47,2579.53 382.77,2579.13 380.38,2577.32 			"/>
		</g>
		<g>
			<polygon class="st4" points="407.28,2741.06 407.58,2740.66 409.55,2742.15 410.89,2740.08 411.31,2740.35 409.68,2742.87 			"/>
		</g>
	</g>
</g>
<g>
	<text transform="matrix(1 0 0 1 293.3197 2674.0889)" class="st4 st22 st6">58 cm</text>
</g>
<g>
	<g>
		<line class="st23" x1="35.61" y1="2511.74" x2="76.63" y2="2357.04"/>
		<line class="st23" x1="411.66" y1="2560.15" x2="443.32" y2="2738.85"/>
		<line class="st23" x1="648.29" y1="2319" x2="733.24" y2="2392.06"/>
		<line class="st23" x1="322.04" y1="2162.21" x2="293.32" y2="2251.98"/>
		<g>
			<polyline class="st24" points="76.63,2357.04 550.28,2202.32 477.83,2116.08 			"/>
			<polyline class="st24" points="25.98,2266.2 178.27,2221.23 411.66,2560.15 			"/>
			<polyline class="st24" points="215.36,2620.93 139.6,2481.37 648.29,2319 			"/>
			<polyline class="st24" points="761.06,2445.07 585.39,2501.64 322.04,2162.21 			"/>
		</g>
	</g>
	<path class="st25" d="M295.36,2426.18c-0.82-0.48-1.43-1.52-1.03-2.37c0.51-1.1,2.07-1.03,3.27-0.82c0.57,0.1,1.34,0.09,1.54-0.46
		c0.1-0.28,0-0.59-0.12-0.86c-0.5-1.15-1.28-2.18-2.25-2.98c-0.56-0.46-1.18-0.84-1.63-1.4c-1.19-1.46-0.7-3.95,0.95-4.85
		c1.26,0.44,2.02,1.71,2.58,2.92c0.56,1.21,1.06,2.53,2.12,3.35c1.06,0.82,2.89,0.8,3.48-0.4c0.55-1.11-0.23-2.36-0.77-3.47
		s-0.58-2.84,0.61-3.17c0.63,1.38,2.85,8.52,4.27,8.85c2.4,0.56,3.51-3.45,3.43-5.34c-0.11-2.72-0.95-5.4-2.41-7.69
		c-0.6-0.95-1.33-1.89-1.47-3c-0.14-1.12,0.66-2.44,1.78-2.35c0.98,0.08,1.58,1.15,1.66,2.13c0.08,0.98-0.17,1.96-0.06,2.94
		c0.17,1.42,1.18,2.71,2.52,3.2c1.91-2.18,1.12-5.51,0.55-8.35c-0.24-1.21-0.41-2.54,0.18-3.63c0.6-1.08,2.27-1.62,3.09-0.7
		c0.51,0.57,0.51,1.41,0.47,2.17c-0.11,2.61-0.22,5.22-0.32,7.84c2.1,0.33,4.32-1.12,4.87-3.17c0.86,1.55,1.59,3.8,0.14,4.82
		c-0.72,0.51-1.68,0.43-2.54,0.64c-0.86,0.21-1.74,1.06-1.36,1.85c0.37,0.78,1.49,0.67,2.35,0.56c0.86-0.11,2.06,0.25,1.94,1.1
		c-0.27,1.21-1.43,2.16-2.67,2.2c-0.71,0.02-1.56-0.17-2,0.39c-0.18,0.23-0.23,0.54-0.28,0.83c-0.34,2.23-0.67,4.47-1.01,6.7
		c1.09,1.4,3.83,0.53,3.9-1.24c0.03-0.79-0.36-1.52-0.48-2.3c-0.18-1.19,0.43-2.56,1.59-2.89c1.16-0.33,2.54,0.91,2.08,2.02
		c1.19-0.16,1.78-1.61,1.67-2.81c-0.11-1.2-0.64-2.34-0.66-3.55c-0.02-1.21,0.81-2.59,2.01-2.5c1.48-0.01,2.02,1.98,1.79,3.44
		c-0.23,1.46-0.71,3.16,0.27,4.26c0.78,0.87,2.19,0.89,3.24,0.36c1.04-0.53,1.8-1.47,2.52-2.39c1.47,0.55,1.48,2.82,0.4,3.96
		c-1.08,1.14-2.74,1.47-4.26,1.85c-1.52,0.38-3.17,0.99-3.9,2.39c0.79,0.43,1.61,0.79,2.46,1.09c0.76,0.89,0.23,2.38-0.77,3
		s-2.24,0.61-3.42,0.56c-1.17-0.06-2.4-0.13-3.46,0.38c-1.03,0.5-1.72,1.49-2.6,2.22c-2.96,2.46-9.46,2.23-13,1.04
		c-1.96-0.66-2.88-1.95-4.47-3.14C299.92,2427.73,297.66,2427.52,295.36,2426.18z"/>
	<path class="st25" d="M468.08,2368.77c-0.82-0.48-1.43-1.52-1.03-2.37c0.51-1.1,2.07-1.03,3.27-0.82c0.57,0.1,1.34,0.09,1.54-0.46
		c0.1-0.28,0-0.59-0.12-0.86c-0.5-1.15-1.28-2.18-2.25-2.98c-0.56-0.46-1.18-0.84-1.63-1.4c-1.19-1.46-0.7-3.95,0.95-4.85
		c1.26,0.44,2.02,1.71,2.58,2.92c0.56,1.21,1.06,2.53,2.12,3.35c1.06,0.82,2.89,0.8,3.48-0.4c0.55-1.11-0.23-2.36-0.77-3.47
		c-0.53-1.11-0.58-2.84,0.61-3.17c0.63,1.38,2.85,8.52,4.27,8.85c2.4,0.56,3.51-3.45,3.43-5.34c-0.11-2.72-0.95-5.4-2.41-7.69
		c-0.6-0.95-1.33-1.89-1.47-3c-0.14-1.12,0.66-2.44,1.78-2.35c0.98,0.08,1.58,1.15,1.66,2.13c0.08,0.98-0.17,1.96-0.06,2.94
		c0.17,1.42,1.18,2.71,2.52,3.2c1.91-2.18,1.12-5.51,0.55-8.35c-0.24-1.21-0.41-2.54,0.18-3.62c0.6-1.08,2.27-1.62,3.09-0.7
		c0.51,0.57,0.51,1.41,0.47,2.17c-0.11,2.61-0.22,5.22-0.32,7.84c2.1,0.33,4.32-1.12,4.87-3.17c0.86,1.55,1.59,3.8,0.14,4.82
		c-0.72,0.51-1.68,0.43-2.54,0.64c-0.86,0.21-1.74,1.06-1.36,1.85c0.37,0.78,1.49,0.67,2.35,0.56c0.86-0.11,2.06,0.25,1.94,1.1
		c-0.27,1.21-1.43,2.16-2.67,2.2c-0.71,0.02-1.56-0.17-2,0.39c-0.18,0.23-0.23,0.54-0.28,0.83c-0.34,2.23-0.67,4.47-1.01,6.7
		c1.09,1.4,3.83,0.53,3.9-1.24c0.03-0.79-0.36-1.52-0.48-2.3c-0.18-1.19,0.43-2.56,1.59-2.89c1.16-0.33,2.54,0.91,2.08,2.02
		c1.19-0.16,1.78-1.61,1.67-2.81c-0.11-1.2-0.64-2.34-0.66-3.55c-0.02-1.21,0.81-2.59,2.01-2.5c1.48-0.01,2.02,1.98,1.79,3.44
		c-0.23,1.46-0.71,3.16,0.27,4.26c0.78,0.87,2.19,0.89,3.24,0.36c1.04-0.53,1.8-1.47,2.52-2.39c1.47,0.55,1.48,2.82,0.4,3.96
		s-2.74,1.47-4.26,1.85c-1.52,0.38-3.17,0.99-3.9,2.39c0.79,0.43,1.61,0.79,2.46,1.09c0.76,0.89,0.23,2.38-0.77,3
		c-0.99,0.62-2.24,0.61-3.42,0.56c-1.17-0.06-2.4-0.13-3.46,0.38c-1.03,0.5-1.72,1.49-2.6,2.22c-2.96,2.46-9.46,2.23-13,1.04
		c-1.96-0.66-2.88-1.95-4.47-3.14C472.64,2370.32,470.38,2370.1,468.08,2368.77z"/>
	<path class="st25" d="M372.3,2250.69c-0.82-0.48-1.43-1.52-1.03-2.37c0.51-1.1,2.07-1.03,3.27-0.82c0.57,0.1,1.34,0.09,1.54-0.46
		c0.1-0.28,0-0.59-0.12-0.86c-0.5-1.15-1.28-2.18-2.25-2.98c-0.56-0.46-1.18-0.84-1.63-1.4c-1.19-1.46-0.7-3.95,0.95-4.85
		c1.26,0.44,2.02,1.71,2.58,2.92c0.56,1.21,1.06,2.53,2.12,3.35s2.89,0.8,3.48-0.4c0.55-1.11-0.23-2.36-0.77-3.47
		c-0.53-1.11-0.58-2.84,0.61-3.17c0.63,1.38,2.85,8.52,4.27,8.85c2.4,0.56,3.51-3.45,3.43-5.34c-0.11-2.72-0.95-5.4-2.41-7.69
		c-0.6-0.95-1.33-1.89-1.47-3c-0.14-1.12,0.66-2.44,1.78-2.35c0.98,0.08,1.58,1.15,1.66,2.13s-0.17,1.96-0.06,2.94
		c0.17,1.42,1.18,2.71,2.52,3.2c1.91-2.18,1.12-5.51,0.55-8.35c-0.24-1.21-0.41-2.54,0.18-3.63c0.6-1.08,2.27-1.62,3.09-0.7
		c0.51,0.57,0.51,1.41,0.47,2.17c-0.11,2.61-0.22,5.22-0.32,7.84c2.1,0.33,4.32-1.12,4.87-3.17c0.86,1.55,1.59,3.8,0.14,4.82
		c-0.72,0.51-1.68,0.43-2.54,0.64c-0.86,0.21-1.74,1.06-1.36,1.85c0.37,0.78,1.49,0.67,2.35,0.56c0.86-0.11,2.06,0.25,1.94,1.1
		c-0.27,1.21-1.43,2.16-2.67,2.2c-0.71,0.02-1.56-0.17-2,0.39c-0.18,0.23-0.23,0.54-0.28,0.83c-0.34,2.23-0.67,4.47-1.01,6.7
		c1.09,1.4,3.83,0.53,3.9-1.24c0.03-0.79-0.36-1.52-0.48-2.3c-0.18-1.19,0.43-2.56,1.59-2.89c1.16-0.33,2.54,0.91,2.08,2.02
		c1.19-0.16,1.78-1.61,1.67-2.81c-0.11-1.2-0.64-2.34-0.66-3.55c-0.02-1.21,0.81-2.59,2.01-2.5c1.48-0.01,2.02,1.98,1.79,3.44
		c-0.23,1.46-0.71,3.16,0.27,4.26c0.78,0.87,2.19,0.89,3.24,0.36c1.04-0.53,1.8-1.47,2.52-2.39c1.47,0.55,1.48,2.82,0.4,3.96
		c-1.08,1.14-2.74,1.47-4.26,1.85c-1.52,0.38-3.17,0.99-3.9,2.39c0.79,0.43,1.61,0.79,2.46,1.09c0.76,0.89,0.23,2.38-0.77,3
		s-2.24,0.61-3.42,0.56c-1.17-0.06-2.4-0.13-3.46,0.38c-1.03,0.5-1.72,1.49-2.6,2.22c-2.96,2.46-9.46,2.23-13,1.04
		c-1.96-0.66-2.88-1.95-4.47-3.14C376.86,2252.24,374.61,2252.03,372.3,2250.69z"/>
	<path class="st25" d="M625.78,2316.49c-0.82-0.48-1.43-1.52-1.03-2.37c0.51-1.1,2.07-1.03,3.27-0.82c0.57,0.1,1.34,0.09,1.54-0.46
		c0.1-0.28,0-0.59-0.12-0.86c-0.5-1.15-1.28-2.18-2.26-2.98c-0.56-0.46-1.18-0.84-1.63-1.4c-1.19-1.46-0.7-3.95,0.95-4.85
		c1.26,0.44,2.02,1.71,2.58,2.92c0.56,1.21,1.06,2.53,2.12,3.35c1.06,0.82,2.89,0.8,3.48-0.4c0.55-1.11-0.23-2.36-0.77-3.47
		c-0.53-1.11-0.58-2.84,0.61-3.17c0.63,1.38,2.85,8.52,4.27,8.85c2.4,0.56,3.51-3.45,3.43-5.34c-0.11-2.72-0.95-5.4-2.41-7.69
		c-0.6-0.95-1.33-1.89-1.47-3c-0.14-1.12,0.66-2.44,1.78-2.35c0.98,0.08,1.58,1.15,1.66,2.13c0.08,0.98-0.17,1.96-0.06,2.94
		c0.17,1.42,1.18,2.71,2.52,3.2c1.91-2.18,1.12-5.51,0.55-8.35c-0.24-1.21-0.41-2.54,0.18-3.63c0.6-1.08,2.27-1.62,3.09-0.7
		c0.51,0.57,0.51,1.41,0.47,2.17c-0.11,2.61-0.22,5.22-0.32,7.84c2.1,0.33,4.32-1.12,4.87-3.17c0.86,1.55,1.59,3.8,0.14,4.82
		c-0.72,0.51-1.68,0.43-2.54,0.64c-0.86,0.21-1.74,1.06-1.36,1.85c0.37,0.78,1.49,0.67,2.35,0.56c0.86-0.11,2.06,0.25,1.94,1.1
		c-0.27,1.21-1.43,2.16-2.67,2.2c-0.71,0.02-1.56-0.17-2,0.39c-0.18,0.23-0.23,0.54-0.28,0.83c-0.34,2.23-0.67,4.46-1.01,6.7
		c1.09,1.4,3.83,0.53,3.9-1.24c0.03-0.79-0.36-1.52-0.48-2.3c-0.18-1.19,0.43-2.56,1.59-2.89s2.54,0.91,2.08,2.02
		c1.19-0.16,1.78-1.61,1.67-2.81c-0.11-1.2-0.64-2.34-0.66-3.55c-0.02-1.21,0.81-2.59,2.01-2.5c1.48-0.01,2.02,1.98,1.79,3.44
		c-0.23,1.46-0.71,3.16,0.27,4.26c0.78,0.87,2.19,0.89,3.24,0.36c1.04-0.53,1.8-1.47,2.52-2.39c1.47,0.55,1.48,2.82,0.4,3.96
		c-1.08,1.14-2.74,1.47-4.26,1.85s-3.17,0.99-3.9,2.39c0.79,0.43,1.61,0.79,2.46,1.09c0.76,0.89,0.23,2.38-0.77,3
		c-0.99,0.62-2.24,0.61-3.42,0.56c-1.17-0.06-2.4-0.13-3.46,0.38c-1.03,0.5-1.72,1.49-2.6,2.22c-2.96,2.46-9.46,2.23-13,1.04
		c-1.96-0.66-2.88-1.95-4.47-3.14C630.34,2318.05,628.08,2317.83,625.78,2316.49z"/>
	<path class="st25" d="M569.57,2500.95c-0.82-0.48-1.43-1.52-1.03-2.37c0.51-1.1,2.07-1.03,3.27-0.82c0.57,0.1,1.34,0.09,1.54-0.46
		c0.1-0.28,0-0.59-0.12-0.86c-0.5-1.15-1.28-2.18-2.26-2.98c-0.56-0.46-1.18-0.84-1.63-1.4c-1.19-1.46-0.7-3.95,0.95-4.85
		c1.26,0.44,2.02,1.71,2.58,2.92c0.56,1.21,1.06,2.53,2.12,3.35c1.06,0.82,2.89,0.8,3.48-0.4c0.55-1.11-0.23-2.36-0.77-3.47
		s-0.58-2.84,0.61-3.17c0.63,1.38,2.85,8.52,4.27,8.85c2.4,0.56,3.51-3.45,3.43-5.34c-0.11-2.72-0.95-5.4-2.41-7.69
		c-0.6-0.95-1.33-1.89-1.47-3c-0.14-1.12,0.66-2.44,1.78-2.35c0.98,0.08,1.58,1.15,1.66,2.13c0.08,0.98-0.17,1.96-0.06,2.94
		c0.17,1.42,1.18,2.71,2.52,3.2c1.91-2.18,1.12-5.51,0.55-8.35c-0.24-1.21-0.41-2.54,0.18-3.63c0.6-1.08,2.27-1.62,3.09-0.7
		c0.51,0.57,0.51,1.41,0.47,2.17c-0.11,2.61-0.22,5.22-0.32,7.84c2.1,0.33,4.32-1.12,4.87-3.17c0.86,1.55,1.59,3.8,0.14,4.82
		c-0.72,0.51-1.68,0.43-2.54,0.64c-0.86,0.21-1.74,1.06-1.36,1.85c0.37,0.78,1.49,0.67,2.35,0.56c0.86-0.11,2.06,0.25,1.94,1.1
		c-0.27,1.21-1.43,2.16-2.67,2.2c-0.71,0.02-1.56-0.17-2,0.39c-0.18,0.23-0.23,0.54-0.28,0.83c-0.34,2.23-0.67,4.47-1.01,6.7
		c1.09,1.4,3.83,0.53,3.9-1.24c0.03-0.79-0.36-1.52-0.48-2.3c-0.18-1.19,0.43-2.56,1.59-2.89c1.16-0.33,2.54,0.91,2.08,2.02
		c1.19-0.16,1.78-1.61,1.67-2.81c-0.11-1.2-0.64-2.34-0.66-3.55c-0.02-1.21,0.81-2.59,2.01-2.5c1.48-0.01,2.02,1.98,1.79,3.44
		c-0.23,1.46-0.71,3.16,0.27,4.26c0.78,0.87,2.19,0.89,3.24,0.36c1.04-0.53,1.8-1.47,2.52-2.39c1.47,0.55,1.48,2.82,0.4,3.96
		c-1.08,1.14-2.74,1.47-4.26,1.85c-1.52,0.38-3.17,0.99-3.9,2.39c0.79,0.43,1.61,0.79,2.46,1.09c0.76,0.89,0.23,2.38-0.77,3
		c-0.99,0.62-2.24,0.61-3.42,0.56c-1.17-0.06-2.4-0.13-3.46,0.38c-1.03,0.5-1.72,1.49-2.6,2.22c-2.96,2.46-9.46,2.23-13,1.04
		c-1.96-0.66-2.88-1.95-4.47-3.14C574.13,2502.51,571.88,2502.29,569.57,2500.95z"/>
	<path class="st25" d="M746.42,2444.95c-0.82-0.48-1.43-1.52-1.03-2.37c0.51-1.1,2.07-1.03,3.27-0.82c0.57,0.1,1.34,0.09,1.54-0.46
		c0.1-0.28,0-0.59-0.12-0.86c-0.5-1.15-1.28-2.18-2.26-2.98c-0.56-0.46-1.18-0.84-1.63-1.4c-1.19-1.46-0.7-3.95,0.95-4.85
		c1.26,0.44,2.02,1.71,2.58,2.92s1.06,2.53,2.12,3.35c1.06,0.82,2.89,0.8,3.48-0.4c0.55-1.11-0.23-2.36-0.77-3.47
		c-0.53-1.11-0.58-2.84,0.61-3.17c0.63,1.38,2.85,8.52,4.27,8.85c2.4,0.56,3.51-3.45,3.43-5.34c-0.11-2.72-0.95-5.4-2.41-7.69
		c-0.6-0.95-1.33-1.89-1.47-3c-0.14-1.12,0.66-2.44,1.78-2.35c0.98,0.08,1.58,1.15,1.66,2.13s-0.17,1.96-0.06,2.94
		c0.17,1.42,1.18,2.71,2.52,3.2c1.91-2.18,1.12-5.51,0.55-8.35c-0.24-1.21-0.41-2.54,0.18-3.63c0.6-1.08,2.27-1.62,3.09-0.7
		c0.51,0.57,0.51,1.41,0.47,2.17c-0.11,2.61-0.22,5.22-0.32,7.84c2.1,0.33,4.32-1.12,4.87-3.17c0.86,1.55,1.59,3.8,0.14,4.82
		c-0.72,0.51-1.68,0.43-2.54,0.64c-0.86,0.21-1.74,1.06-1.36,1.85c0.37,0.78,1.49,0.67,2.35,0.56c0.86-0.11,2.06,0.25,1.94,1.1
		c-0.27,1.21-1.43,2.16-2.67,2.2c-0.71,0.02-1.56-0.17-2,0.39c-0.18,0.23-0.23,0.54-0.28,0.83c-0.34,2.23-0.67,4.47-1.01,6.7
		c1.09,1.4,3.83,0.53,3.9-1.24c0.03-0.79-0.36-1.52-0.48-2.3c-0.18-1.19,0.43-2.56,1.59-2.89c1.16-0.33,2.54,0.91,2.08,2.02
		c1.19-0.16,1.78-1.61,1.67-2.81c-0.11-1.2-0.64-2.34-0.66-3.55c-0.02-1.21,0.81-2.59,2.01-2.5c1.48-0.01,2.02,1.98,1.79,3.44
		c-0.23,1.46-0.71,3.16,0.27,4.26c0.78,0.87,2.19,0.89,3.24,0.36c1.04-0.53,1.8-1.47,2.52-2.39c1.47,0.55,1.48,2.82,0.4,3.96
		c-1.08,1.14-2.74,1.47-4.26,1.85c-1.52,0.38-3.17,0.99-3.9,2.39c0.79,0.43,1.61,0.79,2.46,1.09c0.76,0.89,0.23,2.38-0.77,3
		c-0.99,0.62-2.24,0.61-3.42,0.56c-1.17-0.06-2.4-0.13-3.46,0.38c-1.03,0.5-1.72,1.49-2.6,2.22c-2.96,2.46-9.46,2.23-13,1.04
		c-1.96-0.66-2.88-1.95-4.47-3.14C750.98,2446.5,748.72,2446.28,746.42,2444.95z"/>
	<path class="st25" d="M217.49,2301.86c-0.82-0.48-1.43-1.52-1.03-2.37c0.51-1.1,2.07-1.03,3.27-0.82c0.57,0.1,1.34,0.09,1.54-0.46
		c0.1-0.28,0-0.59-0.12-0.86c-0.5-1.15-1.28-2.18-2.25-2.98c-0.56-0.46-1.18-0.84-1.63-1.4c-1.19-1.46-0.7-3.95,0.95-4.85
		c1.26,0.44,2.02,1.71,2.58,2.92c0.56,1.21,1.06,2.53,2.12,3.35c1.06,0.82,2.89,0.8,3.48-0.4c0.55-1.11-0.23-2.36-0.77-3.47
		c-0.53-1.11-0.58-2.84,0.61-3.17c0.63,1.38,2.85,8.52,4.27,8.85c2.4,0.56,3.51-3.45,3.43-5.34c-0.11-2.72-0.95-5.4-2.41-7.69
		c-0.6-0.95-1.33-1.89-1.47-3c-0.14-1.12,0.66-2.44,1.78-2.35c0.98,0.08,1.58,1.15,1.66,2.13c0.08,0.98-0.17,1.96-0.06,2.94
		c0.17,1.42,1.18,2.71,2.52,3.2c1.91-2.18,1.12-5.51,0.55-8.35c-0.24-1.21-0.41-2.54,0.18-3.63s2.27-1.62,3.09-0.7
		c0.51,0.57,0.51,1.41,0.47,2.17c-0.11,2.61-0.22,5.22-0.32,7.84c2.1,0.33,4.32-1.12,4.87-3.17c0.86,1.55,1.59,3.8,0.14,4.82
		c-0.72,0.51-1.68,0.43-2.54,0.64c-0.86,0.21-1.74,1.06-1.36,1.85c0.37,0.78,1.49,0.67,2.35,0.56c0.86-0.11,2.06,0.25,1.94,1.1
		c-0.27,1.21-1.43,2.16-2.67,2.2c-0.71,0.02-1.56-0.17-2,0.39c-0.18,0.23-0.23,0.54-0.28,0.83c-0.34,2.23-0.67,4.47-1.01,6.7
		c1.09,1.4,3.83,0.53,3.9-1.24c0.03-0.79-0.36-1.52-0.48-2.3c-0.18-1.19,0.43-2.56,1.59-2.89c1.16-0.33,2.54,0.91,2.08,2.02
		c1.19-0.16,1.78-1.61,1.67-2.81c-0.11-1.2-0.64-2.34-0.66-3.55c-0.02-1.21,0.81-2.59,2.01-2.5c1.48-0.01,2.02,1.98,1.79,3.44
		c-0.23,1.46-0.71,3.16,0.27,4.26c0.78,0.87,2.19,0.89,3.24,0.36c1.04-0.53,1.8-1.47,2.52-2.39c1.47,0.55,1.48,2.82,0.4,3.96
		c-1.08,1.14-2.74,1.47-4.26,1.85c-1.52,0.38-3.17,0.99-3.9,2.39c0.79,0.43,1.61,0.79,2.46,1.09c0.76,0.89,0.23,2.38-0.77,3
		c-0.99,0.62-2.24,0.61-3.42,0.56c-1.17-0.06-2.4-0.13-3.46,0.38c-1.03,0.5-1.72,1.49-2.6,2.22c-2.96,2.46-9.46,2.23-13,1.04
		c-1.96-0.66-2.88-1.95-4.47-3.14C222.05,2303.41,219.79,2303.19,217.49,2301.86z"/>
	<path class="st25" d="M54.74,2359.55c-0.82-0.48-1.43-1.52-1.03-2.37c0.51-1.1,2.07-1.03,3.27-0.82c0.57,0.1,1.34,0.09,1.54-0.46
		c0.1-0.28,0-0.59-0.12-0.86c-0.5-1.15-1.28-2.18-2.25-2.98c-0.56-0.46-1.18-0.84-1.63-1.4c-1.19-1.46-0.7-3.95,0.95-4.85
		c1.26,0.44,2.02,1.71,2.58,2.92c0.56,1.21,1.06,2.53,2.12,3.35c1.06,0.82,2.89,0.8,3.48-0.4c0.55-1.11-0.23-2.36-0.77-3.47
		c-0.53-1.11-0.58-2.84,0.61-3.17c0.63,1.38,2.85,8.52,4.27,8.85c2.4,0.56,3.51-3.45,3.43-5.34c-0.11-2.72-0.95-5.4-2.41-7.69
		c-0.6-0.95-1.33-1.89-1.47-3c-0.14-1.12,0.66-2.44,1.78-2.35c0.98,0.08,1.58,1.15,1.66,2.13c0.08,0.98-0.17,1.96-0.06,2.94
		c0.17,1.42,1.18,2.71,2.52,3.2c1.91-2.18,1.12-5.51,0.55-8.35c-0.24-1.21-0.41-2.54,0.18-3.62c0.6-1.08,2.27-1.62,3.09-0.7
		c0.51,0.57,0.51,1.41,0.47,2.17c-0.11,2.61-0.22,5.22-0.32,7.84c2.1,0.33,4.32-1.12,4.87-3.17c0.86,1.55,1.59,3.8,0.14,4.82
		c-0.72,0.51-1.68,0.43-2.54,0.64c-0.86,0.21-1.74,1.06-1.36,1.85c0.37,0.78,1.49,0.67,2.35,0.56c0.86-0.11,2.06,0.25,1.94,1.1
		c-0.27,1.21-1.43,2.16-2.67,2.2c-0.71,0.02-1.56-0.17-2,0.39c-0.18,0.23-0.23,0.54-0.28,0.83c-0.34,2.23-0.67,4.47-1.01,6.7
		c1.09,1.4,3.83,0.53,3.9-1.24c0.03-0.79-0.36-1.52-0.48-2.3c-0.18-1.19,0.43-2.56,1.59-2.89c1.16-0.33,2.54,0.91,2.08,2.02
		c1.19-0.16,1.78-1.61,1.67-2.81c-0.11-1.2-0.64-2.34-0.66-3.55s0.81-2.59,2.01-2.5c1.48-0.01,2.02,1.98,1.79,3.44
		c-0.23,1.46-0.71,3.16,0.27,4.26c0.78,0.87,2.19,0.89,3.24,0.36c1.04-0.53,1.8-1.47,2.52-2.39c1.47,0.55,1.48,2.82,0.4,3.96
		c-1.08,1.14-2.74,1.47-4.26,1.85c-1.52,0.38-3.17,0.99-3.9,2.39c0.79,0.43,1.61,0.79,2.46,1.09c0.76,0.89,0.23,2.38-0.77,3
		s-2.24,0.61-3.42,0.56c-1.17-0.06-2.4-0.13-3.46,0.38c-1.03,0.5-1.72,1.49-2.6,2.22c-2.96,2.46-9.46,2.23-13,1.04
		c-1.96-0.66-2.88-1.95-4.47-3.14C59.3,2361.11,57.05,2360.89,54.74,2359.55z"/>
	<path class="st25" d="M301.93,2159.84c-0.82-0.48-1.43-1.52-1.03-2.37c0.51-1.1,2.07-1.03,3.27-0.82c0.57,0.1,1.34,0.09,1.54-0.46
		c0.1-0.28,0-0.59-0.12-0.86c-0.5-1.15-1.28-2.18-2.26-2.98c-0.56-0.46-1.18-0.84-1.63-1.4c-1.19-1.46-0.7-3.95,0.95-4.85
		c1.26,0.44,2.02,1.71,2.58,2.92c0.56,1.21,1.06,2.53,2.12,3.35s2.89,0.8,3.48-0.4c0.55-1.11-0.23-2.36-0.77-3.47
		c-0.53-1.11-0.58-2.84,0.61-3.17c0.63,1.38,2.85,8.52,4.27,8.85c2.4,0.56,3.51-3.45,3.43-5.34c-0.11-2.72-0.95-5.4-2.41-7.69
		c-0.6-0.95-1.33-1.89-1.47-3c-0.14-1.12,0.66-2.44,1.78-2.35c0.98,0.08,1.58,1.15,1.66,2.13c0.08,0.98-0.17,1.96-0.06,2.94
		c0.17,1.42,1.18,2.71,2.52,3.2c1.91-2.18,1.12-5.51,0.55-8.35c-0.24-1.21-0.41-2.54,0.18-3.63c0.6-1.08,2.27-1.62,3.09-0.7
		c0.51,0.57,0.51,1.41,0.47,2.17c-0.11,2.61-0.22,5.22-0.32,7.84c2.1,0.33,4.32-1.12,4.87-3.17c0.86,1.55,1.59,3.8,0.14,4.82
		c-0.72,0.51-1.68,0.43-2.54,0.64c-0.86,0.21-1.74,1.06-1.36,1.85c0.37,0.78,1.49,0.67,2.35,0.56c0.86-0.11,2.06,0.25,1.94,1.1
		c-0.27,1.21-1.43,2.16-2.67,2.2c-0.71,0.02-1.56-0.17-2,0.39c-0.18,0.23-0.23,0.54-0.28,0.83c-0.34,2.23-0.67,4.47-1.01,6.7
		c1.09,1.4,3.83,0.53,3.9-1.24c0.03-0.79-0.36-1.52-0.48-2.3c-0.18-1.19,0.43-2.56,1.59-2.89c1.16-0.33,2.54,0.91,2.08,2.02
		c1.19-0.16,1.78-1.61,1.67-2.81c-0.11-1.2-0.64-2.34-0.66-3.55c-0.02-1.21,0.81-2.59,2.01-2.5c1.48-0.01,2.02,1.98,1.79,3.44
		c-0.23,1.46-0.71,3.16,0.27,4.26c0.78,0.87,2.19,0.89,3.24,0.36c1.04-0.53,1.8-1.47,2.52-2.39c1.47,0.55,1.48,2.82,0.4,3.96
		c-1.08,1.14-2.74,1.47-4.26,1.85c-1.52,0.38-3.17,0.99-3.9,2.39c0.79,0.43,1.61,0.79,2.46,1.09c0.76,0.89,0.23,2.38-0.77,3
		s-2.24,0.61-3.42,0.56c-1.17-0.06-2.4-0.13-3.46,0.38c-1.03,0.5-1.72,1.49-2.6,2.22c-2.96,2.46-9.46,2.23-13,1.04
		c-1.96-0.66-2.88-1.95-4.47-3.14C306.49,2161.39,304.24,2161.18,301.93,2159.84z"/>
	<path class="st25" d="M459.1,2114.33c-0.82-0.48-1.43-1.52-1.03-2.37c0.51-1.1,2.07-1.03,3.27-0.82c0.57,0.1,1.34,0.09,1.54-0.46
		c0.1-0.28,0-0.59-0.12-0.86c-0.5-1.15-1.28-2.18-2.25-2.98c-0.56-0.46-1.18-0.84-1.63-1.4c-1.19-1.46-0.7-3.95,0.95-4.85
		c1.26,0.44,2.02,1.71,2.58,2.92c0.56,1.21,1.06,2.53,2.12,3.35c1.06,0.82,2.89,0.8,3.48-0.4c0.55-1.11-0.23-2.36-0.77-3.47
		c-0.53-1.11-0.58-2.84,0.61-3.17c0.63,1.38,2.85,8.52,4.27,8.85c2.4,0.56,3.51-3.45,3.43-5.34c-0.11-2.72-0.95-5.4-2.41-7.69
		c-0.6-0.95-1.33-1.89-1.47-3c-0.14-1.12,0.66-2.44,1.78-2.35c0.98,0.08,1.58,1.15,1.66,2.13c0.08,0.98-0.17,1.96-0.06,2.94
		c0.17,1.42,1.18,2.71,2.52,3.2c1.91-2.18,1.12-5.51,0.55-8.35c-0.24-1.21-0.41-2.54,0.18-3.63c0.6-1.08,2.27-1.62,3.09-0.7
		c0.51,0.57,0.51,1.41,0.47,2.17c-0.11,2.61-0.22,5.22-0.32,7.84c2.1,0.33,4.32-1.12,4.87-3.17c0.86,1.55,1.59,3.8,0.14,4.82
		c-0.72,0.51-1.68,0.43-2.54,0.64s-1.74,1.06-1.36,1.85c0.37,0.78,1.49,0.67,2.35,0.56c0.86-0.11,2.06,0.25,1.94,1.1
		c-0.27,1.21-1.43,2.16-2.67,2.2c-0.71,0.02-1.56-0.17-2,0.39c-0.18,0.23-0.23,0.54-0.28,0.83c-0.34,2.23-0.67,4.46-1.01,6.7
		c1.09,1.4,3.83,0.53,3.9-1.24c0.03-0.79-0.36-1.52-0.48-2.3c-0.18-1.19,0.43-2.56,1.59-2.89s2.54,0.91,2.08,2.02
		c1.19-0.16,1.78-1.61,1.67-2.81c-0.11-1.2-0.64-2.34-0.66-3.55c-0.02-1.21,0.81-2.59,2.01-2.5c1.48-0.01,2.02,1.98,1.79,3.44
		c-0.23,1.46-0.71,3.16,0.27,4.26c0.78,0.87,2.19,0.89,3.24,0.36c1.04-0.53,1.8-1.47,2.52-2.39c1.47,0.55,1.48,2.82,0.4,3.96
		c-1.08,1.14-2.74,1.47-4.26,1.85c-1.52,0.38-3.17,0.99-3.9,2.39c0.79,0.43,1.61,0.79,2.46,1.09c0.76,0.89,0.23,2.38-0.77,3
		c-0.99,0.62-2.24,0.61-3.42,0.56c-1.17-0.06-2.4-0.13-3.46,0.38c-1.03,0.5-1.72,1.49-2.6,2.22c-2.96,2.46-9.46,2.23-13,1.04
		c-1.96-0.66-2.88-1.95-4.47-3.14C463.66,2115.88,461.4,2115.67,459.1,2114.33z"/>
	<path class="st25" d="M533.88,2203.54c-0.82-0.48-1.43-1.52-1.03-2.37c0.51-1.1,2.07-1.03,3.27-0.82c0.57,0.1,1.34,0.09,1.54-0.46
		c0.1-0.28,0-0.59-0.12-0.86c-0.5-1.15-1.28-2.18-2.26-2.98c-0.56-0.46-1.18-0.84-1.63-1.4c-1.19-1.46-0.7-3.95,0.95-4.85
		c1.26,0.44,2.02,1.71,2.58,2.92s1.06,2.53,2.12,3.35c1.06,0.82,2.89,0.8,3.48-0.4c0.55-1.11-0.23-2.36-0.77-3.47
		c-0.53-1.11-0.58-2.84,0.61-3.17c0.63,1.38,2.85,8.52,4.27,8.85c2.4,0.56,3.51-3.45,3.43-5.34c-0.11-2.72-0.95-5.4-2.41-7.69
		c-0.6-0.95-1.33-1.89-1.47-3s0.66-2.44,1.78-2.35c0.98,0.08,1.58,1.15,1.66,2.13c0.08,0.98-0.17,1.96-0.06,2.94
		c0.17,1.42,1.18,2.71,2.52,3.2c1.91-2.18,1.12-5.51,0.55-8.35c-0.24-1.21-0.41-2.54,0.18-3.63s2.27-1.62,3.09-0.7
		c0.51,0.57,0.51,1.41,0.47,2.17c-0.11,2.61-0.22,5.22-0.32,7.84c2.1,0.33,4.32-1.12,4.87-3.17c0.86,1.55,1.59,3.8,0.14,4.82
		c-0.72,0.51-1.68,0.43-2.54,0.64s-1.74,1.06-1.36,1.85c0.37,0.78,1.49,0.67,2.35,0.56c0.86-0.11,2.06,0.25,1.94,1.1
		c-0.27,1.21-1.43,2.16-2.67,2.2c-0.71,0.02-1.56-0.17-2,0.39c-0.18,0.23-0.23,0.54-0.28,0.83c-0.34,2.23-0.67,4.47-1.01,6.7
		c1.09,1.4,3.83,0.53,3.9-1.24c0.03-0.78-0.36-1.52-0.48-2.3c-0.18-1.19,0.43-2.56,1.59-2.89c1.16-0.33,2.54,0.91,2.08,2.02
		c1.19-0.16,1.78-1.61,1.67-2.81c-0.11-1.2-0.64-2.34-0.66-3.55c-0.02-1.21,0.81-2.59,2.01-2.5c1.48-0.01,2.02,1.98,1.79,3.44
		c-0.23,1.46-0.71,3.16,0.27,4.26c0.78,0.87,2.19,0.89,3.24,0.36c1.04-0.53,1.8-1.47,2.52-2.39c1.47,0.55,1.48,2.82,0.4,3.96
		c-1.08,1.14-2.74,1.47-4.26,1.85c-1.52,0.38-3.17,0.99-3.9,2.39c0.79,0.43,1.61,0.79,2.46,1.09c0.76,0.89,0.23,2.38-0.77,3
		c-0.99,0.62-2.24,0.61-3.42,0.56c-1.17-0.06-2.4-0.13-3.46,0.38c-1.03,0.5-1.72,1.49-2.6,2.22c-2.96,2.46-9.46,2.23-13,1.04
		c-1.96-0.66-2.88-1.95-4.47-3.14C538.44,2205.1,536.18,2204.88,533.88,2203.54z"/>
	<path class="st25" d="M9.09,2263.89c-0.82-0.48-1.43-1.52-1.03-2.37c0.51-1.1,2.07-1.03,3.27-0.82c0.57,0.1,1.34,0.09,1.54-0.46
		c0.1-0.28,0-0.59-0.12-0.86c-0.5-1.15-1.28-2.18-2.25-2.98c-0.56-0.46-1.18-0.84-1.63-1.4c-1.19-1.46-0.7-3.95,0.95-4.85
		c1.26,0.44,2.02,1.71,2.58,2.92s1.06,2.53,2.12,3.35s2.89,0.8,3.48-0.4c0.55-1.11-0.23-2.36-0.77-3.47
		c-0.53-1.11-0.58-2.84,0.61-3.17c0.63,1.38,2.85,8.52,4.27,8.85c2.4,0.56,3.51-3.45,3.43-5.34c-0.11-2.72-0.95-5.4-2.41-7.69
		c-0.6-0.95-1.33-1.89-1.47-3c-0.14-1.12,0.66-2.44,1.78-2.35c0.98,0.08,1.58,1.15,1.66,2.13s-0.17,1.96-0.06,2.94
		c0.17,1.42,1.18,2.71,2.52,3.2c1.91-2.18,1.12-5.51,0.55-8.35c-0.24-1.21-0.41-2.54,0.18-3.63c0.6-1.08,2.27-1.62,3.09-0.7
		c0.51,0.57,0.51,1.41,0.47,2.17c-0.11,2.61-0.22,5.22-0.32,7.84c2.1,0.33,4.32-1.12,4.87-3.17c0.86,1.55,1.59,3.8,0.14,4.82
		c-0.72,0.51-1.68,0.43-2.54,0.64c-0.86,0.21-1.74,1.06-1.36,1.85c0.37,0.78,1.49,0.67,2.35,0.56c0.86-0.11,2.06,0.25,1.94,1.1
		c-0.27,1.21-1.43,2.16-2.67,2.2c-0.71,0.02-1.56-0.17-2,0.39c-0.18,0.23-0.23,0.54-0.28,0.83c-0.34,2.23-0.67,4.47-1.01,6.7
		c1.09,1.4,3.83,0.53,3.9-1.24c0.03-0.79-0.36-1.52-0.48-2.3c-0.18-1.19,0.43-2.56,1.59-2.89c1.16-0.33,2.54,0.91,2.08,2.02
		c1.19-0.16,1.78-1.61,1.67-2.81c-0.11-1.2-0.64-2.34-0.66-3.55c-0.02-1.21,0.81-2.59,2.01-2.5c1.48-0.01,2.02,1.98,1.79,3.44
		s-0.71,3.16,0.27,4.26c0.78,0.87,2.19,0.89,3.24,0.36c1.04-0.53,1.8-1.47,2.52-2.39c1.47,0.55,1.48,2.82,0.4,3.96
		c-1.08,1.14-2.74,1.47-4.26,1.85c-1.52,0.38-3.17,0.99-3.9,2.39c0.79,0.43,1.61,0.79,2.46,1.09c0.76,0.89,0.23,2.38-0.77,3
		c-0.99,0.62-2.24,0.61-3.42,0.56c-1.17-0.06-2.4-0.13-3.46,0.38c-1.03,0.5-1.72,1.49-2.6,2.22c-2.96,2.46-9.46,2.23-13,1.04
		c-1.96-0.66-2.88-1.95-4.47-3.14C13.65,2265.45,11.39,2265.23,9.09,2263.89z"/>
	<path class="st25" d="M159.97,2221.91c-0.82-0.48-1.43-1.52-1.03-2.37c0.51-1.1,2.07-1.03,3.27-0.82c0.57,0.1,1.34,0.09,1.54-0.46
		c0.1-0.28,0-0.59-0.12-0.86c-0.5-1.15-1.28-2.18-2.26-2.98c-0.56-0.46-1.18-0.84-1.63-1.4c-1.19-1.46-0.7-3.95,0.95-4.85
		c1.26,0.44,2.02,1.71,2.58,2.92c0.56,1.21,1.06,2.53,2.12,3.35c1.06,0.82,2.89,0.8,3.48-0.4c0.55-1.11-0.23-2.36-0.77-3.47
		c-0.53-1.11-0.58-2.84,0.61-3.17c0.63,1.38,2.85,8.52,4.27,8.85c2.4,0.56,3.51-3.45,3.43-5.34c-0.11-2.72-0.95-5.4-2.41-7.69
		c-0.6-0.95-1.33-1.89-1.47-3c-0.14-1.12,0.66-2.44,1.78-2.35c0.98,0.08,1.58,1.15,1.66,2.13c0.08,0.98-0.17,1.96-0.06,2.94
		c0.17,1.42,1.18,2.71,2.52,3.2c1.91-2.18,1.12-5.51,0.55-8.35c-0.24-1.21-0.41-2.54,0.18-3.63c0.6-1.08,2.27-1.62,3.09-0.7
		c0.51,0.57,0.51,1.41,0.47,2.17c-0.11,2.61-0.22,5.22-0.32,7.84c2.1,0.33,4.32-1.12,4.87-3.17c0.86,1.55,1.59,3.8,0.14,4.82
		c-0.72,0.51-1.68,0.43-2.54,0.64s-1.74,1.06-1.36,1.85c0.37,0.78,1.49,0.67,2.35,0.56c0.86-0.11,2.06,0.25,1.94,1.1
		c-0.27,1.21-1.43,2.16-2.67,2.2c-0.71,0.02-1.56-0.17-2,0.39c-0.18,0.23-0.23,0.54-0.28,0.83c-0.34,2.23-0.67,4.46-1.01,6.7
		c1.09,1.4,3.83,0.53,3.9-1.24c0.03-0.79-0.36-1.52-0.48-2.3c-0.18-1.19,0.43-2.56,1.59-2.89c1.16-0.33,2.54,0.91,2.08,2.02
		c1.19-0.16,1.78-1.61,1.67-2.81c-0.11-1.2-0.64-2.34-0.66-3.55c-0.02-1.21,0.81-2.59,2.01-2.5c1.48-0.01,2.02,1.98,1.79,3.44
		c-0.23,1.46-0.71,3.16,0.27,4.26c0.78,0.87,2.19,0.89,3.24,0.36c1.04-0.53,1.8-1.47,2.52-2.39c1.47,0.55,1.48,2.82,0.4,3.96
		c-1.08,1.14-2.74,1.47-4.26,1.85c-1.52,0.38-3.17,0.99-3.9,2.39c0.79,0.43,1.61,0.79,2.46,1.09c0.76,0.89,0.23,2.38-0.77,3
		c-0.99,0.62-2.24,0.61-3.42,0.56c-1.17-0.06-2.4-0.13-3.46,0.38c-1.03,0.5-1.72,1.49-2.6,2.22c-2.96,2.46-9.46,2.23-13,1.04
		c-1.96-0.66-2.88-1.95-4.47-3.14C164.53,2223.47,162.27,2223.25,159.97,2221.91z"/>
	<path class="st25" d="M195.39,2625.85c-0.82-0.48-1.43-1.52-1.03-2.37c0.51-1.1,2.07-1.03,3.27-0.82c0.57,0.1,1.34,0.09,1.54-0.46
		c0.1-0.28,0-0.59-0.12-0.86c-0.5-1.15-1.28-2.18-2.25-2.98c-0.56-0.46-1.18-0.84-1.63-1.4c-1.19-1.46-0.7-3.95,0.95-4.85
		c1.26,0.44,2.02,1.71,2.58,2.92c0.56,1.21,1.06,2.53,2.12,3.35c1.06,0.82,2.89,0.8,3.48-0.4c0.55-1.11-0.23-2.36-0.77-3.47
		c-0.53-1.11-0.58-2.84,0.61-3.17c0.63,1.38,2.85,8.52,4.27,8.85c2.4,0.56,3.51-3.45,3.43-5.34c-0.11-2.72-0.95-5.4-2.41-7.69
		c-0.6-0.95-1.33-1.89-1.47-3c-0.14-1.12,0.66-2.44,1.78-2.35c0.98,0.08,1.58,1.15,1.66,2.13c0.08,0.98-0.17,1.96-0.06,2.94
		c0.17,1.42,1.18,2.71,2.52,3.2c1.91-2.18,1.12-5.51,0.55-8.35c-0.24-1.21-0.41-2.54,0.18-3.63c0.6-1.08,2.27-1.62,3.09-0.7
		c0.51,0.57,0.51,1.41,0.47,2.17c-0.11,2.61-0.22,5.22-0.32,7.84c2.1,0.33,4.32-1.12,4.87-3.17c0.86,1.55,1.59,3.8,0.14,4.82
		c-0.72,0.51-1.68,0.43-2.54,0.64c-0.86,0.21-1.74,1.06-1.36,1.85c0.37,0.78,1.49,0.67,2.35,0.56c0.86-0.11,2.06,0.25,1.94,1.1
		c-0.27,1.21-1.43,2.16-2.67,2.2c-0.71,0.02-1.56-0.17-2,0.39c-0.18,0.23-0.23,0.54-0.28,0.83c-0.34,2.23-0.67,4.47-1.01,6.7
		c1.09,1.4,3.83,0.53,3.9-1.24c0.03-0.78-0.36-1.52-0.48-2.3c-0.18-1.19,0.43-2.56,1.59-2.89c1.16-0.33,2.54,0.91,2.08,2.02
		c1.19-0.16,1.78-1.61,1.67-2.81c-0.11-1.2-0.64-2.34-0.66-3.55c-0.02-1.21,0.81-2.59,2.01-2.5c1.48-0.01,2.02,1.98,1.79,3.44
		c-0.23,1.46-0.71,3.16,0.27,4.26c0.78,0.87,2.19,0.89,3.24,0.36c1.04-0.53,1.8-1.47,2.52-2.39c1.47,0.55,1.48,2.82,0.4,3.96
		c-1.08,1.14-2.74,1.47-4.26,1.85c-1.52,0.38-3.17,0.99-3.9,2.39c0.79,0.43,1.61,0.79,2.46,1.09c0.76,0.89,0.23,2.38-0.77,3
		s-2.24,0.61-3.42,0.56c-1.17-0.06-2.4-0.13-3.46,0.38c-1.03,0.5-1.72,1.49-2.6,2.22c-2.96,2.46-9.46,2.23-13,1.04
		c-1.96-0.66-2.88-1.95-4.47-3.14C199.95,2627.41,197.69,2627.19,195.39,2625.85z"/>
	<path class="st25" d="M124.31,2477.73c-0.82-0.48-1.43-1.52-1.03-2.37c0.51-1.1,2.07-1.03,3.27-0.82c0.57,0.1,1.34,0.09,1.54-0.46
		c0.1-0.28,0-0.59-0.12-0.86c-0.5-1.15-1.28-2.18-2.25-2.98c-0.56-0.46-1.18-0.84-1.63-1.4c-1.19-1.46-0.7-3.95,0.95-4.85
		c1.26,0.44,2.02,1.71,2.58,2.92s1.06,2.53,2.12,3.35c1.06,0.82,2.89,0.8,3.48-0.4c0.55-1.11-0.23-2.36-0.77-3.47
		c-0.53-1.11-0.58-2.84,0.61-3.17c0.63,1.38,2.85,8.52,4.27,8.85c2.4,0.56,3.51-3.45,3.43-5.34c-0.11-2.72-0.95-5.4-2.41-7.69
		c-0.6-0.95-1.33-1.89-1.47-3c-0.14-1.12,0.66-2.44,1.78-2.35c0.98,0.08,1.58,1.15,1.66,2.13c0.08,0.98-0.17,1.96-0.06,2.94
		c0.17,1.42,1.18,2.71,2.52,3.2c1.91-2.18,1.12-5.51,0.55-8.35c-0.24-1.21-0.41-2.54,0.18-3.63c0.6-1.08,2.27-1.62,3.09-0.7
		c0.51,0.57,0.51,1.41,0.47,2.17c-0.11,2.61-0.22,5.22-0.32,7.84c2.1,0.33,4.32-1.12,4.87-3.17c0.86,1.55,1.59,3.8,0.14,4.82
		c-0.72,0.51-1.68,0.43-2.54,0.64c-0.86,0.21-1.74,1.06-1.36,1.85c0.37,0.78,1.49,0.67,2.35,0.56c0.86-0.11,2.06,0.25,1.94,1.1
		c-0.27,1.21-1.43,2.16-2.67,2.2c-0.71,0.02-1.56-0.17-2,0.39c-0.18,0.23-0.23,0.54-0.28,0.83c-0.34,2.23-0.67,4.47-1.01,6.7
		c1.09,1.4,3.83,0.53,3.9-1.24c0.03-0.79-0.36-1.52-0.48-2.3c-0.18-1.19,0.43-2.56,1.59-2.89c1.16-0.33,2.54,0.91,2.08,2.02
		c1.19-0.16,1.78-1.61,1.67-2.81c-0.11-1.2-0.64-2.34-0.66-3.55c-0.02-1.21,0.81-2.59,2.01-2.5c1.48-0.01,2.02,1.98,1.79,3.44
		c-0.23,1.46-0.71,3.16,0.27,4.26c0.78,0.87,2.19,0.89,3.24,0.36c1.04-0.53,1.8-1.47,2.52-2.39c1.47,0.55,1.48,2.82,0.4,3.96
		c-1.08,1.14-2.74,1.47-4.26,1.85c-1.52,0.38-3.17,0.99-3.9,2.39c0.79,0.43,1.61,0.79,2.46,1.09c0.76,0.89,0.23,2.38-0.77,3
		c-0.99,0.62-2.24,0.61-3.42,0.56c-1.17-0.06-2.4-0.13-3.46,0.38c-1.03,0.5-1.72,1.49-2.6,2.22c-2.96,2.46-9.46,2.23-13,1.04
		c-1.96-0.66-2.88-1.95-4.47-3.14C128.87,2479.28,126.61,2479.06,124.31,2477.73z"/>
	<path class="st25" d="M393.77,2558.68c-0.82-0.48-1.43-1.52-1.03-2.37c0.51-1.1,2.07-1.03,3.27-0.82c0.57,0.1,1.34,0.09,1.54-0.46
		c0.1-0.28,0-0.59-0.12-0.86c-0.5-1.15-1.28-2.18-2.26-2.98c-0.56-0.46-1.18-0.84-1.63-1.4c-1.19-1.46-0.7-3.95,0.95-4.85
		c1.26,0.44,2.02,1.71,2.58,2.92s1.06,2.53,2.12,3.35c1.06,0.82,2.89,0.8,3.48-0.4c0.55-1.11-0.23-2.36-0.77-3.47
		c-0.53-1.11-0.58-2.84,0.61-3.17c0.63,1.38,2.85,8.52,4.27,8.85c2.4,0.56,3.51-3.45,3.43-5.34c-0.11-2.72-0.95-5.4-2.41-7.69
		c-0.6-0.95-1.33-1.89-1.47-3c-0.14-1.12,0.66-2.44,1.78-2.35c0.98,0.08,1.58,1.15,1.66,2.13c0.08,0.98-0.17,1.96-0.06,2.94
		c0.17,1.42,1.18,2.71,2.52,3.2c1.91-2.18,1.12-5.51,0.55-8.35c-0.24-1.21-0.41-2.54,0.18-3.63c0.6-1.08,2.27-1.62,3.09-0.7
		c0.51,0.57,0.51,1.41,0.47,2.17c-0.11,2.61-0.22,5.22-0.32,7.84c2.1,0.33,4.32-1.12,4.87-3.17c0.86,1.55,1.59,3.8,0.14,4.82
		c-0.72,0.51-1.68,0.43-2.54,0.64c-0.86,0.21-1.74,1.06-1.36,1.85c0.37,0.78,1.49,0.67,2.35,0.56c0.86-0.11,2.06,0.25,1.94,1.1
		c-0.27,1.21-1.43,2.16-2.67,2.2c-0.71,0.02-1.56-0.17-2,0.39c-0.18,0.23-0.23,0.54-0.28,0.83c-0.34,2.23-0.67,4.47-1.01,6.7
		c1.09,1.4,3.83,0.53,3.9-1.24c0.03-0.79-0.36-1.52-0.48-2.3c-0.18-1.19,0.43-2.56,1.59-2.89c1.16-0.33,2.54,0.91,2.08,2.02
		c1.19-0.16,1.78-1.61,1.67-2.81c-0.11-1.2-0.64-2.34-0.66-3.55s0.81-2.59,2.01-2.5c1.48-0.01,2.02,1.98,1.79,3.44
		c-0.23,1.46-0.71,3.16,0.27,4.26c0.78,0.87,2.19,0.89,3.24,0.36c1.04-0.53,1.8-1.47,2.52-2.39c1.47,0.55,1.48,2.82,0.4,3.96
		c-1.08,1.14-2.74,1.47-4.26,1.85c-1.52,0.38-3.17,0.99-3.9,2.39c0.79,0.43,1.61,0.79,2.46,1.09c0.76,0.89,0.23,2.38-0.77,3
		s-2.24,0.61-3.42,0.56c-1.17-0.06-2.4-0.13-3.46,0.38c-1.03,0.5-1.72,1.49-2.6,2.22c-2.96,2.46-9.46,2.23-13,1.04
		c-1.96-0.66-2.88-1.95-4.47-3.14C398.33,2560.23,396.07,2560.01,393.77,2558.68z"/>
</g>
<text transform="matrix(1 0 0 1 -0.5182 2778.417)"><tspan x="0" y="0" class="st4 st5 st6">Weight: 2.85 kilograms</tspan><tspan x="0" y="56" class="st4 st5 st6">Area covered: 1.21 square meters </tspan><tspan x="0" y="112" class="st4 st5 st6">Depth: 5 to 6 meters</tspan></text>
<path class="st21" d="M576.15,2090.08c8.06,1.05-39.54-6.56-70.11,5.8"/>
<g>
	<rect x="-3.99" y="1666.06" class="st3" width="802.56" height="128.93"/>
	<text transform="matrix(1 0 0 1 -3.9938 1702.0635)"><tspan x="0" y="0" class="st7 st5 st8 st9">They are planted in a framed reef </tspan><tspan x="0" y="57.6" class="st7 st5 st8 st9">module, about 5 or 6 meters deep.</tspan></text>
</g>
<g>
	<circle class="st7" cx="40.99" cy="1588.96" r="43.71"/>
	<g>
		<text transform="matrix(1 0 0 1 16.8949 1613.0107)" class="st0 st10 st11 st9">2</text>
	</g>
</g>
<line class="st21" x1="6.26" y1="2797.55" x2="508.56" y2="2797.55"/>
<line class="st21" x1="6.26" y1="2853.09" x2="508.56" y2="2853.09"/>
<g>
	<rect x="0.96" y="3206.9" class="st3" width="740.61" height="385.54"/>
	<text transform="matrix(1 0 0 1 0.9642 3242.897)"><tspan x="0" y="0" class="st7 st5 st8 st9">The transplanted coral is constantly </tspan><tspan x="0" y="57.6" class="st7 st5 st8 st9">monitored, along with the marine </tspan><tspan x="0" y="115.2" class="st7 st5 st8 st9">life that grows as a result of its </tspan><tspan x="0" y="172.8" class="st7 st5 st8 st9">presence.</tspan></text>
</g>
<g>
	<circle class="st7" cx="46.97" cy="3123.7" r="43.71"/>
	<g>
		<text transform="matrix(1 0 0 1 23.5247 3143.6323)" class="st0 st10 st11 st9">3</text>
	</g>
</g>
<g>
	<text transform="matrix(1 0 0 1 331.7181 3769.5308)" class="st4 st5 st20 st9">0 days</text>
</g>
<g>
	<text transform="matrix(1 0 0 1 309.2172 4400.5308)" class="st4 st5 st20 st9">400 days</text>
</g>
<g>
	<rect x="3.53" y="3535.03" class="st3" width="784.31" height="275.97"/>
	<text transform="matrix(1 0 0 1 3.5316 3559.0278)"><tspan x="0" y="0" class="st4 st5 st6">After 400 days, higher FRMs showed higher survival rates</tspan><tspan x="0" y="38.4" class="st4 st5 st6">Acropora hyacinthus: 86 percent </tspan><tspan x="0" y="76.8" class="st4 st5 st6">Acropora microphthalma: 90 percent</tspan></text>
</g>
<rect x="-3.35" y="5306.78" class="st3" width="801.92" height="194.22"/>
<text transform="matrix(1 0 0 1 -3.3484 5369.1782)"><tspan x="0" y="0" class="st4 st5 st6">Coral transplanted at a height of at least 30 cm from the </tspan><tspan x="0" y="38.4" class="st4 st5 st6">substrate is resilient against impacts caused by </tspan><tspan x="0" y="76.8" class="st4 st5 st6">macroalgae, turf algae and sedimentation rates.</tspan></text>
<g>
	<text transform="matrix(1 0 0 1 -2.7117 5292.8677)" class="st19 st5 st20 st9">Survival rate</text>
</g>
<rect x="-3.35" y="5685.78" class="st3" width="801.92" height="194.22"/>
<text transform="matrix(1 0 0 1 -3.3484 5709.7778)"><tspan x="0" y="0" class="st4 st5 st6">Acropora coral grows faster than other species used in the </tspan><tspan x="0" y="38.4" class="st4 st5 st6">experiments.  This allows for more complex 3D structures </tspan><tspan x="0" y="76.8" class="st4 st5 st6">to achieve a better ecological restoration effect in the reef </tspan><tspan x="0" y="115.2" class="st4 st5 st6">area.</tspan></text>
<g>
	<text transform="matrix(1 0 0 1 -2.7117 5637.8677)" class="st19 st5 st20 st9">Different techniques</text>
</g>
</svg>
