<?xml version="1.0" encoding="utf-8"?>
<!-- Generator: Adobe Illustrator 27.0.0, SVG Export Plug-In . SVG Version: 6.00 Build 0)  -->
<svg version="1.1" id="Layer_1" xmlns="http://www.w3.org/2000/svg" xmlns:xlink="http://www.w3.org/1999/xlink" x="0px" y="0px"
	 viewBox="0 0 1920 7231" style="enable-background:new 0 0 1920 7231;" xml:space="preserve">
<style type="text/css">
	@import url('https://fonts.googleapis.com/css?family=Roboto:300,400,700');
	.st0{fill:#303639;}
	.st1{fill:none;stroke:#FFFFFF;stroke-width:2;stroke-miterlimit:10;}
	.st2{fill:none;stroke:#EF7E25;stroke-width:2;stroke-miterlimit:10;}
	.st3{fill:none;}
	.st4{fill:#FFFFFF;}
	.st5{font-family:'Roboto';font-weight: 700;}
	.st6{font-size:32px;}
	.st7{fill:#FFEC00;}
	.st8{font-size:48px;}
	.st9{letter-spacing:-1;}
	.st10{font-family:'Roboto';font-weight: 700;}
	.st11{font-size:70px;}
	.st12{font-size:82px;}
	.st13{letter-spacing:-2;}
	.st14{opacity:0.2;fill:#FFFFFF;}
	.st15{fill:none;stroke:#FFFFFF;stroke-width:4;stroke-linecap:round;stroke-linejoin:round;stroke-miterlimit:10;}
	.st16{fill:none;stroke:#F6A841;stroke-miterlimit:10;}
	.st17{fill:none;stroke:#F6A841;stroke-linecap:round;stroke-linejoin:round;stroke-miterlimit:10;}
	.st18{fill:#EF7E25;}
	.st19{clip-path:url(#SVGID_00000003790120294575859100000009407047358845514677_);}
	.st20{font-size:40px;}
	.st21{fill:none;stroke:#FFFFFF;stroke-width:0.5;stroke-miterlimit:10;}
	.st22{font-family:'Roboto';font-weight: 300;}
	.st23{fill:none;stroke:#8A8687;stroke-width:5;stroke-linecap:round;stroke-miterlimit:7;}
	.st24{fill:none;stroke:#FFFFFF;stroke-width:5;stroke-linecap:round;stroke-miterlimit:7;}
	.st25{fill:#DC835B;}
</style>
<rect x="0.06" y="-22" class="st0" width="1927" height="7258.19"/>
<image style="overflow:visible;" width="801" height="1501" xlink:href="4F257430480100BD.png"  transform="matrix(1 0 0 1 558 3766)">
</image>
<g>
	<defs>
		<rect id="SVGID_1_" x="0.06" y="613.19" width="1920" height="764"/>
	</defs>
	<clipPath id="SVGID_00000147203921356399577330000005885324368372826303_">
		<use xlink:href="#SVGID_1_"  style="overflow:visible;"/>
	</clipPath>
	<g style="clip-path:url(#SVGID_00000147203921356399577330000005885324368372826303_);">
		
			<image style="overflow:visible;" width="1920" height="7581" xlink:href="../../sanya-desktop.jpg"  transform="matrix(1.0037 0 0 1.0037 -6.061 -5962.6255)">
		</image>
	</g>
</g>
<g>
	<path class="st1" d="M709.7,1150.69c0,0,15-160.04,55.01-231.72l-15.84-11.67c0,0-41.68,16.67-45.01,19.17
		c-3.33,2.5-7.5,6.67-12.5,9.17c-5,2.5-22.51,12.5-24.17,15c-1.67,2.5-68.35,31.67-94.19-11.67c0,0-16.59-80.9,45.01-111.69
		c5-2.5,57.51-28.34,53.35-27.51c-4.17,0.83,78.35-30.01,78.35-30.01l47.51-26.67c0,0,31.67-21.67,75.02-8.34l8.34-2.5
		c0,0,10.84-10.84,18.34-7.5c0,0,3.33-27.51,53.35-14.17l30.84,17.5v5.83l6.67,4.17v17.5l8.34-2.5l0.83-20c0,0-9.17-12.5-1.67-46.68
		c0,0-13.34-6.67,15-52.51"/>
	<path class="st1" d="M1027.27,612.22c0,0,35.84-53.35,103.36-57.51c0,0,95.02-0.83,93.36,91.69c0,0-3.33,34.17-18.34,54.18"/>
	<path class="st1" d="M1199.81,692.24c0-3.33,13.34-37.51-3.33-58.35c-16.67-20.84-20.84-12.5-20.84-12.5s-20,6.67-36.68-10.84
		c-16.67-17.5-46.68-4.17-46.68-4.17s-47.51-4.17-60.85,43.34"/>
	<path class="st1" d="M1023.11,636.4l7.5,29.17l7.5-2.5c0,0,12.5-22.51,41.68-15l104.19,34.17c0,0,10.84,2.5,15.84,15.84
		l14.17,11.67c18.34,22.51,4.17,41.68,4.17,41.68s-9.17,24.17-44.18,37.51s-38.34-13.34-38.34-13.34l-7.5-33.34
		c-8.34-19.17-40.84-5-55.01,6.67s-20,13.34-35.84,12.5c-15.84-0.83-33.34-53.35-33.34-53.35s7.95-36.99,11.67-36.68l22.51-8.34
		c22.51-8.34,60.01,9.17,73.35,16.67c13.34,7.5,11.67,8.34,45.84,14.17c34.17,5.83,56.68,15.84,56.68,15.84"/>
	<path class="st1" d="M1043.11,765.59c0,0,20.84,11.67,32.51,15c11.67,3.33,51.68,13.34,64.18,10.84"/>
	<path class="st1" d="M1075.62,780.6c0,0,11.67-14.17,29.17-6.67c0,0,13.34,3.33,5,13.34"/>
	<path class="st1" d="M1047.28,673.91c0,0-24.17,30.01-5.83,75.02"/>
	<path class="st1" d="M1070.62,671.41c0,0-26.67-10.84-47.51,21.67c0,0-7.5,23.34,4.17,49.18c11.67,25.84,33.34,6.67,33.34,6.67
		s49.18-45.84,64.18-37.51c15,8.34,16.67,50.01,16.67,50.01s3.33,28.34,19.17,25.01c15.84-3.33,41.68-18.34,49.18-35.01
		c7.5-16.67,5.83-20,1.67-28.34c-4.17-8.34-7.5-9.17-15-10.84c-7.5-1.67-60.01-12.5-85.85-25.01L1070.62,671.41z"/>
	<path class="st1" d="M1052.28,798.94c0,0-1.67,15.84,15.84,23.34l-0.83,15.84l-18.34,1.67l-8.34,3.33l-67.52,0.83"/>
	<path class="st1" d="M998.1,753.09l-5,15.84c0,0,7.5,31.67,15.84,46.68c8.34,15,31.67,27.51,31.67,27.51"/>
	<path class="st1" d="M1160.64,793.94c0,0-14.17,23.34-30.84,31.67"/>
	<line class="st1" x1="1119.8" y1="810.61" x2="1133.13" y2="833.94"/>
	<path class="st1" d="M1167.31,873.12c0,0,2.5-22.51-17.5-35.01c-20-12.5-60.85-5-71.68,7.5s-24.17,25.01-15,59.18
		c0,0,11.67,31.67,55.01,26.67C1118.13,931.47,1165.64,922.3,1167.31,873.12z"/>
	<path class="st1" d="M1138.13,848.95c0,0-49.18-5.83-62.52,33.34c-13.34,39.18,26.67,42.51,36.68,42.51
		c10.84,0,34.17-5,47.51-39.18C1173.14,851.45,1138.13,848.95,1138.13,848.95z"/>
	<path class="st2" d="M948.92,859.78l29.17,32.51c0,0,5.83,10,11.67,19.17c5.83,9.17,11.67,20.84,11.67,20.84l49.18,43.34l9.17,8.34
		l58.35,17.5c0,0,20,4.17,35.01,15c15,10.84,23.34,18.34,23.34,18.34"/>
	<path class="st2" d="M1166.47,1038.16l-32.51-23.34l-38.34,21.67l41.68,27.51l26.67,15c0,0-1.67,7.5-10.84,6.67
		c-9.17-0.83-43.34-10-43.34-10s-36.68-16.67-50.85-35.01c-14.17-18.34-18.34-25.01-18.34-25.01l-121.7-49.18l-19.17-0.83"/>
	<polyline class="st2" points="889.74,923.13 1039.78,980.65 1059.78,983.98 	"/>
	<path class="st2" d="M891.41,944.8l100.02,37.51l53.35,25.84c0,0,36.68,35.01,44.18,39.18c7.5,4.17,42.51,25.01,75.02,31.67"/>
	<polyline class="st2" points="1154.8,1049.83 1129.8,1042.33 1113.13,1046.5 	"/>
	<path class="st2" d="M1133.97,1014.82c-3.33,7.5-4.17,27.51-4.17,27.51"/>
	<polyline class="st1" points="930.58,852.28 938.08,854.78 948.92,859.78 	"/>
	<path class="st1" d="M978.09,892.29c0,0,8.34-4.17,4.17-14.17c-4.17-10-7.5-20-7.5-20v-7.5c0,0,1.67-10-6.67-13.34
		c-8.34-3.33-18.34-11.67-18.34-11.67l-12.5-5.83c0,0-10.84-16.67-22.51-18.34L868.9,788.1l-34.17-15c0,0-29.17-12.5-42.51,7.5
		c0,0-46.68,40.84-32.51,87.52l5.83,30.01l-0.83,20.84c0,0-1.67,17.5-0.83,20c0.83,2.5,5,11.67,7.5,18.34s18.34,18.34,18.34,18.34
		s17.5,4.17,22.51-11.67"/>
	<path class="st1" d="M855.56,973.14c0,0-4.17,6.67-8.34,7.5c-4.17,0.83-18.34,8.34-26.67-4.17c-8.34-12.5-20.84-34.17-20.84-34.17
		l-3.33-18.34l-1.67-25.84"/>
	<path class="st1" d="M838.89,883.96l4.17,42.51l4.17,19.17l12.5,35.84c0,0,3.33,12.5,24.17,7.5c20.84-5,14.17-13.34,14.17-13.34
		l-4.17-8.34l-3.33-34.17l-4.17-30.01v-14.17l1.67-5.83l11.67,5.83l25.84,37.51l8.34,11.67"/>
	<path class="st1" d="M981.43,955.64l-10.84-23.34l-16.67-29.17l-15-32.51l-10-25.01c0,0-0.83-13.34-10-20.84"/>
	<path class="st1" d="M824.72,768.1c0,0-21.67-11.67-75.02,1.67"/>
	<path class="st1" d="M1093.12,1069.83l-11.67,1.67l-10,1.67c0,0-10.84,1.67-5,13.34c5.83,11.67,28.34,18.34,28.34,18.34
		s-3.33,15-0.83,19.17"/>
	<line class="st1" x1="1094.79" y1="1104.84" x2="1110.63" y2="1103.18"/>
	<path class="st1" d="M1149.8,1090.67l17.5,11.67l15,15.84c0,0,14.17,20.84,10.84,35.84l-3.33,10.84l-2.5,16.67
		c0,0-8.34,20.84-11.67,22.51s-5.83,9.17-5.83,9.17s-8.34,8.34-11.67,10.84c-3.33,2.5-3.33,2.5-3.33,2.5l-6.67,5
		c0,0-16.67,10.84-27.51,7.5s-39.18-13.34-39.18-13.34l-5.83-5.83l-17.5-26.67l-3.33-17.5l5.83-2.5l-8.34-15l-11.67-16.67
		c0,0-18.34-15.84-2.5-23.34s45.01,4.17,45.01,4.17l29.17,5l10-2.5c0,0,24.17-3.33,29.17-3.33"/>
	<polyline class="st1" points="1156.47,1165.69 1106.46,1163.19 1088.12,1157.36 1040.61,1141.52 	"/>
	<line class="st1" x1="1052.28" y1="1158.19" x2="1106.46" y2="1163.19"/>
	<polyline class="st1" points="1060.61,1173.19 1078.95,1195.7 1095.62,1205.7 1132.3,1218.2 	"/>
	<polyline class="st1" points="1144.8,1198.2 1094.79,1187.36 1058.95,1166.52 	"/>
	<path class="st1" d="M1149.8,808.94c0,0,20,15.84,27.51,44.18l-2.5,8.34c0,0,5,11.67,5.83,20.84c0,0,37.51,29.17,38.34,85.85"/>
	<path class="st1" d="M1218.15,1031.49l10.84,78.35c0,0,5.83,53.35,5.83,63.35c0,10-4.17,25.01-15.84,40.01
		c-11.67,15-40.01,26.67-64.18,13.34"/>
</g>
<g>
	<rect x="559.31" y="1300.19" class="st3" width="794.76" height="151"/>
	<text transform="matrix(1 0 0 1 559.3052 1324.186)"><tspan x="0" y="0" class="st4 st5 st6">The fragments belong to two dominant local species, </tspan><tspan x="0" y="38.4" class="st4 st5 st6">Acropora hyacinthus and Acropora microphthalma.</tspan></text>
</g>
<rect x="559.31" y="404.89" class="st3" width="794.76" height="151.3"/>
<text transform="matrix(1 0 0 1 559.3052 440.8882)"><tspan x="0" y="0" class="st7 st5 st8 st9">Coral fragments are cut from a natural </tspan><tspan x="0" y="57.6" class="st7 st5 st8 st9">source. They are 5 to 8 cm long.</tspan></text>
<g>
	<circle class="st7" cx="602.61" cy="324.42" r="43.71"/>
	<g>
		<text transform="matrix(1 0 0 1 579.1636 351.8345)" class="st0 st10 st11 st9">1</text>
	</g>
</g>
<text transform="matrix(1 0 0 1 553.8989 225.8521)" class="st7 st5 st12 st13">PLANTING PROCESS</text>
<g>
	<path class="st14" d="M863.66,5894.54l-265.52,66.38l30.64,263.48l481.41,147.06l174.22-176.67l15.32-250.2L863.66,5894.54z
		 M689.03,6017.09l115.4,22.47v55.15l-104.17,44.93L689.03,6017.09z M769.7,6184.57l37.79-21.45l2.04,32.68L769.7,6184.57z
		 M842.21,5978.28l-72.51-10.21l72.51-19.81V5978.28z M1016.84,5982.37l1.02,24.51l-37.79-6.13L1016.84,5982.37z M905.12,5940.09
		l34.72,4.08l-34.72,12.25V5940.09z M906.55,6058.96l108.25,19.4l1.02,17.36l-109.27-21.45V6058.96z M896.34,6179.47l-1.02-51.06
		l61.27,15.32L896.34,6179.47z M1049.52,6258.1l-89.87-25.53l90.89-59.23L1049.52,6258.1z M1105.69,6022.2l-21.45-4.09l-1.02-51.06
		l99.06,12.25L1105.69,6022.2z M1144.5,6215.21l2.45-30.64l25.12,6.13L1144.5,6215.21z M1217.01,6132.49l-69.44-13.28v-38.81
		l74.55-48L1217.01,6132.49z"/>
	<path class="st15" d="M863.66,5894.54l-265.52,66.38l30.64,263.48l481.41,147.06l174.22-176.67l15.32-250.2L863.66,5894.54z
		 M689.03,6017.09l112.85,19.4l2.55,58.21l-104.17,44.93L689.03,6017.09z M769.7,6184.57l37.79-21.45l2.04,32.68L769.7,6184.57z
		 M842.47,5979.3l-72.76-11.23l72.51-19.81L842.47,5979.3z M1016.84,5982.37l1.02,24.51l-37.79-6.13L1016.84,5982.37z
		 M905.12,5940.09l37.43,3.98l-37.43,12.87V5940.09z M906.55,6058.96l108.25,19.4l1.02,17.36l-109.27-21.45V6058.96z
		 M896.34,6179.47l-1.02-51.06l61.27,15.32L896.34,6179.47z M1049.52,6258.1l-89.87-25.53l90.89-59.23L1049.52,6258.1z
		 M1105.69,6022.2l-21.45-4.09l-1.02-51.06l99.06,12.25L1105.69,6022.2z M1144.5,6215.21l2.45-30.64l25.12,6.13L1144.5,6215.21z
		 M1217.01,6132.49l-69.44-13.28v-38.81l74.55-48L1217.01,6132.49z"/>
	<polygon class="st1" points="675.75,5952.75 1105.69,6022.2 1247.64,5945.6 873.87,5904.75 	"/>
	<line class="st1" x1="842.21" y1="5978.28" x2="1010.72" y2="5921.09"/>
	<line class="st1" x1="873.87" y1="5904.75" x2="873.87" y2="5969.09"/>
	<line class="st1" x1="1055.24" y1="5927.22" x2="895.32" y2="5987.47"/>
	<line class="st1" x1="1059.74" y1="6014.03" x2="1059.74" y2="5926.2"/>
	<polyline class="st1" points="1299.73,5944.58 1119.99,6045.68 598.14,5960.92 	"/>
	<line class="st1" x1="1119.99" y1="6045.68" x2="1110.18" y2="6371.46"/>
	<line class="st1" x1="1150.63" y1="6028.32" x2="1143.48" y2="6280.57"/>
	<polyline class="st1" points="1286.45,6147.81 1111.82,6310.59 623.67,6171.81 	"/>
	<polyline class="st1" points="602.73,5999.22 1117.95,6097.77 1296.66,5985.43 	"/>
	<polyline class="st1" points="1281.34,5954.79 1269.09,6165.17 1146.54,6135.55 	"/>
	<line class="st1" x1="1052.59" y1="6034.45" x2="1048.5" y2="6352.06"/>
	<line class="st1" x1="861.62" y1="6296.91" x2="852.42" y2="6001.77"/>
	<line class="st1" x1="800.34" y1="5994.62" x2="813.62" y2="6282.61"/>
	<polyline class="st1" points="892.25,6055.9 897.36,6217.25 1049.52,6258.1 	"/>
	<line class="st1" x1="861.62" y1="6239.72" x2="1051.57" y2="6124.32"/>
	<line class="st1" x1="892.25" y1="6085.51" x2="1052.59" y2="6118.6"/>
	<polyline class="st1" points="641.03,5968.07 663.5,6182.53 805.45,6118.19 	"/>
	<polyline class="st1" points="1083.22,5967.05 1058.71,5965.01 1016.84,5982.37 	"/>
	<polyline class="st1" points="905.12,5940.09 873.87,5938.45 842.21,5948.26 	"/>
	<line class="st1" x1="906.55" y1="6074.28" x2="892.25" y2="6079.79"/>
	<polyline class="st1" points="1217.01,6132.49 1217.01,6151.89 1172.07,6190.7 	"/>
	<polyline class="st1" points="1015.82,6095.72 1014.8,6111.04 956.59,6143.72 	"/>
	<polyline class="st1" points="700.26,6139.64 701.28,6164.15 769.7,6184.57 	"/>
</g>
<g>
	<line class="st16" x1="863.66" y1="5894.54" x2="598.14" y2="5960.92"/>
	<line class="st16" x1="874.29" y1="5895.76" x2="610.86" y2="5962.99"/>
	<line class="st16" x1="884.93" y1="5896.98" x2="623.59" y2="5965.06"/>
	<line class="st16" x1="895.57" y1="5898.2" x2="636.32" y2="5967.12"/>
	<line class="st16" x1="906.2" y1="5899.42" x2="649.05" y2="5969.19"/>
	<line class="st16" x1="916.84" y1="5900.64" x2="661.78" y2="5971.26"/>
	<line class="st16" x1="927.47" y1="5901.86" x2="674.5" y2="5973.33"/>
	<line class="st16" x1="938.11" y1="5903.08" x2="687.23" y2="5975.39"/>
	<line class="st16" x1="948.74" y1="5904.31" x2="699.96" y2="5977.46"/>
	<line class="st16" x1="959.38" y1="5905.53" x2="712.69" y2="5979.53"/>
	<line class="st16" x1="970.02" y1="5906.75" x2="725.42" y2="5981.6"/>
	<line class="st16" x1="980.65" y1="5907.97" x2="738.15" y2="5983.66"/>
	<line class="st16" x1="991.29" y1="5909.19" x2="750.87" y2="5985.73"/>
	<line class="st16" x1="1001.92" y1="5910.41" x2="763.6" y2="5987.8"/>
	<line class="st16" x1="1012.56" y1="5911.63" x2="776.33" y2="5989.86"/>
	<line class="st16" x1="1023.2" y1="5912.85" x2="789.06" y2="5991.93"/>
	<line class="st16" x1="1033.83" y1="5914.07" x2="801.79" y2="5994"/>
	<line class="st16" x1="1044.47" y1="5915.29" x2="814.51" y2="5996.07"/>
	<line class="st16" x1="1055.1" y1="5916.51" x2="827.24" y2="5998.13"/>
	<line class="st16" x1="1065.74" y1="5917.73" x2="839.97" y2="6000.2"/>
	<line class="st16" x1="1076.37" y1="5918.95" x2="852.7" y2="6002.27"/>
	<line class="st16" x1="1087.01" y1="5920.17" x2="865.43" y2="6004.34"/>
	<line class="st16" x1="1097.65" y1="5921.39" x2="878.15" y2="6006.4"/>
	<line class="st16" x1="1108.28" y1="5922.61" x2="890.88" y2="6008.47"/>
	<line class="st16" x1="1118.92" y1="5923.83" x2="903.61" y2="6010.54"/>
	<line class="st16" x1="1129.55" y1="5925.05" x2="916.34" y2="6012.61"/>
	<line class="st16" x1="1140.19" y1="5926.27" x2="929.07" y2="6014.67"/>
	<line class="st16" x1="1150.82" y1="5927.49" x2="941.8" y2="6016.74"/>
	<line class="st16" x1="1161.46" y1="5928.72" x2="954.52" y2="6018.81"/>
	<line class="st16" x1="1172.1" y1="5929.94" x2="967.25" y2="6020.88"/>
	<line class="st16" x1="1182.73" y1="5931.16" x2="979.98" y2="6022.94"/>
	<line class="st16" x1="1193.37" y1="5932.38" x2="992.71" y2="6025.01"/>
	<line class="st16" x1="1204" y1="5933.6" x2="1005.44" y2="6027.08"/>
	<line class="st16" x1="1214.64" y1="5934.82" x2="1018.16" y2="6029.15"/>
	<line class="st16" x1="1225.28" y1="5936.04" x2="1030.89" y2="6031.21"/>
	<line class="st16" x1="1235.91" y1="5937.26" x2="1043.62" y2="6033.28"/>
	<line class="st16" x1="1246.55" y1="5938.48" x2="1056.35" y2="6035.35"/>
	<line class="st16" x1="1257.18" y1="5939.7" x2="1069.08" y2="6037.41"/>
	<line class="st16" x1="1267.82" y1="5940.92" x2="1081.8" y2="6039.48"/>
	<line class="st16" x1="1278.45" y1="5942.14" x2="1094.53" y2="6041.55"/>
	<line class="st16" x1="1289.09" y1="5943.36" x2="1107.26" y2="6043.62"/>
	<line class="st16" x1="1299.73" y1="5944.58" x2="1119.99" y2="6045.68"/>
</g>
<g>
	<line class="st17" x1="1299.73" y1="5944.58" x2="863.66" y2="5894.54"/>
	<line class="st16" x1="1291.17" y1="5949.4" x2="851.01" y2="5897.7"/>
	<line class="st16" x1="1282.61" y1="5954.21" x2="838.37" y2="5900.86"/>
	<line class="st16" x1="1274.05" y1="5959.02" x2="825.73" y2="5904.02"/>
	<line class="st16" x1="1265.49" y1="5963.84" x2="813.08" y2="5907.19"/>
	<line class="st16" x1="1256.93" y1="5968.65" x2="800.44" y2="5910.35"/>
	<line class="st16" x1="1248.37" y1="5973.47" x2="787.79" y2="5913.51"/>
	<line class="st16" x1="1239.81" y1="5978.28" x2="775.15" y2="5916.67"/>
	<line class="st16" x1="1231.25" y1="5983.1" x2="762.51" y2="5919.83"/>
	<line class="st16" x1="1222.7" y1="5987.91" x2="749.86" y2="5922.99"/>
	<line class="st16" x1="1214.14" y1="5992.73" x2="737.22" y2="5926.15"/>
	<line class="st16" x1="1205.58" y1="5997.54" x2="724.58" y2="5929.31"/>
	<line class="st16" x1="1197.02" y1="6002.35" x2="711.93" y2="5932.47"/>
	<line class="st16" x1="1188.46" y1="6007.17" x2="699.29" y2="5935.63"/>
	<line class="st16" x1="1179.9" y1="6011.98" x2="686.64" y2="5938.79"/>
	<line class="st16" x1="1171.34" y1="6016.8" x2="674" y2="5941.96"/>
	<line class="st16" x1="1162.78" y1="6021.61" x2="661.36" y2="5945.12"/>
	<line class="st16" x1="1154.22" y1="6026.43" x2="648.71" y2="5948.28"/>
	<line class="st16" x1="1145.67" y1="6031.24" x2="636.07" y2="5951.44"/>
	<line class="st16" x1="1137.11" y1="6036.06" x2="623.42" y2="5954.6"/>
	<line class="st16" x1="1128.55" y1="6040.87" x2="610.78" y2="5957.76"/>
	<line class="st16" x1="1119.99" y1="6045.68" x2="598.14" y2="5960.92"/>
</g>
<g>
	<text transform="matrix(1 0 0 1 562.4438 6315.4517)"><tspan x="0" y="0" class="st18 st5 st6">I-shaped reef</tspan><tspan x="0" y="56" class="st4 st5 st6">Weight: 3 metric tons</tspan><tspan x="0" y="112" class="st4 st5 st6">Depth: 6 to 8 meters</tspan></text>
</g>
<g>
	<text transform="matrix(1 0 0 1 1164.8853 6476.6685)"><tspan x="0" y="0" class="st18 st5 st6">Ship-type reef</tspan><tspan x="-28.98" y="56" class="st4 st5 st6">Weight: 3.5 tons</tspan><tspan x="-83.23" y="112" class="st4 st5 st6">Depth: 6 to 8 meters</tspan></text>
</g>
<g>
	<line class="st1" x1="562.44" y1="6333.55" x2="930.03" y2="6333.55"/>
	<line class="st1" x1="562.44" y1="6389.1" x2="930.03" y2="6389.1"/>
</g>
<g>
	<line class="st1" x1="988.44" y1="6492.63" x2="1356.03" y2="6492.63"/>
	<line class="st1" x1="988.44" y1="6548.17" x2="1356.03" y2="6548.17"/>
</g>
<g>
	<path class="st16" d="M757.62,6526.98c0,0-26.51-9.94-62.97,29c0,0-115.16,101.91-126.76,285.83l-1.66,28.17"/>
	<path class="st16" d="M764.29,6528.64c0,0-26.38-9.89-62.66,28.86c0,0-114.6,101.4-126.14,284.43l-1.65,28.03"/>
	<path class="st16" d="M770.97,6530.31c0,0-26.25-9.84-62.35,28.71c0,0-114.03,100.9-125.51,283.02l-1.64,27.89"/>
	<path class="st16" d="M777.64,6531.97c0,0-26.12-9.8-62.04,28.57c0,0-113.46,100.4-124.89,281.62l-1.63,27.75"/>
	<path class="st16" d="M784.31,6533.64c0,0-25.99-9.75-61.73,28.43c0,0-112.9,99.9-124.27,280.21l-1.62,27.61"/>
	<path class="st16" d="M790.98,6535.3c0,0-25.86-9.7-61.42,28.28c0,0-112.33,99.4-123.65,278.81l-1.62,27.48"/>
	<path class="st16" d="M797.65,6536.97c0,0-25.73-9.65-61.11,28.14c0,0-111.77,98.9-123.02,277.4l-1.61,27.34"/>
	<path class="st16" d="M804.32,6538.63c0,0-25.6-9.6-60.8,28c0,0-111.2,98.4-122.4,276l-1.6,27.2"/>
	<path class="st16" d="M810.99,6540.3c0,0-25.47-9.55-60.49,27.86c0,0-110.63,97.9-121.78,274.59l-1.59,27.06"/>
	<path class="st16" d="M817.66,6541.96c0,0-25.34-9.5-60.18,27.71c0,0-110.07,97.4-121.15,273.19l-1.58,26.92"/>
	<path class="st16" d="M824.34,6543.63c0,0-25.21-9.45-59.87,27.57c0,0-109.5,96.9-120.53,271.78l-1.58,26.78"/>
	<path class="st16" d="M831.01,6545.29c0,0-25.08-9.4-59.56,27.43c0,0-108.93,96.4-119.91,270.38l-1.57,26.65"/>
	<path class="st16" d="M837.68,6546.96c0,0-24.95-9.36-59.25,27.29c0,0-108.37,95.89-119.28,268.97l-1.56,26.51"/>
	<path class="st16" d="M844.35,6548.62c0,0-24.82-9.31-58.94,27.14c0,0-107.8,95.39-118.66,267.57l-1.55,26.37"/>
	<path class="st16" d="M851.02,6550.29c0,0-24.69-9.26-58.63,27c0,0-107.24,94.89-118.04,266.16l-1.54,26.23"/>
	<path class="st16" d="M857.69,6551.95c0,0-24.56-9.21-58.32,26.86c0,0-106.67,94.39-117.41,264.76l-1.53,26.09"/>
	<path class="st16" d="M864.36,6553.62c0,0-24.43-9.16-58.01,26.72c0,0-106.1,93.89-116.79,263.35l-1.53,25.95"/>
	<path class="st16" d="M871.03,6555.28c0,0-24.3-9.11-57.7,26.57c0,0-105.54,93.39-116.17,261.94l-1.52,25.81"/>
	<path class="st16" d="M877.7,6556.95c0,0-24.17-9.06-57.39,26.43c0,0-104.97,92.89-115.54,260.54l-1.51,25.68"/>
	<path class="st16" d="M884.38,6558.61c0,0-24.04-9.01-57.08,26.29c0,0-104.4,92.39-114.92,259.13l-1.5,25.54"/>
	<path class="st16" d="M891.05,6560.28c0,0-23.91-8.96-56.78,26.15c0,0-103.84,91.89-114.3,257.73l-1.49,25.4"/>
	<path class="st16" d="M897.72,6561.94c0,0-23.78-8.92-56.47,26c0,0-103.27,91.38-113.67,256.32l-1.49,25.26"/>
	<path class="st16" d="M904.39,6563.61c0,0-23.64-8.87-56.16,25.86c0,0-102.71,90.88-113.05,254.92l-1.48,25.12"/>
	<path class="st16" d="M911.06,6565.27c0,0-23.51-8.82-55.85,25.72c0,0-102.14,90.38-112.43,253.51l-1.47,24.98"/>
	<path class="st16" d="M917.73,6566.94c0,0-23.38-8.77-55.54,25.58c0,0-101.57,89.88-111.8,252.11l-1.46,24.85"/>
	<path class="st16" d="M924.4,6568.6c0,0-23.25-8.72-55.23,25.43c0,0-101.01,89.38-111.18,250.7l-1.45,24.71"/>
	<path class="st16" d="M931.07,6570.27c0,0-23.12-8.67-54.92,25.29c0,0-100.44,88.88-110.56,249.3l-1.45,24.57"/>
	<path class="st16" d="M937.75,6571.93c0,0-22.99-8.62-54.61,25.15c0,0-99.88,88.38-109.93,247.89l-1.44,24.43"/>
	<path class="st16" d="M944.42,6573.6c0,0-22.86-8.57-54.3,25.01c0,0-99.31,87.88-109.31,246.49l-1.43,24.29"/>
	<path class="st16" d="M951.09,6575.26c0,0-22.73-8.52-53.99,24.86c0,0-98.74,87.38-108.69,245.08l-1.42,24.15"/>
	<path class="st16" d="M957.76,6576.93c0,0-22.6-8.48-53.68,24.72c0,0-98.18,86.88-108.07,243.68l-1.41,24.01"/>
	<path class="st16" d="M964.43,6578.59c0,0-22.47-8.43-53.37,24.58c0,0-97.61,86.38-107.44,242.27l-1.4,23.88"/>
	<path class="st16" d="M971.1,6580.26c0,0-22.34-8.38-53.06,24.44c0,0-97.04,85.87-106.82,240.87l-1.4,23.74"/>
	<path class="st16" d="M977.77,6581.92c0,0-22.21-8.33-52.75,24.29c0,0-96.48,85.37-106.2,239.46l-1.39,23.6"/>
	<path class="st16" d="M984.44,6583.59c0,0-22.08-8.28-52.44,24.15c0,0-95.91,84.87-105.57,238.06l-1.38,23.46"/>
	<path class="st16" d="M991.11,6585.25c0,0-21.95-8.23-52.13,24.01c0,0-95.35,84.37-104.95,236.65l-1.37,23.32"/>
	<path class="st16" d="M997.79,6586.92c0,0-21.82-8.18-51.82,23.87c0,0-94.78,83.87-104.33,235.24l-1.36,23.18"/>
	<path class="st16" d="M1004.46,6588.58c0,0-21.69-8.13-51.51,23.72c0,0-94.21,83.37-103.7,233.84l-1.36,23.04"/>
	<path class="st16" d="M1011.13,6590.25c0,0-21.56-8.08-51.2,23.58c0,0-93.65,82.87-103.08,232.43l-1.35,22.91"/>
	<path class="st16" d="M1017.8,6591.91c0,0-21.43-8.04-50.89,23.44c0,0-93.08,82.37-102.46,231.03l-1.34,22.77"/>
	<path class="st16" d="M1024.47,6593.58c0,0-21.3-7.99-50.58,23.29c0,0-92.52,81.87-101.83,229.62l-1.33,22.63"/>
	<path class="st16" d="M1031.14,6595.24c0,0-21.17-7.94-50.27,23.15c0,0-91.95,81.36-101.21,228.22l-1.32,22.49"/>
	<path class="st16" d="M1037.81,6596.91c0,0-21.04-7.89-49.96,23.01c0,0-91.38,80.86-100.59,226.81l-1.31,22.35"/>
	<path class="st16" d="M1044.48,6598.57c0,0-20.91-7.84-49.66,22.87c0,0-90.82,80.36-99.96,225.41l-1.31,22.21"/>
	<path class="st16" d="M1051.16,6600.24c0,0-20.78-7.79-49.35,22.73c0,0-90.25,79.86-99.34,224l-1.3,22.08"/>
	<path class="st16" d="M1057.83,6601.9c0,0-20.65-7.74-49.04,22.58c0,0-89.68,79.36-98.72,222.6l-1.29,21.94"/>
	<path class="st16" d="M1064.5,6603.57c0,0-20.52-7.69-48.73,22.44c0,0-89.12,78.86-98.09,221.19l-1.28,21.8"/>
	<path class="st16" d="M1071.17,6605.23c0,0-20.39-7.64-48.42,22.3c0,0-88.55,78.36-97.47,219.79l-1.27,21.66"/>
	<path class="st16" d="M1077.84,6606.9c0,0-20.26-7.6-48.11,22.15c0,0-87.99,77.86-96.85,218.38l-1.27,21.52"/>
	<path class="st16" d="M1084.51,6608.56c0,0-20.13-7.55-47.8,22.01c0,0-87.42,77.36-96.22,216.98l-1.26,21.38"/>
	<path class="st16" d="M1091.18,6610.23c0,0-20-7.5-47.49,21.87c0,0-86.85,76.86-95.6,215.57l-1.25,21.24"/>
	<path class="st16" d="M1097.85,6611.89c0,0-19.86-7.45-47.18,21.73c0,0-86.29,76.35-94.98,214.17l-1.24,21.11"/>
</g>
<g>
	<line class="st16" x1="607.48" y1="6682.56" x2="1009.01" y2="6750.99"/>
	<line class="st16" x1="606.54" y1="6687.15" x2="1008.73" y2="6753.87"/>
	<line class="st16" x1="605.6" y1="6691.74" x2="1008.45" y2="6756.75"/>
	<line class="st16" x1="604.66" y1="6696.34" x2="1008.17" y2="6759.62"/>
	<line class="st16" x1="603.72" y1="6700.93" x2="1007.89" y2="6762.5"/>
	<line class="st16" x1="602.78" y1="6705.53" x2="1007.61" y2="6765.37"/>
	<line class="st16" x1="601.84" y1="6710.12" x2="1007.33" y2="6768.25"/>
	<line class="st16" x1="600.9" y1="6714.71" x2="1007.05" y2="6771.12"/>
	<line class="st16" x1="599.96" y1="6719.31" x2="1006.78" y2="6774"/>
	<line class="st16" x1="599.02" y1="6723.9" x2="1006.5" y2="6776.87"/>
	<line class="st16" x1="598.08" y1="6728.5" x2="1006.22" y2="6779.75"/>
	<line class="st16" x1="597.14" y1="6733.09" x2="1005.94" y2="6782.63"/>
	<line class="st16" x1="596.2" y1="6737.68" x2="1005.66" y2="6785.5"/>
	<line class="st16" x1="595.26" y1="6742.28" x2="1005.38" y2="6788.38"/>
	<line class="st16" x1="594.33" y1="6746.87" x2="1005.1" y2="6791.25"/>
	<line class="st16" x1="593.39" y1="6751.47" x2="1004.82" y2="6794.13"/>
	<line class="st16" x1="592.45" y1="6756.06" x2="1004.54" y2="6797"/>
	<line class="st16" x1="591.51" y1="6760.65" x2="1004.27" y2="6799.88"/>
	<line class="st16" x1="590.57" y1="6765.25" x2="1003.99" y2="6802.75"/>
	<line class="st16" x1="589.63" y1="6769.84" x2="1003.71" y2="6805.63"/>
	<line class="st16" x1="588.69" y1="6774.44" x2="1003.43" y2="6808.51"/>
	<line class="st16" x1="587.75" y1="6779.03" x2="1003.15" y2="6811.38"/>
	<line class="st16" x1="586.81" y1="6783.62" x2="1002.87" y2="6814.26"/>
	<line class="st16" x1="585.87" y1="6788.22" x2="1002.59" y2="6817.13"/>
	<line class="st16" x1="584.93" y1="6792.81" x2="1002.31" y2="6820.01"/>
	<line class="st16" x1="583.99" y1="6797.41" x2="1002.04" y2="6822.88"/>
	<line class="st16" x1="583.05" y1="6802" x2="1001.76" y2="6825.76"/>
	<line class="st16" x1="582.11" y1="6806.59" x2="1001.48" y2="6828.63"/>
	<line class="st16" x1="581.17" y1="6811.19" x2="1001.2" y2="6831.51"/>
	<line class="st16" x1="580.23" y1="6815.78" x2="1000.92" y2="6834.39"/>
	<line class="st16" x1="579.29" y1="6820.38" x2="1000.64" y2="6837.26"/>
	<line class="st16" x1="578.36" y1="6824.97" x2="1000.36" y2="6840.14"/>
	<line class="st16" x1="577.42" y1="6829.56" x2="1000.08" y2="6843.01"/>
	<line class="st16" x1="576.48" y1="6834.16" x2="999.81" y2="6845.89"/>
	<line class="st16" x1="575.54" y1="6838.75" x2="999.53" y2="6848.76"/>
	<line class="st16" x1="574.6" y1="6843.35" x2="999.25" y2="6851.64"/>
	<line class="st16" x1="573.66" y1="6847.94" x2="998.97" y2="6854.51"/>
	<line class="st16" x1="572.72" y1="6852.53" x2="998.69" y2="6857.39"/>
	<line class="st16" x1="571.78" y1="6857.13" x2="998.41" y2="6860.27"/>
	<line class="st16" x1="570.84" y1="6861.72" x2="998.13" y2="6863.14"/>
	<line class="st16" x1="569.9" y1="6866.31" x2="997.85" y2="6866.02"/>
	<line class="st16" x1="568.96" y1="6870.91" x2="997.57" y2="6868.89"/>
</g>
<g>
	<line class="st16" x1="607.48" y1="6682.56" x2="1009.01" y2="6750.99"/>
	<line class="st16" x1="611.1" y1="6678.74" x2="1010.46" y2="6747.48"/>
	<line class="st16" x1="614.72" y1="6674.93" x2="1011.92" y2="6743.96"/>
	<line class="st16" x1="618.35" y1="6671.12" x2="1013.37" y2="6740.44"/>
	<line class="st16" x1="621.97" y1="6667.31" x2="1014.83" y2="6736.93"/>
	<line class="st16" x1="625.59" y1="6663.49" x2="1016.29" y2="6733.41"/>
	<line class="st16" x1="629.22" y1="6659.68" x2="1017.74" y2="6729.89"/>
	<line class="st16" x1="632.84" y1="6655.87" x2="1019.2" y2="6726.37"/>
	<line class="st16" x1="636.46" y1="6652.05" x2="1020.65" y2="6722.86"/>
	<line class="st16" x1="640.09" y1="6648.24" x2="1022.11" y2="6719.34"/>
	<line class="st16" x1="643.71" y1="6644.43" x2="1023.57" y2="6715.82"/>
	<line class="st16" x1="647.33" y1="6640.61" x2="1025.02" y2="6712.31"/>
	<line class="st16" x1="650.96" y1="6636.8" x2="1026.48" y2="6708.79"/>
	<line class="st16" x1="654.58" y1="6632.99" x2="1027.93" y2="6705.27"/>
	<line class="st16" x1="658.2" y1="6629.18" x2="1029.39" y2="6701.75"/>
	<line class="st16" x1="661.83" y1="6625.36" x2="1030.85" y2="6698.24"/>
	<line class="st16" x1="665.45" y1="6621.55" x2="1032.3" y2="6694.72"/>
	<line class="st16" x1="669.07" y1="6617.74" x2="1033.76" y2="6691.2"/>
	<line class="st16" x1="672.7" y1="6613.92" x2="1035.21" y2="6687.69"/>
	<line class="st16" x1="676.32" y1="6610.11" x2="1036.67" y2="6684.17"/>
	<line class="st16" x1="679.94" y1="6606.3" x2="1038.13" y2="6680.65"/>
	<line class="st16" x1="683.57" y1="6602.48" x2="1039.58" y2="6677.13"/>
	<line class="st16" x1="687.19" y1="6598.67" x2="1041.04" y2="6673.62"/>
	<line class="st16" x1="690.81" y1="6594.86" x2="1042.49" y2="6670.1"/>
	<line class="st16" x1="694.43" y1="6591.05" x2="1043.95" y2="6666.58"/>
	<line class="st16" x1="698.06" y1="6587.23" x2="1045.41" y2="6663.07"/>
	<line class="st16" x1="701.68" y1="6583.42" x2="1046.86" y2="6659.55"/>
	<line class="st16" x1="705.3" y1="6579.61" x2="1048.32" y2="6656.03"/>
	<line class="st16" x1="708.93" y1="6575.79" x2="1049.77" y2="6652.52"/>
	<line class="st16" x1="712.55" y1="6571.98" x2="1051.23" y2="6649"/>
	<line class="st16" x1="716.17" y1="6568.17" x2="1052.69" y2="6645.48"/>
	<line class="st16" x1="719.8" y1="6564.35" x2="1054.14" y2="6641.96"/>
	<line class="st16" x1="723.42" y1="6560.54" x2="1055.6" y2="6638.45"/>
	<line class="st16" x1="727.04" y1="6556.73" x2="1057.05" y2="6634.93"/>
	<line class="st16" x1="730.67" y1="6552.92" x2="1058.51" y2="6631.41"/>
	<line class="st16" x1="734.29" y1="6549.1" x2="1059.97" y2="6627.9"/>
	<line class="st16" x1="737.91" y1="6545.29" x2="1061.42" y2="6624.38"/>
	<line class="st16" x1="741.54" y1="6541.48" x2="1062.88" y2="6620.86"/>
	<line class="st16" x1="745.16" y1="6537.66" x2="1064.33" y2="6617.34"/>
	<line class="st16" x1="748.78" y1="6533.85" x2="1065.79" y2="6613.83"/>
	<line class="st16" x1="752.41" y1="6530.04" x2="1067.25" y2="6610.31"/>
	<line class="st16" x1="756.03" y1="6526.23" x2="1068.7" y2="6606.79"/>
</g>
<g>
	<path class="st14" d="M696.59,6996.35l-120.46,10.73v29.7l377.07,59.41l394.4-84.99l-0.83-27.23l-83.34-5.78l-0.83-101.49
		l56.11-0.83l34.65-6.6l-2.48-24.75c0,0-13.2-152.64-156.77-206.28c-4.51-1.68-434-108.91-434-108.91s-26.4-9.9-62.71,28.88
		c0,0-114.69,101.49-126.24,284.66l-1.65,28.05l16.5,4.13l110.56-0.83V6996.35z M760.13,6529.34c0,0-26.4-9.9-62.71,28.88
		c0,0-114.69,101.49-126.24,284.66l-1.65,28.05 M1279.94,6751.29l6.6,1.65c0,0,25.58,60.23,28.88,91.59l-8.25-0.83
		C1307.17,6843.7,1292.32,6767.8,1279.94,6751.29z M638.01,6729.02l48.68,4.13l-23.1,112.21l-51.16,1.65
		C612.43,6847.01,621.51,6768.62,638.01,6729.02z M789.01,6578.02l-26.4,28.05L719.7,6597l38.78-32.18
		C758.48,6564.82,770.85,6567.3,789.01,6578.02z M843.46,6621.75l-32.18-6.6l13.2-12.38
		C828.61,6606.08,843.46,6621.75,843.46,6621.75z M878.94,6673.73l-20.63,27.23l-56.11,5.78l-55.28-5.78c0,0,14.03-36.3,31.35-51.16
		l96.54,14.85L878.94,6673.73z M786.53,6743.04l52.81,4.13l-25.58,98.19H739.5l-0.16-99.01L786.53,6743.04z M932.02,6847.28h-46.48
		l-0.16-87.74l30.69-2.48c0,0,15.69,53.63,15.68,85.81L932.02,6847.28z M972.18,6880.83l-0.83,84.99l-86.64,9.9l0.33-103.96
		l49.18-0.83l1.65,9.9H972.18z M1116.57,6762.02l-0.83,77.56l-44.56-0.83c0-9.9-14.03-73.43-14.03-73.43L1116.57,6762.02z
		 M1261.79,6843.7l1.65-30.53l5.78,30.53H1261.79z M1158.49,6879.18l69.47-0.82l-2.48,99.84l-67-5.78V6879.18z M1226.31,6841.23
		l-20.63,0.83c0,0-13.2-75.08-21.45-84.16l42.91-3.3L1226.31,6841.23z M1129.77,6664.66l44.56,8.25l28.88,28.88l-52.81-9.9
		L1129.77,6664.66z M1020.86,7001.3c0,0,93.24,3.3,95.71,3.3l-6.6,5.78l-89.11,15.68V7001.3z M1020.86,6880.83l96.54-0.83
		l-1.65,89.11l-94.06-5.78L1020.86,6880.83z M1003.53,6653.11l27.23,4.13l9.9,16.5l-26.4-4.13L1003.53,6653.11z M852.54,7017.8
		L973,7002.12l-0.83,28.88L852.54,7017.8z M738.67,6873.41l112.21-1.65v108.09l-112.21,12.38V6873.41z M703.2,6693.54l-48.68-4.13
		c0,0,14.03-36.3,33.83-53.63c0,0,46.21,6.6,43.73,6.6C729.6,6642.38,703.2,6693.54,703.2,6693.54z"/>
	<g>
		<path class="st15" d="M696.59,6996.35l-120.46,10.73v29.7l377.07,59.41l394.4-84.99l-0.83-27.23l-83.34-5.78l-0.83-101.49
			l56.11-0.83l34.65-6.6l-2.48-24.75c0,0-13.2-152.64-156.77-206.28c-4.51-1.68-434-108.91-434-108.91s-26.4-9.9-62.71,28.88
			c0,0-114.69,101.49-126.24,284.66l-1.65,28.05l16.5,4.13l110.56-0.83V6996.35z M1279.94,6751.29l6.6,1.65
			c0,0,25.58,60.23,28.88,91.59l-8.25-0.83C1307.17,6843.7,1292.32,6767.8,1279.94,6751.29z M638.01,6729.02l48.68,4.13
			l-23.1,112.21l-51.16,1.65C612.43,6847.01,621.51,6768.62,638.01,6729.02z M789.01,6578.02l-26.4,28.05L719.7,6597l38.78-32.18
			C758.48,6564.82,770.85,6567.3,789.01,6578.02z M843.46,6621.75l-32.18-6.6l13.2-12.38
			C828.61,6606.08,843.46,6621.75,843.46,6621.75z M878.94,6673.73l-20.63,27.23l-56.11,5.78l-55.28-5.78
			c0,0,14.03-36.3,31.35-51.16l96.54,14.85L878.94,6673.73z M786.53,6743.04l52.81,4.13l-25.58,98.19H739.5l-0.16-99.01
			L786.53,6743.04z M932.02,6847.28h-46.48l-0.16-87.74l30.69-2.48c0,0,15.69,53.63,15.68,85.81L932.02,6847.28z M972.18,6880.83
			l-0.83,84.99l-86.64,9.9l0.33-103.96l49.18-0.83l1.65,9.9H972.18z M1116.57,6762.02l-0.83,77.56l-44.56-0.83
			c0-9.9-14.03-73.43-14.03-73.43L1116.57,6762.02z M1261.79,6843.7l1.65-30.53l5.78,30.53H1261.79z M1158.49,6879.18l68.48-0.82
			l-1.49,99.84l-67-5.78V6879.18z M1226.31,6841.23l-20.63,0.83c0,0-13.2-75.08-21.45-84.16l42.91-3.3L1226.31,6841.23z
			 M1129.77,6664.66l44.56,8.25l28.88,28.88l-52.81-9.9L1129.77,6664.66z M1020.86,7001.3c0,0,93.24,3.3,95.71,3.3l-6.6,5.78
			l-89.11,15.68V7001.3z M1020.86,6880.83l96.54-0.83l-1.65,89.11l-94.06-5.78L1020.86,6880.83z M1003.53,6653.11l27.23,4.13
			l9.9,16.5l-26.4-4.13L1003.53,6653.11z M852.54,7017.8L973,7002.12l-0.83,28.88L852.54,7017.8z M738.67,6873.41l112.21-1.65
			v108.09l-112.21,12.38V6873.41z M703.2,6693.54l-48.68-4.13c0,0,14.03-36.3,33.83-53.63c0,0,46.21,6.6,43.73,6.6
			C729.6,6642.38,703.2,6693.54,703.2,6693.54z"/>
	</g>
	<g>
		<path class="st1" d="M1190.83,6842.6l-119.64-3.85c0,0-20.08-114.41-40.98-140.27l120.46,17.6
			C1150.68,6716.09,1178.73,6766.15,1190.83,6842.6z"/>
		<path class="st1" d="M1270.04,6734.24c0,0,28.05,37.4,37.13,109.46l33.28-0.55c0,0-8.8-53.36-35.75-104.51L1270.04,6734.24z"/>
		<path class="st1" d="M1197.98,6654.48c0,0,44.56,31.9,56.66,56.66l34.65,4.95c0,0-29.15-38.5-55.01-52.81L1197.98,6654.48z"/>
		<path class="st1" d="M1183.68,6650.63c0,0,30.25,16.5,57.21,57.76l-90.49-16.5c0,0-34.93-47.31-58.58-62.16
			C1091.82,6629.73,1186.43,6651.18,1183.68,6650.63z"/>
		<path class="st1" d="M1074.22,6624.78c0,0,36.3,27.5,59.96,64.91l-119.91-20.08c0,0-42.36-62.43-63.26-73.43L1074.22,6624.78z"/>
		<path class="st1" d="M1146.27,6625.88c12.1,3.3,30.8,15.95,30.8,15.95l28.05,4.95c0,0-11.55-6.6-18.15-10.45"/>
		<path class="st1" d="M1132.52,6622.58c18.7,8.8,28.6,15.4,28.6,15.4l-93.51-23.1c0,0-13.75-9.9-30.8-15.4"/>
		<path class="st1" d="M1047.26,6608.83l-115.51-26.95c0,0-22-11.55-28.05-13.75l115.51,26.4
			C1019.21,6594.52,1042.86,6603.33,1047.26,6608.83z"/>
		<path class="st1" d="M860.79,6555.47c20.35,4.95,41.26,18.7,41.26,18.7c-6.6-1.65-63.26-14.85-63.26-14.85s-22-15.4-40.15-19.8"/>
		<path class="st1" d="M926.25,6590.12c0,0,28.05,17.05,65.46,74.81l-66.56-11.55c0,0-39.6-62.16-64.91-78.66L926.25,6590.12z"/>
		<polyline class="st1" points="903.14,6619.28 915.25,6619.83 951,6657.23 		"/>
		<polyline class="st1" points="991.71,6635.78 1059.91,6649.53 1092.92,6682.54 		"/>
		<line class="st1" x1="1117.12" y1="6732.04" x2="1116.57" y2="6762.02"/>
		<path class="st1" d="M1162.78,6840.4c-11.55-62.16-34.65-108.36-34.65-108.36l-85.81-10.45"/>
		<path class="st1" d="M1177.08,6739.19c0,0,61.61,7.15,59.96,7.7c-1.65,0.55,20.63,35.75,26.4,66.28"/>
		<path class="st1" d="M1205.68,6842.05l88.56,1.65c-7.15-59.96-36.3-112.21-36.3-112.21c-4.4,0.55-91.86-12.65-91.86-12.65
			s14.85,26.95,18.15,39.05"/>
		<path class="st1" d="M1008.76,6694.09c0,0,38.5,77.56,41.26,145.77l-65.46-0.55c0,0-6.05-80.31-42.36-155.12L1008.76,6694.09z"/>
		<path class="st1" d="M954.3,6710.04c2.2,0.55,32.45,2.75,32.45,2.75s24.75,52.26,33.55,126.52"/>
		<line class="st1" x1="971.9" y1="6712.79" x2="971.9" y2="6770.55"/>
		<line class="st1" x1="998.31" y1="6743.04" x2="998.31" y2="6839.3"/>
		<line class="st1" x1="1142.97" y1="6766.7" x2="1142.97" y2="6840.4"/>
		<line class="st1" x1="1157.28" y1="6840.4" x2="1157.28" y2="6815.65"/>
		<path class="st1" d="M1353.38,6869.28c-4.68-1.38-390.27,6.88-390.27,6.88l-27.23,4.68"/>
		<path class="st1" d="M963.1,6876.16c-1.1-4.4,1.1-111.11-60.51-225.53c0,0-51.71-102.86-142.47-121.29"/>
		<path class="st1" d="M915.25,6619.83c0-2.2,11-29.7,11-29.7"/>
		<line class="st1" x1="1059.91" y1="6649.53" x2="1074.22" y2="6624.78"/>
		<line class="st1" x1="1174.33" y1="6672.91" x2="1183.68" y2="6650.63"/>
		<line class="st1" x1="1226.58" y1="6677.03" x2="1234.29" y2="6663.28"/>
		<line class="st1" x1="1304.69" y1="6738.64" x2="1286.54" y2="6752.94"/>
		<line class="st1" x1="1237.04" y1="6746.89" x2="1250.24" y2="6732.04"/>
		<line class="st1" x1="1128.12" y1="6732.04" x2="1150.68" y2="6716.09"/>
		<line class="st1" x1="986.76" y1="6712.79" x2="1008.76" y2="6694.09"/>
		<path class="st1" d="M892.14,6697.39c-6.6-0.55-175.47,18.7-175.47,18.7l-0.55,286.59"/>
		<path class="st1" d="M638.01,6729.02l68.21,5.23c0,0-20.35,45.66-25.3,111.11"/>
		<path class="st1" d="M830.54,6871.76c0,0,8.8-94.06,31.35-135.32"/>
		<line class="st1" x1="907" y1="6732.04" x2="786.53" y2="6743.04"/>
		<polyline class="st1" points="739.33,6746.34 718.32,6743.04 904.8,6727.64 		"/>
		<line class="st1" x1="934.22" y1="6870.93" x2="932.02" y2="6847.28"/>
		<path class="st1" d="M916.07,6757.07c0,0-24.48-80.58-72.61-135.32"/>
		<path class="st1" d="M824.49,6602.77c0,0-15.95-20.35-66.01-37.95c0,0-20.35-6.05-41.81,8.8c0,0-72.61,58.31-103.41,151.82
			c0,0-26.4,91.31-25.3,120.46l-1.93,29.15"/>
		<path class="st1" d="M719.7,6597c0,0-15.13,16.23-16.78,17.88l69.31,12.65c0,0,22.55-24.2,40.71-34.65"/>
		<line class="st1" x1="762.6" y1="6606.08" x2="772.23" y2="6627.53"/>
		<path class="st1" d="M732.07,6642.38l24.75,4.95c0,0-26.95,29.15-41.26,64.91l-68.21-7.15l7.15-15.68"/>
		<line class="st1" x1="972.18" y1="6880.83" x2="1020.86" y2="6880.83"/>
		<polyline class="st1" points="1020.86,7026.05 1020.86,7030.73 998.86,7035.68 972.18,7031 		"/>
		<line class="st1" x1="997.76" y1="6881.11" x2="997.87" y2="7035.68"/>
		<line class="st1" x1="1117.4" y1="6880.01" x2="1158.49" y2="6879.18"/>
		<line class="st1" x1="1262.61" y1="6876.71" x2="1227.96" y2="6878.36"/>
		<polyline class="st1" points="1263.44,6978.2 1262.89,6990.02 1250.24,6992.22 1226.03,6990.02 1225.48,6978.2 		"/>
		<line class="st1" x1="1251.89" y1="6878.36" x2="1250.24" y2="6992.22"/>
		<polyline class="st1" points="1158.49,6972.42 1157.28,7007.08 1141.87,7010.38 1114.37,7008.73 		"/>
		<line class="st1" x1="1141.87" y1="7010.38" x2="1142.42" y2="6880.01"/>
		<polyline class="st1" points="1158.38,7001.02 1226.03,6990.02 1158.93,6986.17 		"/>
		<line class="st1" x1="1115.47" y1="6982.32" x2="1021.41" y2="6975.72"/>
		<line class="st1" x1="1115.75" y1="6969.12" x2="1116.57" y2="7004.6"/>
		<line class="st1" x1="1021.68" y1="6963.34" x2="1020.86" y2="7001.3"/>
		<line class="st1" x1="973" y1="7002.12" x2="971.35" y2="6965.82"/>
		<polyline class="st1" points="884.72,6975.72 885.54,6985.07 868.49,6986.17 850.89,6983.42 		"/>
		<line class="st1" x1="868.49" y1="6986.17" x2="869.04" y2="6735.34"/>
		<line class="st1" x1="1117.12" y1="6739.74" x2="1050.56" y2="6744.14"/>
		<line class="st1" x1="1030.76" y1="6657.23" x2="1042.86" y2="6646.23"/>
		<line class="st1" x1="1252.44" y1="6779.35" x2="1251.89" y2="6842.6"/>
		<polyline class="st1" points="1346.77,6983.97 952.1,7057.13 576.13,7007.08 		"/>
		<line class="st1" x1="952.1" y1="7057.13" x2="953.2" y2="7096.19"/>
		<polyline class="st1" points="849.24,7018.63 697.42,7001.02 698.52,6756.24 		"/>
		<line class="st1" x1="716.12" y1="7002.67" x2="971.35" y2="6975.17"/>
	</g>
</g>
<g>
	<path class="st16" d="M963.1,6876.16c-1.1-4.4,1.1-111.11-60.51-225.53c0,0-51.71-102.86-142.47-121.29"/>
	<path class="st16" d="M967.92,6876.07c-1.1-4.38,1.1-110.56-60.33-224.51c0,0-51.68-102.42-142.1-120.88"/>
	<path class="st16" d="M972.74,6875.99c-1.09-4.36,1.09-110.01-60.15-223.49c0,0-51.65-101.98-141.72-120.48"/>
	<path class="st16" d="M977.56,6875.9c-1.09-4.35,1.09-109.46-59.97-222.47c0,0-51.62-101.54-141.35-120.07"/>
	<path class="st16" d="M982.38,6875.82c-1.09-4.33,1.09-108.91-59.8-221.45c0,0-51.59-101.1-140.98-119.67"/>
	<path class="st16" d="M987.19,6875.73c-1.08-4.31,1.08-108.36-59.62-220.43c0,0-51.56-100.66-140.61-119.26"/>
	<path class="st16" d="M992.01,6875.65c-1.08-4.29,1.08-107.81-59.44-219.41c0,0-51.53-100.22-140.24-118.86"/>
	<path class="st16" d="M996.83,6875.56c-1.08-4.27,1.08-107.26-59.26-218.39c0,0-51.5-99.78-139.87-118.45"/>
	<path class="st16" d="M1001.65,6875.48c-1.07-4.26,1.07-106.71-59.09-217.37c0,0-51.48-99.35-139.5-118.05"/>
	<path class="st16" d="M1006.47,6875.4c-1.07-4.24,1.07-106.16-58.91-216.34c0,0-51.45-98.91-139.12-117.64"/>
	<path class="st16" d="M1011.28,6875.31c-1.07-4.22,1.07-105.61-58.73-215.32c0,0-51.42-98.47-138.75-117.24"/>
	<path class="st16" d="M1016.1,6875.23c-1.06-4.2,1.06-105.06-58.55-214.3c0,0-51.39-98.03-138.38-116.83"/>
	<path class="st16" d="M1020.92,6875.14c-1.06-4.18,1.06-104.51-58.38-213.28c0,0-51.36-97.59-138.01-116.43"/>
	<path class="st16" d="M1025.74,6875.06c-1.06-4.17,1.06-103.96-58.2-212.26c0,0-51.33-97.15-137.64-116.02"/>
	<path class="st16" d="M1030.56,6874.97c-1.05-4.15,1.05-103.41-58.02-211.24c0,0-51.3-96.71-137.27-115.62"/>
	<path class="st16" d="M1035.38,6874.89c-1.05-4.13,1.05-102.86-57.84-210.22c0,0-51.27-96.27-136.89-115.21"/>
	<path class="st16" d="M1040.19,6874.8c-1.05-4.11,1.05-102.31-57.67-209.2c0,0-51.25-95.83-136.52-114.81"/>
	<path class="st16" d="M1045.01,6874.72c-1.05-4.09,1.05-101.76-57.49-208.18c0,0-51.22-95.39-136.15-114.4"/>
	<path class="st16" d="M1049.83,6874.63c-1.04-4.07,1.04-101.21-57.31-207.16c0,0-51.19-94.95-135.78-114"/>
	<path class="st16" d="M1054.65,6874.55c-1.04-4.06,1.04-100.66-57.13-206.14c0,0-51.16-94.51-135.41-113.59"/>
	<path class="st16" d="M1059.47,6874.46c-1.04-4.04,1.04-100.11-56.96-205.12c0,0-51.13-94.07-135.04-113.19"/>
	<path class="st16" d="M1064.28,6874.38c-1.03-4.02,1.03-99.56-56.78-204.1c0,0-51.1-93.63-134.67-112.78"/>
	<path class="st16" d="M1069.1,6874.29c-1.03-4,1.03-99.01-56.6-203.08c0,0-51.07-93.19-134.29-112.37"/>
	<path class="st16" d="M1073.92,6874.21c-1.03-3.98,1.03-98.46-56.42-202.06c0,0-51.04-92.75-133.92-111.97"/>
	<path class="st16" d="M1078.74,6874.12c-1.02-3.97,1.02-97.91-56.25-201.04c0,0-51.02-92.31-133.55-111.56"/>
	<path class="st16" d="M1083.56,6874.04c-1.02-3.95,1.02-97.36-56.07-200.02c0,0-50.99-91.87-133.18-111.16"/>
	<path class="st16" d="M1088.38,6873.95c-1.02-3.93,1.02-96.81-55.89-199c0,0-50.96-91.43-132.81-110.75"/>
	<path class="st16" d="M1093.19,6873.87c-1.01-3.91,1.01-96.26-55.71-197.98c0,0-50.93-90.99-132.44-110.35"/>
	<path class="st16" d="M1098.01,6873.78c-1.01-3.89,1.01-95.71-55.53-196.96c0,0-50.9-90.55-132.07-109.94"/>
	<path class="st16" d="M1102.83,6873.7c-1.01-3.88,1.01-95.16-55.36-195.94c0,0-50.87-90.11-131.69-109.54"/>
	<path class="st16" d="M1107.65,6873.61c-1-3.86,1-94.61-55.18-194.92c0,0-50.84-89.67-131.32-109.13"/>
	<path class="st16" d="M1112.47,6873.53c-1-3.84,1-94.06-55-193.9c0,0-50.81-89.23-130.95-108.73"/>
	<path class="st16" d="M1117.28,6873.44c-1-3.82,1-93.51-54.82-192.88c0,0-50.79-88.79-130.58-108.32"/>
	<path class="st16" d="M1122.1,6873.36c-0.99-3.8,0.99-92.96-54.65-191.86c0,0-50.76-88.35-130.21-107.92"/>
	<path class="st16" d="M1126.92,6873.27c-0.99-3.79,0.99-92.41-54.47-190.83c0,0-50.73-87.91-129.84-107.51"/>
	<path class="st16" d="M1131.74,6873.19c-0.99-3.77,0.99-91.86-54.29-189.81c0,0-50.7-87.47-129.46-107.11"/>
	<path class="st16" d="M1136.56,6873.1c-0.98-3.75,0.98-91.31-54.11-188.79c0,0-50.67-87.03-129.09-106.7"/>
	<path class="st16" d="M1141.38,6873.02c-0.98-3.73,0.98-90.76-53.94-187.77c0,0-50.64-86.59-128.72-106.3"/>
	<path class="st16" d="M1146.19,6872.93c-0.98-3.71,0.98-90.21-53.76-186.75c0,0-50.61-86.15-128.35-105.89"/>
	<path class="st16" d="M1151.01,6872.85c-0.97-3.69,0.97-89.66-53.58-185.73c0,0-50.58-85.71-127.98-105.48"/>
	<path class="st16" d="M1155.83,6872.76c-0.97-3.68,0.97-89.11-53.4-184.71c0,0-50.56-85.28-127.61-105.08"/>
	<path class="st16" d="M1160.65,6872.68c-0.97-3.66,0.97-88.56-53.23-183.69c0,0-50.53-84.84-127.24-104.67"/>
	<path class="st16" d="M1165.47,6872.59c-0.96-3.64,0.96-88.01-53.05-182.67c0,0-50.5-84.4-126.86-104.27"/>
	<path class="st16" d="M1170.28,6872.51c-0.96-3.62,0.96-87.46-52.87-181.65c0,0-50.47-83.96-126.49-103.86"/>
	<path class="st16" d="M1175.1,6872.42c-0.96-3.6,0.96-86.91-52.69-180.63c0,0-50.44-83.52-126.12-103.46"/>
	<path class="st16" d="M1179.92,6872.34c-0.95-3.59,0.95-86.36-52.52-179.61c0,0-50.41-83.08-125.75-103.05"/>
	<path class="st16" d="M1184.74,6872.25c-0.95-3.57,0.95-85.81-52.34-178.59c0,0-50.38-82.64-125.38-102.65"/>
	<path class="st16" d="M1189.56,6872.17c-0.95-3.55,0.95-85.26-52.16-177.57c0,0-50.35-82.2-125.01-102.24"/>
	<path class="st16" d="M1194.38,6872.08c-0.95-3.53,0.95-84.71-51.98-176.55c0,0-50.32-81.76-124.63-101.84"/>
	<path class="st16" d="M1199.19,6872c-0.94-3.51,0.94-84.16-51.81-175.53c0,0-50.3-81.32-124.26-101.43"/>
	<path class="st16" d="M1204.01,6871.91c-0.94-3.5,0.94-83.61-51.63-174.51c0,0-50.27-80.88-123.89-101.03"/>
	<path class="st16" d="M1208.83,6871.83c-0.94-3.48,0.94-83.06-51.45-173.49c0,0-50.24-80.44-123.52-100.62"/>
	<path class="st16" d="M1213.65,6871.74c-0.93-3.46,0.93-82.51-51.27-172.47c0,0-50.21-80-123.15-100.22"/>
	<path class="st16" d="M1218.47,6871.66c-0.93-3.44,0.93-81.96-51.09-171.45c0,0-50.18-79.56-122.78-99.81"/>
	<path class="st16" d="M1223.28,6871.57c-0.93-3.42,0.93-81.41-50.92-170.43c0,0-50.15-79.12-122.41-99.41"/>
	<path class="st16" d="M1228.1,6871.49c-0.92-3.41,0.92-80.86-50.74-169.41c0,0-50.12-78.68-122.03-99"/>
	<path class="st16" d="M1232.92,6871.41c-0.92-3.39,0.92-80.31-50.56-168.39c0,0-50.09-78.24-121.66-98.6"/>
	<path class="st16" d="M1237.74,6871.32c-0.92-3.37,0.92-79.76-50.38-167.37c0,0-50.07-77.8-121.29-98.19"/>
	<path class="st16" d="M1242.56,6871.24c-0.91-3.35,0.91-79.21-50.21-166.35c0,0-50.04-77.36-120.92-97.79"/>
	<path class="st16" d="M1247.38,6871.15c-0.91-3.33,0.91-78.66-50.03-165.33c0,0-50.01-76.92-120.55-97.38"/>
	<path class="st16" d="M1252.19,6871.07c-0.91-3.31,0.91-78.11-49.85-164.31c0,0-49.98-76.48-120.18-96.97"/>
	<path class="st16" d="M1257.01,6870.98c-0.9-3.3,0.9-77.56-49.67-163.29c0,0-49.95-76.04-119.81-96.57"/>
	<path class="st16" d="M1261.83,6870.9c-0.9-3.28,0.9-77.01-49.5-162.27c0,0-49.92-75.6-119.43-96.16"/>
	<path class="st16" d="M1266.65,6870.81c-0.9-3.26,0.9-76.46-49.32-161.24c0,0-49.89-75.16-119.06-95.76"/>
	<path class="st16" d="M1271.47,6870.73c-0.89-3.24,0.89-75.91-49.14-160.22c0,0-49.86-74.72-118.69-95.35"/>
	<path class="st16" d="M1276.28,6870.64c-0.89-3.22,0.89-75.36-48.96-159.2c0,0-49.84-74.28-118.32-94.95"/>
	<path class="st16" d="M1281.1,6870.56c-0.89-3.21,0.89-74.81-48.79-158.18c0,0-49.81-73.84-117.95-94.54"/>
	<path class="st16" d="M1285.92,6870.47c-0.88-3.19,0.88-74.26-48.61-157.16c0,0-49.78-73.4-117.58-94.14"/>
	<path class="st16" d="M1290.74,6870.39c-0.88-3.17,0.88-73.71-48.43-156.14c0,0-49.75-72.96-117.2-93.73"/>
	<path class="st16" d="M1295.56,6870.3c-0.88-3.15,0.88-73.16-48.25-155.12c0,0-49.72-72.52-116.83-93.33"/>
	<path class="st16" d="M1300.38,6870.22c-0.87-3.13,0.87-72.61-48.08-154.1c0,0-49.69-72.08-116.46-92.92"/>
	<path class="st16" d="M1305.19,6870.13c-0.87-3.12,0.87-72.06-47.9-153.08c0,0-49.66-71.65-116.09-92.52"/>
	<path class="st16" d="M1310.01,6870.05c-0.87-3.1,0.87-71.51-47.72-152.06c0,0-49.63-71.21-115.72-92.11"/>
	<path class="st16" d="M1314.83,6869.96c-0.86-3.08,0.86-70.96-47.54-151.04c0,0-49.61-70.77-115.35-91.71"/>
	<path class="st16" d="M1319.65,6869.88c-0.86-3.06,0.86-70.41-47.36-150.02c0,0-49.58-70.33-114.98-91.3"/>
	<path class="st16" d="M1324.47,6869.79c-0.86-3.04,0.86-69.86-47.19-149c0,0-49.55-69.89-114.6-90.9"/>
	<path class="st16" d="M1329.28,6869.71c-0.85-3.03,0.85-69.31-47.01-147.98c0,0-49.52-69.45-114.23-90.49"/>
	<path class="st16" d="M1334.1,6869.62c-0.85-3.01,0.85-68.76-46.83-146.96c0,0-49.49-69.01-113.86-90.09"/>
	<path class="st16" d="M1338.92,6869.54c-0.85-2.99,0.85-68.21-46.65-145.94c0,0-49.46-68.57-113.49-89.68"/>
	<path class="st16" d="M1343.74,6869.45c-0.84-2.97,0.85-67.66-46.48-144.92c0,0-49.43-68.13-113.12-89.27"/>
	<path class="st16" d="M1348.56,6869.37c-0.84-2.95,0.84-67.11-46.3-143.9c0,0-49.4-67.69-112.75-88.87"/>
	<path class="st16" d="M1353.38,6869.28c-0.84-2.94,0.84-66.56-46.12-142.88c0,0-49.38-67.25-112.38-88.46"/>
</g>
<g>
	<defs>
		<path id="SVGID_00000124879282980690380360000010016884619616793768_" d="M963.1,6876.16c-1.1-4.4,1.1-111.11-60.51-225.53
			c0,0-51.71-102.86-142.47-121.29l434,108.91c0,0,146.32,44.28,159.24,231.03L963.1,6876.16z"/>
	</defs>
	<clipPath id="SVGID_00000182513529739812481740000015639274608344338867_">
		<use xlink:href="#SVGID_00000124879282980690380360000010016884619616793768_"  style="overflow:visible;"/>
	</clipPath>
	<g style="clip-path:url(#SVGID_00000182513529739812481740000015639274608344338867_);">
		<g>
			<line class="st16" x1="1361.83" y1="6734.24" x2="908.7" y2="6663.42"/>
			<line class="st16" x1="1361.52" y1="6738.59" x2="910.46" y2="6670.28"/>
			<line class="st16" x1="1361.21" y1="6742.94" x2="912.21" y2="6677.15"/>
			<line class="st16" x1="1360.9" y1="6747.3" x2="913.97" y2="6684.01"/>
			<line class="st16" x1="1360.59" y1="6751.65" x2="915.72" y2="6690.87"/>
			<line class="st16" x1="1360.28" y1="6756" x2="917.48" y2="6697.73"/>
			<line class="st16" x1="1359.97" y1="6760.35" x2="919.23" y2="6704.6"/>
			<line class="st16" x1="1359.66" y1="6764.7" x2="920.98" y2="6711.46"/>
			<line class="st16" x1="1359.35" y1="6769.06" x2="922.74" y2="6718.32"/>
			<line class="st16" x1="1359.04" y1="6773.41" x2="924.49" y2="6725.18"/>
			<line class="st16" x1="1358.73" y1="6777.76" x2="926.25" y2="6732.05"/>
			<line class="st16" x1="1358.42" y1="6782.11" x2="928" y2="6738.91"/>
			<line class="st16" x1="1358.11" y1="6786.46" x2="929.76" y2="6745.77"/>
			<line class="st16" x1="1357.8" y1="6790.81" x2="931.51" y2="6752.63"/>
			<line class="st16" x1="1357.49" y1="6795.17" x2="933.27" y2="6759.5"/>
			<line class="st16" x1="1357.18" y1="6799.52" x2="935.02" y2="6766.36"/>
			<line class="st16" x1="1356.87" y1="6803.87" x2="936.78" y2="6773.22"/>
			<line class="st16" x1="1356.56" y1="6808.22" x2="938.53" y2="6780.08"/>
			<line class="st16" x1="1356.25" y1="6812.57" x2="940.29" y2="6786.95"/>
			<line class="st16" x1="1355.94" y1="6816.92" x2="942.04" y2="6793.81"/>
			<line class="st16" x1="1355.63" y1="6821.28" x2="943.8" y2="6800.67"/>
			<line class="st16" x1="1355.32" y1="6825.63" x2="945.55" y2="6807.53"/>
			<line class="st16" x1="1355.01" y1="6829.98" x2="947.31" y2="6814.4"/>
			<line class="st16" x1="1354.7" y1="6834.33" x2="949.06" y2="6821.26"/>
			<line class="st16" x1="1354.39" y1="6838.68" x2="950.82" y2="6828.12"/>
			<line class="st16" x1="1354.07" y1="6843.04" x2="952.57" y2="6834.98"/>
			<line class="st16" x1="1353.76" y1="6847.39" x2="954.33" y2="6841.85"/>
			<line class="st16" x1="1353.45" y1="6851.74" x2="956.08" y2="6848.71"/>
			<line class="st16" x1="1353.14" y1="6856.09" x2="957.84" y2="6855.57"/>
			<line class="st16" x1="1352.83" y1="6860.44" x2="959.59" y2="6862.43"/>
			<line class="st16" x1="1352.52" y1="6864.79" x2="961.35" y2="6869.3"/>
			<line class="st16" x1="1352.21" y1="6869.15" x2="963.1" y2="6876.16"/>
		</g>
		<g>
			<line class="st16" x1="1340.45" y1="6673.73" x2="741.65" y2="6526.45"/>
			<line class="st16" x1="1341.47" y1="6676.62" x2="749.6" y2="6532.97"/>
			<line class="st16" x1="1342.49" y1="6679.5" x2="757.56" y2="6539.5"/>
			<line class="st16" x1="1343.5" y1="6682.38" x2="765.51" y2="6546.02"/>
			<line class="st16" x1="1344.52" y1="6685.26" x2="773.47" y2="6552.54"/>
			<line class="st16" x1="1345.54" y1="6688.14" x2="781.42" y2="6559.06"/>
			<line class="st16" x1="1346.56" y1="6691.02" x2="789.38" y2="6565.59"/>
			<line class="st16" x1="1347.58" y1="6693.9" x2="797.33" y2="6572.11"/>
			<line class="st16" x1="1348.6" y1="6696.78" x2="805.29" y2="6578.63"/>
			<line class="st16" x1="1349.61" y1="6699.67" x2="813.24" y2="6585.15"/>
			<line class="st16" x1="1350.63" y1="6702.55" x2="821.2" y2="6591.68"/>
			<line class="st16" x1="1351.65" y1="6705.43" x2="829.15" y2="6598.2"/>
			<line class="st16" x1="1352.67" y1="6708.31" x2="837.11" y2="6604.72"/>
			<line class="st16" x1="1353.69" y1="6711.19" x2="845.06" y2="6611.24"/>
			<line class="st16" x1="1354.71" y1="6714.07" x2="853.02" y2="6617.76"/>
			<line class="st16" x1="1355.72" y1="6716.95" x2="860.97" y2="6624.29"/>
			<line class="st16" x1="1356.74" y1="6719.83" x2="868.93" y2="6630.81"/>
			<line class="st16" x1="1357.76" y1="6722.72" x2="876.88" y2="6637.33"/>
			<line class="st16" x1="1358.78" y1="6725.6" x2="884.84" y2="6643.85"/>
			<line class="st16" x1="1359.8" y1="6728.48" x2="892.79" y2="6650.38"/>
			<line class="st16" x1="1360.82" y1="6731.36" x2="900.75" y2="6656.9"/>
			<line class="st16" x1="1361.83" y1="6734.24" x2="908.7" y2="6663.42"/>
		</g>
	</g>
</g>
<g>
	<rect x="556.37" y="1966.02" class="st3" width="481.69" height="328.97"/>
	<text transform="matrix(1 0 0 1 556.3712 1990.0183)"><tspan x="0" y="0" class="st4 st5 st6">The FRM is supported by four legs </tspan><tspan x="0" y="38.4" class="st4 st5 st6">that elevate the replanted coral </tspan><tspan x="0" y="76.8" class="st4 st5 st6">from the substrate, the surface on </tspan><tspan x="0" y="115.2" class="st4 st5 st6">which they have been attached.</tspan></text>
</g>
<rect x="1155.75" y="2107.59" class="st3" width="205.05" height="151.21"/>
<text transform="matrix(1 0 0 1 1155.7531 2131.5876)"><tspan x="0" y="0" class="st4 st5 st6">16 sites for </tspan><tspan x="0" y="38.4" class="st4 st5 st6">coral </tspan><tspan x="0" y="76.8" class="st4 st5 st6">transplants</tspan></text>
<g>
	<text transform="matrix(1 0 0 1 556.3195 1911.6677)" class="st18 st5 st20 st9">Framed reef module prototype</text>
</g>
<g>
	<g>
		<line class="st21" x1="939.96" y1="2604.04" x2="969.08" y2="2768.52"/>
		<g>
			<polygon class="st4" points="938.24,2606.03 938.66,2606.3 940,2604.23 941.96,2605.72 942.26,2605.32 939.87,2603.51 			"/>
		</g>
		<g>
			<polygon class="st4" points="966.77,2767.25 967.08,2766.85 969.04,2768.33 970.38,2766.26 970.8,2766.54 969.17,2769.06 			"/>
		</g>
	</g>
</g>
<g>
	<text transform="matrix(1 0 0 1 852.8116 2700.2771)" class="st4 st22 st6">58 cm</text>
</g>
<g>
	<g>
		<line class="st23" x1="595.11" y1="2537.93" x2="636.12" y2="2383.23"/>
		<line class="st23" x1="971.16" y1="2586.34" x2="1002.81" y2="2765.03"/>
		<line class="st23" x1="1207.79" y1="2345.19" x2="1292.73" y2="2418.25"/>
		<line class="st23" x1="881.53" y1="2188.4" x2="852.81" y2="2278.17"/>
		<g>
			<polyline class="st24" points="636.12,2383.23 1109.77,2228.51 1037.32,2142.27 			"/>
			<polyline class="st24" points="585.48,2292.39 737.76,2247.42 971.16,2586.34 			"/>
			<polyline class="st24" points="774.85,2647.11 699.09,2507.56 1207.79,2345.19 			"/>
			<polyline class="st24" points="1320.55,2471.26 1144.89,2527.82 881.53,2188.4 			"/>
		</g>
	</g>
	<path class="st25" d="M854.85,2452.37c-0.82-0.48-1.43-1.52-1.03-2.37c0.51-1.1,2.07-1.03,3.27-0.82c0.57,0.1,1.34,0.09,1.54-0.46
		c0.1-0.28,0-0.59-0.12-0.86c-0.5-1.15-1.28-2.18-2.26-2.98c-0.56-0.46-1.18-0.84-1.63-1.4c-1.19-1.46-0.7-3.95,0.95-4.85
		c1.26,0.44,2.02,1.71,2.58,2.92c0.56,1.21,1.06,2.53,2.12,3.35c1.06,0.82,2.89,0.8,3.48-0.4c0.55-1.11-0.23-2.36-0.77-3.47
		c-0.53-1.11-0.58-2.84,0.61-3.17c0.63,1.38,2.85,8.52,4.27,8.85c2.4,0.56,3.51-3.45,3.43-5.34c-0.11-2.72-0.95-5.4-2.41-7.69
		c-0.6-0.95-1.33-1.89-1.47-3c-0.14-1.12,0.66-2.44,1.78-2.35c0.98,0.08,1.58,1.15,1.66,2.13s-0.17,1.96-0.06,2.94
		c0.17,1.42,1.18,2.71,2.52,3.2c1.91-2.18,1.12-5.51,0.55-8.35c-0.24-1.21-0.41-2.54,0.18-3.63s2.27-1.62,3.09-0.7
		c0.51,0.57,0.51,1.41,0.47,2.17c-0.11,2.61-0.22,5.22-0.32,7.84c2.1,0.33,4.32-1.12,4.87-3.17c0.86,1.55,1.59,3.8,0.14,4.82
		c-0.72,0.51-1.68,0.43-2.54,0.64c-0.86,0.21-1.74,1.06-1.36,1.85c0.37,0.78,1.49,0.67,2.35,0.56c0.86-0.11,2.06,0.25,1.94,1.1
		c-0.27,1.21-1.43,2.16-2.67,2.2c-0.71,0.02-1.56-0.17-2,0.39c-0.18,0.23-0.23,0.54-0.28,0.83c-0.34,2.23-0.67,4.47-1.01,6.7
		c1.09,1.4,3.83,0.53,3.9-1.24c0.03-0.79-0.36-1.52-0.48-2.3c-0.18-1.19,0.43-2.56,1.59-2.89c1.16-0.33,2.54,0.91,2.08,2.02
		c1.19-0.16,1.78-1.61,1.67-2.81c-0.11-1.2-0.64-2.34-0.66-3.55s0.81-2.59,2.01-2.5c1.48-0.01,2.02,1.98,1.79,3.44
		s-0.71,3.16,0.27,4.26c0.78,0.87,2.19,0.89,3.24,0.36c1.04-0.53,1.8-1.47,2.52-2.39c1.47,0.55,1.48,2.82,0.4,3.96
		c-1.08,1.14-2.74,1.47-4.26,1.85c-1.52,0.38-3.17,0.99-3.9,2.39c0.79,0.43,1.61,0.79,2.46,1.09c0.76,0.89,0.23,2.38-0.77,3
		c-0.99,0.62-2.24,0.61-3.42,0.56c-1.17-0.06-2.4-0.13-3.46,0.38c-1.03,0.5-1.72,1.49-2.6,2.22c-2.96,2.46-9.46,2.23-13,1.04
		c-1.96-0.66-2.88-1.95-4.47-3.14C859.41,2453.92,857.15,2453.71,854.85,2452.37z"/>
	<path class="st25" d="M1027.57,2394.96c-0.82-0.48-1.43-1.52-1.03-2.37c0.51-1.1,2.07-1.03,3.27-0.82c0.57,0.1,1.34,0.09,1.54-0.46
		c0.1-0.28,0-0.59-0.12-0.86c-0.5-1.15-1.28-2.18-2.26-2.98c-0.56-0.46-1.18-0.84-1.63-1.4c-1.19-1.46-0.7-3.95,0.95-4.85
		c1.26,0.44,2.02,1.71,2.58,2.92s1.06,2.53,2.12,3.35c1.06,0.82,2.89,0.8,3.48-0.4c0.55-1.11-0.23-2.36-0.77-3.47
		s-0.58-2.84,0.61-3.17c0.63,1.38,2.85,8.52,4.27,8.85c2.4,0.56,3.51-3.45,3.43-5.34c-0.11-2.72-0.95-5.4-2.41-7.69
		c-0.6-0.95-1.33-1.89-1.47-3c-0.14-1.12,0.66-2.44,1.78-2.35c0.98,0.08,1.58,1.15,1.66,2.13c0.08,0.98-0.17,1.96-0.06,2.94
		c0.17,1.42,1.18,2.71,2.52,3.2c1.91-2.18,1.12-5.51,0.55-8.35c-0.24-1.21-0.41-2.54,0.18-3.63c0.6-1.08,2.27-1.62,3.09-0.7
		c0.51,0.57,0.51,1.41,0.47,2.17c-0.11,2.61-0.22,5.22-0.32,7.84c2.1,0.33,4.32-1.12,4.87-3.17c0.86,1.55,1.59,3.8,0.14,4.82
		c-0.72,0.51-1.68,0.43-2.54,0.64c-0.86,0.21-1.74,1.06-1.36,1.85c0.37,0.78,1.49,0.67,2.35,0.56c0.86-0.11,2.06,0.25,1.94,1.1
		c-0.27,1.21-1.43,2.16-2.67,2.2c-0.71,0.02-1.56-0.17-2,0.39c-0.18,0.23-0.23,0.54-0.28,0.83c-0.34,2.23-0.67,4.46-1.01,6.7
		c1.09,1.4,3.83,0.53,3.9-1.24c0.03-0.79-0.36-1.52-0.48-2.3c-0.18-1.19,0.43-2.56,1.59-2.89c1.16-0.33,2.54,0.91,2.08,2.02
		c1.19-0.16,1.78-1.61,1.67-2.81c-0.11-1.2-0.64-2.34-0.66-3.55s0.81-2.59,2.01-2.5c1.48-0.01,2.02,1.98,1.79,3.44
		c-0.23,1.46-0.71,3.16,0.27,4.26c0.78,0.87,2.19,0.89,3.24,0.36c1.04-0.53,1.8-1.47,2.52-2.39c1.47,0.55,1.48,2.82,0.4,3.96
		c-1.08,1.14-2.74,1.47-4.26,1.85c-1.52,0.38-3.17,0.99-3.9,2.39c0.79,0.43,1.61,0.79,2.46,1.09c0.76,0.89,0.23,2.38-0.77,3
		s-2.24,0.61-3.42,0.56c-1.17-0.06-2.4-0.13-3.46,0.38c-1.03,0.5-1.72,1.49-2.6,2.22c-2.96,2.46-9.46,2.23-13,1.04
		c-1.96-0.66-2.88-1.95-4.47-3.14C1032.13,2396.51,1029.87,2396.29,1027.57,2394.96z"/>
	<path class="st25" d="M931.8,2276.88c-0.82-0.48-1.43-1.52-1.03-2.37c0.51-1.1,2.07-1.03,3.27-0.82c0.57,0.1,1.34,0.09,1.54-0.46
		c0.1-0.28,0-0.59-0.12-0.86c-0.5-1.15-1.28-2.18-2.26-2.98c-0.56-0.46-1.18-0.84-1.63-1.4c-1.19-1.46-0.7-3.95,0.95-4.85
		c1.26,0.44,2.02,1.71,2.58,2.92c0.56,1.21,1.06,2.53,2.12,3.35s2.89,0.8,3.48-0.4c0.55-1.11-0.23-2.36-0.77-3.47
		c-0.53-1.11-0.58-2.84,0.61-3.17c0.63,1.38,2.85,8.52,4.27,8.85c2.4,0.56,3.51-3.45,3.43-5.34c-0.11-2.72-0.95-5.4-2.41-7.69
		c-0.6-0.95-1.33-1.89-1.47-3c-0.14-1.12,0.66-2.44,1.78-2.35c0.98,0.08,1.58,1.15,1.66,2.13c0.08,0.98-0.17,1.96-0.06,2.94
		c0.17,1.42,1.18,2.71,2.52,3.2c1.91-2.18,1.12-5.51,0.55-8.35c-0.24-1.21-0.41-2.54,0.18-3.63c0.6-1.08,2.27-1.62,3.09-0.7
		c0.51,0.57,0.51,1.41,0.47,2.17c-0.11,2.61-0.22,5.22-0.32,7.84c2.1,0.33,4.32-1.12,4.87-3.17c0.86,1.55,1.59,3.8,0.14,4.82
		c-0.72,0.51-1.68,0.43-2.54,0.64c-0.86,0.21-1.74,1.06-1.36,1.85c0.37,0.78,1.49,0.67,2.35,0.56c0.86-0.11,2.06,0.25,1.94,1.1
		c-0.27,1.21-1.43,2.16-2.67,2.2c-0.71,0.02-1.56-0.17-2,0.39c-0.18,0.23-0.23,0.54-0.28,0.83c-0.34,2.23-0.67,4.47-1.01,6.7
		c1.09,1.4,3.83,0.53,3.9-1.24c0.03-0.79-0.36-1.52-0.48-2.3c-0.18-1.19,0.43-2.56,1.59-2.89c1.16-0.33,2.54,0.91,2.08,2.02
		c1.19-0.16,1.78-1.61,1.67-2.81c-0.11-1.2-0.64-2.34-0.66-3.55c-0.02-1.21,0.81-2.59,2.01-2.5c1.48-0.01,2.02,1.98,1.79,3.44
		c-0.23,1.46-0.71,3.16,0.27,4.26c0.78,0.87,2.19,0.89,3.24,0.36c1.04-0.53,1.8-1.47,2.52-2.39c1.47,0.55,1.48,2.82,0.4,3.96
		c-1.08,1.14-2.74,1.47-4.26,1.85c-1.52,0.38-3.17,0.99-3.9,2.39c0.79,0.43,1.61,0.79,2.46,1.09c0.76,0.89,0.23,2.38-0.77,3
		c-0.99,0.62-2.24,0.61-3.42,0.56c-1.17-0.06-2.4-0.13-3.46,0.38c-1.03,0.5-1.72,1.49-2.6,2.22c-2.96,2.46-9.46,2.23-13,1.04
		c-1.96-0.66-2.88-1.95-4.47-3.14C936.35,2278.43,934.1,2278.22,931.8,2276.88z"/>
	<path class="st25" d="M1185.27,2342.68c-0.82-0.48-1.43-1.52-1.03-2.37c0.51-1.1,2.07-1.03,3.27-0.82c0.57,0.1,1.34,0.09,1.54-0.46
		c0.1-0.28,0-0.59-0.12-0.86c-0.5-1.15-1.28-2.18-2.26-2.98c-0.56-0.46-1.18-0.84-1.63-1.4c-1.19-1.46-0.7-3.95,0.95-4.85
		c1.26,0.44,2.02,1.71,2.58,2.92s1.06,2.53,2.12,3.35c1.06,0.82,2.89,0.8,3.48-0.4c0.55-1.11-0.23-2.36-0.77-3.47
		c-0.53-1.11-0.58-2.84,0.61-3.17c0.63,1.38,2.85,8.52,4.27,8.85c2.4,0.56,3.51-3.45,3.43-5.34c-0.11-2.72-0.95-5.4-2.41-7.69
		c-0.6-0.95-1.33-1.89-1.47-3c-0.14-1.12,0.66-2.44,1.78-2.35c0.98,0.08,1.58,1.15,1.66,2.13c0.08,0.98-0.17,1.96-0.06,2.94
		c0.17,1.42,1.18,2.71,2.52,3.2c1.91-2.18,1.12-5.51,0.55-8.35c-0.24-1.21-0.41-2.54,0.18-3.63c0.6-1.08,2.27-1.62,3.09-0.7
		c0.51,0.57,0.51,1.41,0.47,2.17c-0.11,2.61-0.22,5.22-0.32,7.84c2.1,0.33,4.32-1.12,4.87-3.17c0.86,1.55,1.59,3.8,0.14,4.82
		c-0.72,0.51-1.68,0.43-2.54,0.64c-0.86,0.21-1.74,1.06-1.36,1.85c0.37,0.78,1.49,0.67,2.35,0.56s2.06,0.25,1.94,1.1
		c-0.27,1.21-1.43,2.16-2.67,2.2c-0.71,0.02-1.56-0.17-2,0.39c-0.18,0.23-0.23,0.54-0.28,0.83c-0.34,2.23-0.67,4.47-1.01,6.7
		c1.09,1.4,3.83,0.53,3.9-1.24c0.03-0.79-0.36-1.52-0.48-2.3c-0.18-1.19,0.43-2.56,1.59-2.89c1.16-0.33,2.54,0.91,2.08,2.02
		c1.19-0.16,1.78-1.61,1.67-2.81c-0.11-1.2-0.64-2.34-0.66-3.55s0.81-2.59,2.01-2.5c1.48-0.01,2.02,1.98,1.79,3.44
		c-0.23,1.46-0.71,3.16,0.27,4.26c0.78,0.87,2.19,0.89,3.24,0.36c1.04-0.53,1.8-1.47,2.52-2.39c1.47,0.55,1.48,2.82,0.4,3.96
		c-1.08,1.14-2.74,1.47-4.26,1.85c-1.52,0.38-3.17,0.99-3.9,2.39c0.79,0.43,1.61,0.79,2.46,1.09c0.76,0.89,0.23,2.38-0.77,3
		c-0.99,0.62-2.24,0.61-3.42,0.56c-1.17-0.06-2.4-0.13-3.46,0.38c-1.03,0.5-1.72,1.49-2.6,2.22c-2.96,2.46-9.46,2.23-13,1.04
		c-1.96-0.66-2.88-1.95-4.47-3.14C1189.83,2344.24,1187.58,2344.02,1185.27,2342.68z"/>
	<path class="st25" d="M1129.07,2527.14c-0.82-0.48-1.43-1.52-1.03-2.37c0.51-1.1,2.07-1.03,3.27-0.82c0.57,0.1,1.34,0.09,1.54-0.46
		c0.1-0.28,0-0.59-0.12-0.86c-0.5-1.15-1.28-2.18-2.26-2.98c-0.56-0.46-1.18-0.84-1.63-1.4c-1.19-1.46-0.7-3.95,0.95-4.85
		c1.26,0.44,2.02,1.71,2.58,2.92c0.56,1.21,1.06,2.53,2.12,3.35s2.89,0.8,3.48-0.4c0.55-1.11-0.23-2.36-0.77-3.47
		c-0.53-1.11-0.58-2.84,0.61-3.17c0.63,1.38,2.85,8.52,4.27,8.85c2.4,0.56,3.51-3.45,3.43-5.34c-0.11-2.72-0.95-5.4-2.41-7.69
		c-0.6-0.95-1.33-1.89-1.47-3c-0.14-1.12,0.66-2.44,1.78-2.35c0.98,0.08,1.58,1.15,1.66,2.13s-0.17,1.96-0.06,2.94
		c0.17,1.42,1.18,2.71,2.52,3.2c1.91-2.18,1.12-5.51,0.55-8.35c-0.24-1.21-0.41-2.54,0.18-3.63s2.27-1.62,3.09-0.7
		c0.51,0.57,0.51,1.41,0.47,2.17c-0.11,2.61-0.22,5.22-0.32,7.84c2.1,0.33,4.32-1.12,4.87-3.17c0.86,1.55,1.59,3.8,0.14,4.82
		c-0.72,0.51-1.68,0.43-2.54,0.64c-0.86,0.21-1.74,1.06-1.36,1.85c0.37,0.78,1.49,0.67,2.35,0.56s2.06,0.25,1.94,1.1
		c-0.27,1.21-1.43,2.16-2.67,2.2c-0.71,0.02-1.56-0.17-2,0.39c-0.18,0.23-0.23,0.54-0.28,0.83c-0.34,2.23-0.67,4.47-1.01,6.7
		c1.09,1.4,3.83,0.53,3.9-1.24c0.03-0.79-0.36-1.52-0.48-2.3c-0.18-1.19,0.43-2.56,1.59-2.89c1.16-0.33,2.54,0.91,2.08,2.02
		c1.19-0.16,1.78-1.61,1.67-2.81c-0.11-1.2-0.64-2.34-0.66-3.55c-0.02-1.21,0.81-2.59,2.01-2.5c1.48-0.01,2.02,1.98,1.79,3.44
		c-0.23,1.46-0.71,3.16,0.27,4.26c0.78,0.87,2.19,0.89,3.24,0.36c1.04-0.53,1.8-1.47,2.52-2.39c1.47,0.55,1.48,2.82,0.4,3.96
		c-1.08,1.14-2.74,1.47-4.26,1.85c-1.52,0.38-3.17,0.99-3.9,2.39c0.79,0.43,1.61,0.79,2.46,1.09c0.76,0.89,0.23,2.38-0.77,3
		s-2.24,0.61-3.42,0.56c-1.17-0.06-2.4-0.13-3.46,0.38c-1.03,0.5-1.72,1.49-2.6,2.22c-2.96,2.46-9.46,2.23-13,1.04
		c-1.96-0.66-2.88-1.95-4.47-3.14C1133.63,2528.69,1131.37,2528.48,1129.07,2527.14z"/>
	<path class="st25" d="M1305.91,2471.13c-0.82-0.48-1.43-1.52-1.03-2.37c0.51-1.1,2.07-1.03,3.27-0.82c0.57,0.1,1.34,0.09,1.54-0.46
		c0.1-0.28,0-0.59-0.12-0.86c-0.5-1.15-1.28-2.18-2.26-2.98c-0.56-0.46-1.18-0.84-1.63-1.4c-1.19-1.46-0.7-3.95,0.95-4.85
		c1.26,0.44,2.02,1.71,2.58,2.92c0.56,1.21,1.06,2.53,2.12,3.35s2.89,0.8,3.48-0.4c0.55-1.11-0.23-2.36-0.77-3.47
		c-0.53-1.11-0.58-2.84,0.61-3.17c0.63,1.38,2.85,8.52,4.27,8.85c2.4,0.56,3.51-3.45,3.43-5.34c-0.11-2.72-0.95-5.4-2.41-7.69
		c-0.6-0.95-1.33-1.89-1.47-3c-0.14-1.12,0.66-2.44,1.78-2.35c0.98,0.08,1.58,1.15,1.66,2.13c0.08,0.98-0.17,1.96-0.06,2.94
		c0.17,1.42,1.18,2.71,2.52,3.2c1.91-2.18,1.12-5.51,0.55-8.35c-0.24-1.21-0.41-2.54,0.18-3.63s2.27-1.62,3.09-0.7
		c0.51,0.57,0.51,1.41,0.47,2.17c-0.11,2.61-0.22,5.22-0.32,7.84c2.1,0.33,4.32-1.12,4.87-3.17c0.86,1.55,1.59,3.8,0.14,4.82
		c-0.72,0.51-1.68,0.43-2.54,0.64c-0.86,0.21-1.74,1.06-1.36,1.85c0.37,0.78,1.49,0.67,2.35,0.56c0.86-0.11,2.06,0.25,1.94,1.1
		c-0.27,1.21-1.43,2.16-2.67,2.2c-0.71,0.02-1.56-0.17-2,0.39c-0.18,0.23-0.23,0.54-0.28,0.83c-0.34,2.23-0.67,4.47-1.01,6.7
		c1.09,1.4,3.83,0.53,3.9-1.24c0.03-0.79-0.36-1.52-0.48-2.3c-0.18-1.19,0.43-2.56,1.59-2.89c1.16-0.33,2.54,0.91,2.08,2.02
		c1.19-0.16,1.78-1.61,1.67-2.81c-0.11-1.2-0.64-2.34-0.66-3.55c-0.02-1.21,0.81-2.59,2.01-2.5c1.48-0.01,2.02,1.98,1.79,3.44
		c-0.23,1.46-0.71,3.16,0.27,4.26c0.78,0.87,2.19,0.89,3.24,0.36c1.04-0.53,1.8-1.47,2.52-2.39c1.47,0.55,1.48,2.82,0.4,3.96
		c-1.08,1.14-2.74,1.47-4.26,1.85c-1.52,0.38-3.17,0.99-3.9,2.39c0.79,0.43,1.61,0.79,2.46,1.09c0.76,0.89,0.23,2.38-0.77,3
		s-2.24,0.61-3.42,0.56c-1.17-0.06-2.4-0.13-3.46,0.38c-1.03,0.5-1.72,1.49-2.6,2.22c-2.96,2.46-9.46,2.23-13,1.04
		c-1.96-0.66-2.88-1.95-4.47-3.14C1310.47,2472.69,1308.21,2472.47,1305.91,2471.13z"/>
	<path class="st25" d="M776.98,2328.05c-0.82-0.48-1.43-1.52-1.03-2.37c0.51-1.1,2.07-1.03,3.27-0.82c0.57,0.1,1.34,0.09,1.54-0.46
		c0.1-0.28,0-0.59-0.12-0.86c-0.5-1.15-1.28-2.18-2.26-2.98c-0.56-0.46-1.18-0.84-1.63-1.4c-1.19-1.46-0.7-3.95,0.95-4.85
		c1.26,0.44,2.02,1.71,2.58,2.92c0.56,1.21,1.06,2.53,2.12,3.35c1.06,0.82,2.89,0.8,3.48-0.4c0.55-1.11-0.23-2.36-0.77-3.47
		c-0.53-1.11-0.58-2.84,0.61-3.17c0.63,1.38,2.85,8.52,4.27,8.85c2.4,0.56,3.51-3.45,3.43-5.34c-0.11-2.72-0.95-5.4-2.41-7.69
		c-0.6-0.95-1.33-1.89-1.47-3c-0.14-1.12,0.66-2.44,1.78-2.35c0.98,0.08,1.58,1.15,1.66,2.13c0.08,0.98-0.17,1.96-0.06,2.94
		c0.17,1.42,1.18,2.71,2.52,3.2c1.91-2.18,1.12-5.51,0.55-8.35c-0.24-1.21-0.41-2.54,0.18-3.63c0.6-1.08,2.27-1.62,3.09-0.7
		c0.51,0.57,0.51,1.41,0.47,2.17c-0.11,2.61-0.22,5.22-0.32,7.84c2.1,0.33,4.32-1.12,4.87-3.17c0.86,1.55,1.59,3.8,0.14,4.82
		c-0.72,0.51-1.68,0.43-2.54,0.64c-0.86,0.21-1.74,1.06-1.36,1.85c0.37,0.78,1.49,0.67,2.35,0.56c0.86-0.11,2.06,0.25,1.94,1.1
		c-0.27,1.21-1.43,2.16-2.67,2.2c-0.71,0.02-1.56-0.17-2,0.39c-0.18,0.23-0.23,0.54-0.28,0.83c-0.34,2.23-0.67,4.47-1.01,6.7
		c1.09,1.4,3.83,0.53,3.9-1.24c0.03-0.79-0.36-1.52-0.48-2.3c-0.18-1.19,0.43-2.56,1.59-2.89c1.16-0.33,2.54,0.91,2.08,2.02
		c1.19-0.16,1.78-1.61,1.67-2.81c-0.11-1.2-0.64-2.34-0.66-3.55c-0.02-1.21,0.81-2.59,2.01-2.5c1.48-0.01,2.02,1.98,1.79,3.44
		s-0.71,3.16,0.27,4.26c0.78,0.87,2.19,0.89,3.24,0.36c1.04-0.53,1.8-1.47,2.52-2.39c1.47,0.55,1.48,2.82,0.4,3.96
		c-1.08,1.14-2.74,1.47-4.26,1.85c-1.52,0.38-3.17,0.99-3.9,2.39c0.79,0.43,1.61,0.79,2.46,1.09c0.76,0.89,0.23,2.38-0.77,3
		c-0.99,0.62-2.24,0.61-3.42,0.56c-1.17-0.06-2.4-0.13-3.46,0.38c-1.03,0.5-1.72,1.49-2.6,2.22c-2.96,2.46-9.46,2.23-13,1.04
		c-1.96-0.66-2.88-1.95-4.47-3.14C781.54,2329.6,779.29,2329.38,776.98,2328.05z"/>
	<path class="st25" d="M614.24,2385.74c-0.82-0.48-1.43-1.52-1.03-2.37c0.51-1.1,2.07-1.03,3.27-0.82c0.57,0.1,1.34,0.09,1.54-0.46
		c0.1-0.28,0-0.59-0.12-0.86c-0.5-1.15-1.28-2.18-2.25-2.98c-0.56-0.46-1.18-0.84-1.63-1.4c-1.19-1.46-0.7-3.95,0.95-4.85
		c1.26,0.44,2.02,1.71,2.58,2.92s1.06,2.53,2.12,3.35c1.06,0.82,2.89,0.8,3.48-0.4c0.55-1.11-0.23-2.36-0.77-3.47
		c-0.53-1.11-0.58-2.84,0.61-3.17c0.63,1.38,2.85,8.52,4.27,8.85c2.4,0.56,3.51-3.45,3.43-5.34c-0.11-2.72-0.95-5.4-2.41-7.69
		c-0.6-0.95-1.33-1.89-1.47-3c-0.14-1.12,0.66-2.44,1.78-2.35c0.98,0.08,1.58,1.15,1.66,2.13c0.08,0.98-0.17,1.96-0.06,2.94
		c0.17,1.42,1.18,2.71,2.52,3.2c1.91-2.18,1.12-5.51,0.55-8.35c-0.24-1.21-0.41-2.54,0.18-3.63s2.27-1.62,3.09-0.7
		c0.51,0.57,0.51,1.41,0.47,2.17c-0.11,2.61-0.22,5.22-0.32,7.84c2.1,0.33,4.32-1.12,4.87-3.17c0.86,1.55,1.59,3.8,0.14,4.82
		c-0.72,0.51-1.68,0.43-2.54,0.64c-0.86,0.21-1.74,1.06-1.36,1.85c0.37,0.78,1.49,0.67,2.35,0.56c0.86-0.11,2.06,0.25,1.94,1.1
		c-0.27,1.21-1.43,2.16-2.67,2.2c-0.71,0.02-1.56-0.17-2,0.39c-0.18,0.23-0.23,0.54-0.28,0.83c-0.34,2.23-0.67,4.46-1.01,6.7
		c1.09,1.4,3.83,0.53,3.9-1.24c0.03-0.79-0.36-1.52-0.48-2.3c-0.18-1.19,0.43-2.56,1.59-2.89c1.16-0.33,2.54,0.91,2.08,2.02
		c1.19-0.16,1.78-1.61,1.67-2.81c-0.11-1.2-0.64-2.34-0.66-3.55s0.81-2.59,2.01-2.5c1.48-0.01,2.02,1.98,1.79,3.44
		c-0.23,1.46-0.71,3.16,0.27,4.26c0.78,0.87,2.19,0.89,3.24,0.36c1.04-0.53,1.8-1.47,2.52-2.39c1.47,0.55,1.48,2.82,0.4,3.96
		c-1.08,1.14-2.74,1.47-4.26,1.85c-1.52,0.38-3.17,0.99-3.9,2.39c0.79,0.43,1.61,0.79,2.46,1.09c0.76,0.89,0.23,2.38-0.77,3
		c-0.99,0.62-2.24,0.61-3.42,0.56c-1.17-0.06-2.4-0.13-3.46,0.38c-1.03,0.5-1.72,1.49-2.6,2.22c-2.96,2.46-9.46,2.23-13,1.04
		c-1.96-0.66-2.88-1.95-4.47-3.14C618.8,2387.3,616.54,2387.08,614.24,2385.74z"/>
	<path class="st25" d="M861.43,2186.03c-0.82-0.48-1.43-1.52-1.03-2.37c0.51-1.1,2.07-1.03,3.27-0.82c0.57,0.1,1.34,0.09,1.54-0.46
		c0.1-0.28,0-0.59-0.12-0.86c-0.5-1.15-1.28-2.18-2.26-2.98c-0.56-0.46-1.18-0.84-1.63-1.4c-1.19-1.46-0.7-3.95,0.95-4.85
		c1.26,0.44,2.02,1.71,2.58,2.92c0.56,1.21,1.06,2.53,2.12,3.35c1.06,0.82,2.89,0.8,3.48-0.4c0.55-1.11-0.23-2.36-0.77-3.47
		c-0.53-1.11-0.58-2.84,0.61-3.17c0.63,1.38,2.85,8.52,4.27,8.85c2.4,0.56,3.51-3.45,3.43-5.34c-0.11-2.72-0.95-5.4-2.41-7.69
		c-0.6-0.95-1.33-1.89-1.47-3s0.66-2.44,1.78-2.35c0.98,0.08,1.58,1.15,1.66,2.13c0.08,0.98-0.17,1.96-0.06,2.94
		c0.17,1.42,1.18,2.71,2.52,3.2c1.91-2.18,1.12-5.51,0.55-8.35c-0.24-1.21-0.41-2.54,0.18-3.63c0.6-1.08,2.27-1.62,3.09-0.7
		c0.51,0.57,0.51,1.41,0.47,2.17c-0.11,2.61-0.22,5.22-0.32,7.84c2.1,0.33,4.32-1.12,4.87-3.17c0.86,1.55,1.59,3.8,0.14,4.82
		c-0.72,0.51-1.68,0.43-2.54,0.64c-0.86,0.21-1.74,1.06-1.36,1.85c0.37,0.78,1.49,0.67,2.35,0.56c0.86-0.11,2.06,0.25,1.94,1.1
		c-0.27,1.21-1.43,2.16-2.67,2.2c-0.71,0.02-1.56-0.17-2,0.39c-0.18,0.23-0.23,0.54-0.28,0.83c-0.34,2.23-0.67,4.47-1.01,6.7
		c1.09,1.4,3.83,0.53,3.9-1.24c0.03-0.78-0.36-1.52-0.48-2.3c-0.18-1.19,0.43-2.56,1.59-2.89c1.16-0.33,2.54,0.91,2.08,2.02
		c1.19-0.16,1.78-1.61,1.67-2.81c-0.11-1.2-0.64-2.34-0.66-3.55c-0.02-1.21,0.81-2.59,2.01-2.5c1.48-0.01,2.02,1.98,1.79,3.44
		c-0.23,1.46-0.71,3.16,0.27,4.26c0.78,0.87,2.19,0.89,3.24,0.36s1.8-1.47,2.52-2.39c1.47,0.55,1.48,2.82,0.4,3.96
		c-1.08,1.14-2.74,1.47-4.26,1.85c-1.52,0.38-3.17,0.99-3.9,2.39c0.79,0.43,1.61,0.79,2.46,1.09c0.76,0.89,0.23,2.38-0.77,3
		c-0.99,0.62-2.24,0.61-3.42,0.56c-1.17-0.06-2.4-0.13-3.46,0.38c-1.03,0.5-1.72,1.49-2.6,2.22c-2.96,2.46-9.46,2.23-13,1.04
		c-1.96-0.66-2.88-1.95-4.47-3.14C865.98,2187.58,863.73,2187.37,861.43,2186.03z"/>
	<path class="st25" d="M1018.59,2140.52c-0.82-0.48-1.43-1.52-1.03-2.37c0.51-1.1,2.07-1.03,3.27-0.82c0.57,0.1,1.34,0.09,1.54-0.46
		c0.1-0.28,0-0.59-0.12-0.86c-0.5-1.15-1.28-2.18-2.26-2.98c-0.56-0.46-1.18-0.84-1.63-1.4c-1.19-1.46-0.7-3.95,0.95-4.85
		c1.26,0.44,2.02,1.71,2.58,2.92s1.06,2.53,2.12,3.35c1.06,0.82,2.89,0.8,3.48-0.4c0.55-1.11-0.23-2.36-0.77-3.47
		c-0.53-1.11-0.58-2.84,0.61-3.17c0.63,1.38,2.85,8.52,4.27,8.85c2.4,0.56,3.51-3.45,3.43-5.34c-0.11-2.72-0.95-5.4-2.41-7.69
		c-0.6-0.95-1.33-1.89-1.47-3c-0.14-1.12,0.66-2.44,1.78-2.35c0.98,0.08,1.58,1.15,1.66,2.13c0.08,0.98-0.17,1.96-0.06,2.94
		c0.17,1.42,1.18,2.71,2.52,3.2c1.91-2.18,1.12-5.51,0.55-8.35c-0.24-1.21-0.41-2.54,0.18-3.63c0.6-1.08,2.27-1.62,3.09-0.7
		c0.51,0.57,0.51,1.41,0.47,2.17c-0.11,2.61-0.22,5.22-0.32,7.84c2.1,0.33,4.32-1.12,4.87-3.17c0.86,1.55,1.59,3.8,0.14,4.82
		c-0.72,0.51-1.68,0.43-2.54,0.64c-0.86,0.21-1.74,1.06-1.36,1.85c0.37,0.78,1.49,0.67,2.35,0.56s2.06,0.25,1.94,1.1
		c-0.27,1.21-1.43,2.16-2.67,2.2c-0.71,0.02-1.56-0.17-2,0.39c-0.18,0.23-0.23,0.54-0.28,0.83c-0.34,2.23-0.67,4.47-1.01,6.7
		c1.09,1.4,3.83,0.53,3.9-1.24c0.03-0.79-0.36-1.52-0.48-2.3c-0.18-1.19,0.43-2.56,1.59-2.89c1.16-0.33,2.54,0.91,2.08,2.02
		c1.19-0.16,1.78-1.61,1.67-2.81c-0.11-1.2-0.64-2.34-0.66-3.55s0.81-2.59,2.01-2.5c1.48-0.01,2.02,1.98,1.79,3.44
		c-0.23,1.46-0.71,3.16,0.27,4.26c0.78,0.87,2.19,0.89,3.24,0.36c1.04-0.53,1.8-1.47,2.52-2.39c1.47,0.55,1.48,2.82,0.4,3.96
		c-1.08,1.14-2.74,1.47-4.26,1.85c-1.52,0.38-3.17,0.99-3.9,2.39c0.79,0.43,1.61,0.79,2.46,1.09c0.76,0.89,0.23,2.38-0.77,3
		c-0.99,0.62-2.24,0.61-3.42,0.56c-1.17-0.06-2.4-0.13-3.46,0.38c-1.03,0.5-1.72,1.49-2.6,2.22c-2.96,2.46-9.46,2.23-13,1.04
		c-1.96-0.66-2.88-1.95-4.47-3.14C1023.15,2142.07,1020.89,2141.86,1018.59,2140.52z"/>
	<path class="st25" d="M1093.37,2229.73c-0.82-0.48-1.43-1.52-1.03-2.37c0.51-1.1,2.07-1.03,3.27-0.82c0.57,0.1,1.34,0.09,1.54-0.46
		c0.1-0.28,0-0.59-0.12-0.86c-0.5-1.15-1.28-2.18-2.26-2.98c-0.56-0.46-1.18-0.84-1.63-1.4c-1.19-1.46-0.7-3.95,0.95-4.85
		c1.26,0.44,2.02,1.71,2.58,2.92s1.06,2.53,2.12,3.35s2.89,0.8,3.48-0.4c0.55-1.11-0.23-2.36-0.77-3.47
		c-0.53-1.11-0.58-2.84,0.61-3.17c0.63,1.38,2.85,8.52,4.27,8.85c2.4,0.56,3.51-3.45,3.43-5.34c-0.11-2.72-0.95-5.4-2.41-7.69
		c-0.6-0.95-1.33-1.89-1.47-3c-0.14-1.12,0.66-2.44,1.78-2.35c0.98,0.08,1.58,1.15,1.66,2.13c0.08,0.98-0.17,1.96-0.06,2.94
		c0.17,1.42,1.18,2.71,2.52,3.2c1.91-2.18,1.12-5.51,0.55-8.35c-0.24-1.21-0.41-2.54,0.18-3.62c0.6-1.08,2.27-1.62,3.09-0.7
		c0.51,0.57,0.51,1.41,0.47,2.17c-0.11,2.61-0.22,5.22-0.32,7.84c2.1,0.33,4.32-1.12,4.87-3.17c0.86,1.55,1.59,3.8,0.14,4.82
		c-0.72,0.51-1.68,0.43-2.54,0.64s-1.74,1.06-1.36,1.85c0.37,0.78,1.49,0.67,2.35,0.56c0.86-0.11,2.06,0.25,1.94,1.1
		c-0.27,1.21-1.43,2.16-2.67,2.2c-0.71,0.02-1.56-0.17-2,0.39c-0.18,0.23-0.23,0.54-0.28,0.83c-0.34,2.23-0.67,4.47-1.01,6.7
		c1.09,1.4,3.83,0.53,3.9-1.24c0.03-0.79-0.36-1.52-0.48-2.3c-0.18-1.19,0.43-2.56,1.59-2.89s2.54,0.91,2.08,2.02
		c1.19-0.16,1.78-1.61,1.67-2.81c-0.11-1.2-0.64-2.34-0.66-3.55s0.81-2.59,2.01-2.5c1.48-0.01,2.02,1.98,1.79,3.44
		c-0.23,1.46-0.71,3.16,0.27,4.26c0.78,0.87,2.19,0.89,3.24,0.36c1.04-0.53,1.8-1.47,2.52-2.39c1.47,0.55,1.48,2.82,0.4,3.96
		s-2.74,1.47-4.26,1.85c-1.52,0.38-3.17,0.99-3.9,2.39c0.79,0.43,1.61,0.79,2.46,1.09c0.76,0.89,0.23,2.38-0.77,3
		s-2.24,0.61-3.42,0.56c-1.17-0.06-2.4-0.13-3.46,0.38c-1.03,0.5-1.72,1.49-2.6,2.22c-2.96,2.46-9.46,2.23-13,1.04
		c-1.96-0.66-2.88-1.95-4.47-3.14C1097.93,2231.29,1095.67,2231.07,1093.37,2229.73z"/>
	<path class="st25" d="M568.58,2290.08c-0.82-0.48-1.43-1.52-1.03-2.37c0.51-1.1,2.07-1.03,3.27-0.82c0.57,0.1,1.34,0.09,1.54-0.46
		c0.1-0.28,0-0.59-0.12-0.86c-0.5-1.15-1.28-2.18-2.26-2.98c-0.56-0.46-1.18-0.84-1.63-1.4c-1.19-1.46-0.7-3.95,0.95-4.85
		c1.26,0.44,2.02,1.71,2.58,2.92c0.56,1.21,1.06,2.53,2.12,3.35c1.06,0.82,2.89,0.8,3.48-0.4c0.55-1.11-0.23-2.36-0.77-3.47
		c-0.53-1.11-0.58-2.84,0.61-3.17c0.63,1.38,2.85,8.52,4.27,8.85c2.4,0.56,3.51-3.45,3.43-5.34c-0.11-2.72-0.95-5.4-2.41-7.69
		c-0.6-0.95-1.33-1.89-1.47-3c-0.14-1.12,0.66-2.44,1.78-2.35c0.98,0.08,1.58,1.15,1.66,2.13c0.08,0.98-0.17,1.96-0.06,2.94
		c0.17,1.42,1.18,2.71,2.52,3.2c1.91-2.18,1.12-5.51,0.55-8.35c-0.24-1.21-0.41-2.54,0.18-3.63c0.6-1.08,2.27-1.62,3.09-0.7
		c0.51,0.57,0.51,1.41,0.47,2.17c-0.11,2.61-0.22,5.22-0.32,7.84c2.1,0.33,4.32-1.12,4.87-3.17c0.86,1.55,1.59,3.8,0.14,4.82
		c-0.72,0.51-1.68,0.43-2.54,0.64c-0.86,0.21-1.74,1.06-1.36,1.85c0.37,0.78,1.49,0.67,2.35,0.56c0.86-0.11,2.06,0.25,1.94,1.1
		c-0.27,1.21-1.43,2.16-2.67,2.2c-0.71,0.02-1.56-0.17-2,0.39c-0.18,0.23-0.23,0.54-0.28,0.83c-0.34,2.23-0.67,4.47-1.01,6.7
		c1.09,1.4,3.83,0.53,3.9-1.24c0.03-0.79-0.36-1.52-0.48-2.3c-0.18-1.19,0.43-2.56,1.59-2.89c1.16-0.33,2.54,0.91,2.08,2.02
		c1.19-0.16,1.78-1.61,1.67-2.81c-0.11-1.2-0.64-2.34-0.66-3.55c-0.02-1.21,0.81-2.59,2.01-2.5c1.48-0.01,2.02,1.98,1.79,3.44
		c-0.23,1.46-0.71,3.16,0.27,4.26c0.78,0.87,2.19,0.89,3.24,0.36c1.04-0.53,1.8-1.47,2.52-2.39c1.47,0.55,1.48,2.82,0.4,3.96
		c-1.08,1.14-2.74,1.47-4.26,1.85c-1.52,0.38-3.17,0.99-3.9,2.39c0.79,0.43,1.61,0.79,2.46,1.09c0.76,0.89,0.23,2.38-0.77,3
		c-0.99,0.62-2.24,0.61-3.42,0.56c-1.17-0.06-2.4-0.13-3.46,0.38c-1.03,0.5-1.72,1.49-2.6,2.22c-2.96,2.46-9.46,2.23-13,1.04
		c-1.96-0.66-2.88-1.95-4.47-3.14C573.14,2291.64,570.89,2291.42,568.58,2290.08z"/>
	<path class="st25" d="M719.46,2248.1c-0.82-0.48-1.43-1.52-1.03-2.37c0.51-1.1,2.07-1.03,3.27-0.82c0.57,0.1,1.34,0.09,1.54-0.46
		c0.1-0.28,0-0.59-0.12-0.86c-0.5-1.15-1.28-2.18-2.25-2.98c-0.56-0.46-1.18-0.84-1.63-1.4c-1.19-1.46-0.7-3.95,0.95-4.85
		c1.26,0.44,2.02,1.71,2.58,2.92c0.56,1.21,1.06,2.53,2.12,3.35c1.06,0.82,2.89,0.8,3.48-0.4c0.55-1.11-0.23-2.36-0.77-3.47
		c-0.53-1.11-0.58-2.84,0.61-3.17c0.63,1.38,2.85,8.52,4.27,8.85c2.4,0.56,3.51-3.45,3.43-5.34c-0.11-2.72-0.95-5.4-2.41-7.69
		c-0.6-0.95-1.33-1.89-1.47-3c-0.14-1.12,0.66-2.44,1.78-2.35c0.98,0.08,1.58,1.15,1.66,2.13c0.08,0.98-0.17,1.96-0.06,2.94
		c0.17,1.42,1.18,2.71,2.52,3.2c1.91-2.18,1.12-5.51,0.55-8.35c-0.24-1.21-0.41-2.54,0.18-3.63s2.27-1.62,3.09-0.7
		c0.51,0.57,0.51,1.41,0.47,2.17c-0.11,2.61-0.22,5.22-0.32,7.84c2.1,0.33,4.32-1.12,4.87-3.17c0.86,1.55,1.59,3.8,0.14,4.82
		c-0.72,0.51-1.68,0.43-2.54,0.64c-0.86,0.21-1.74,1.06-1.36,1.85c0.37,0.78,1.49,0.67,2.35,0.56c0.86-0.11,2.06,0.25,1.94,1.1
		c-0.27,1.21-1.43,2.16-2.67,2.2c-0.71,0.02-1.56-0.17-2,0.39c-0.18,0.23-0.23,0.54-0.28,0.83c-0.34,2.23-0.67,4.47-1.01,6.7
		c1.09,1.4,3.83,0.53,3.9-1.24c0.03-0.79-0.36-1.52-0.48-2.3c-0.18-1.19,0.43-2.56,1.59-2.89c1.16-0.33,2.54,0.91,2.08,2.02
		c1.19-0.16,1.78-1.61,1.67-2.81c-0.11-1.2-0.64-2.34-0.66-3.55s0.81-2.59,2.01-2.5c1.48-0.01,2.02,1.98,1.79,3.44
		s-0.71,3.16,0.27,4.26c0.78,0.87,2.19,0.89,3.24,0.36c1.04-0.53,1.8-1.47,2.52-2.39c1.47,0.55,1.48,2.82,0.4,3.96
		c-1.08,1.14-2.74,1.47-4.26,1.85c-1.52,0.38-3.17,0.99-3.9,2.39c0.79,0.43,1.61,0.79,2.46,1.09c0.76,0.89,0.23,2.38-0.77,3
		c-0.99,0.62-2.24,0.61-3.42,0.56c-1.17-0.06-2.4-0.13-3.46,0.38c-1.03,0.5-1.72,1.49-2.6,2.22c-2.96,2.46-9.46,2.23-13,1.04
		c-1.96-0.66-2.88-1.95-4.47-3.14C724.02,2249.65,721.76,2249.44,719.46,2248.1z"/>
	<path class="st25" d="M754.88,2652.04c-0.82-0.48-1.43-1.52-1.03-2.37c0.51-1.1,2.07-1.03,3.27-0.82c0.57,0.1,1.34,0.09,1.54-0.46
		c0.1-0.28,0-0.59-0.12-0.86c-0.5-1.15-1.28-2.18-2.25-2.98c-0.56-0.46-1.18-0.84-1.63-1.4c-1.19-1.46-0.7-3.95,0.95-4.85
		c1.26,0.44,2.02,1.71,2.58,2.92s1.06,2.53,2.12,3.35s2.89,0.8,3.48-0.4c0.55-1.11-0.23-2.36-0.77-3.47
		c-0.53-1.11-0.58-2.84,0.61-3.17c0.63,1.38,2.85,8.52,4.27,8.85c2.4,0.56,3.51-3.45,3.43-5.34c-0.11-2.72-0.95-5.4-2.41-7.69
		c-0.6-0.95-1.33-1.89-1.47-3s0.66-2.44,1.78-2.35c0.98,0.08,1.58,1.15,1.66,2.13c0.08,0.98-0.17,1.96-0.06,2.94
		c0.17,1.42,1.18,2.71,2.52,3.2c1.91-2.18,1.12-5.51,0.55-8.35c-0.24-1.21-0.41-2.54,0.18-3.62s2.27-1.62,3.09-0.7
		c0.51,0.57,0.51,1.41,0.47,2.17c-0.11,2.61-0.22,5.22-0.32,7.84c2.1,0.33,4.32-1.12,4.87-3.17c0.86,1.55,1.59,3.8,0.14,4.82
		c-0.72,0.51-1.68,0.43-2.54,0.64s-1.74,1.06-1.36,1.85c0.37,0.78,1.49,0.67,2.35,0.56c0.86-0.11,2.06,0.25,1.94,1.1
		c-0.27,1.21-1.43,2.16-2.67,2.2c-0.71,0.02-1.56-0.17-2,0.39c-0.18,0.23-0.23,0.54-0.28,0.83c-0.34,2.23-0.67,4.47-1.01,6.7
		c1.09,1.4,3.83,0.53,3.9-1.24c0.03-0.79-0.36-1.52-0.48-2.3c-0.18-1.19,0.43-2.56,1.59-2.89c1.16-0.33,2.54,0.91,2.08,2.02
		c1.19-0.16,1.78-1.61,1.67-2.81c-0.11-1.2-0.64-2.34-0.66-3.55s0.81-2.59,2.01-2.5c1.48-0.01,2.02,1.98,1.79,3.44
		c-0.23,1.46-0.71,3.16,0.27,4.26c0.78,0.87,2.19,0.89,3.24,0.36c1.04-0.53,1.8-1.47,2.52-2.39c1.47,0.55,1.48,2.82,0.4,3.96
		c-1.08,1.14-2.74,1.47-4.26,1.85c-1.52,0.38-3.17,0.99-3.9,2.39c0.79,0.43,1.61,0.79,2.46,1.09c0.76,0.89,0.23,2.38-0.77,3
		s-2.24,0.61-3.42,0.56c-1.17-0.06-2.4-0.13-3.46,0.38c-1.03,0.5-1.72,1.49-2.6,2.22c-2.96,2.46-9.46,2.23-13,1.04
		c-1.96-0.66-2.88-1.95-4.47-3.14C759.44,2653.59,757.18,2653.38,754.88,2652.04z"/>
	<path class="st25" d="M683.8,2503.92c-0.82-0.48-1.43-1.52-1.03-2.37c0.51-1.1,2.07-1.03,3.27-0.82c0.57,0.1,1.34,0.09,1.54-0.46
		c0.1-0.28,0-0.59-0.12-0.86c-0.5-1.15-1.28-2.18-2.25-2.98c-0.56-0.46-1.18-0.84-1.63-1.4c-1.19-1.46-0.7-3.95,0.95-4.85
		c1.26,0.44,2.02,1.71,2.58,2.92s1.06,2.53,2.12,3.35s2.89,0.8,3.48-0.4c0.55-1.11-0.23-2.36-0.77-3.47
		c-0.53-1.11-0.58-2.84,0.61-3.17c0.63,1.38,2.85,8.52,4.27,8.85c2.4,0.56,3.51-3.45,3.43-5.34c-0.11-2.72-0.95-5.4-2.41-7.69
		c-0.6-0.95-1.33-1.89-1.47-3s0.66-2.44,1.78-2.35c0.98,0.08,1.58,1.15,1.66,2.13c0.08,0.98-0.17,1.96-0.06,2.94
		c0.17,1.42,1.18,2.71,2.52,3.2c1.91-2.18,1.12-5.51,0.55-8.35c-0.24-1.21-0.41-2.54,0.18-3.62c0.6-1.08,2.27-1.62,3.09-0.7
		c0.51,0.57,0.51,1.41,0.47,2.17c-0.11,2.61-0.22,5.22-0.32,7.84c2.1,0.33,4.32-1.12,4.87-3.17c0.86,1.55,1.59,3.8,0.14,4.82
		c-0.72,0.51-1.68,0.43-2.54,0.64s-1.74,1.06-1.36,1.85c0.37,0.78,1.49,0.67,2.35,0.56c0.86-0.11,2.06,0.25,1.94,1.1
		c-0.27,1.21-1.43,2.16-2.67,2.2c-0.71,0.02-1.56-0.17-2,0.39c-0.18,0.23-0.23,0.54-0.28,0.83c-0.34,2.23-0.67,4.47-1.01,6.7
		c1.09,1.4,3.83,0.53,3.9-1.24c0.03-0.78-0.36-1.52-0.48-2.3c-0.18-1.19,0.43-2.56,1.59-2.89c1.16-0.33,2.54,0.91,2.08,2.02
		c1.19-0.16,1.78-1.61,1.67-2.81c-0.11-1.2-0.64-2.34-0.66-3.55s0.81-2.59,2.01-2.5c1.48-0.01,2.02,1.98,1.79,3.44
		c-0.23,1.46-0.71,3.16,0.27,4.26c0.78,0.87,2.19,0.89,3.24,0.36c1.04-0.53,1.8-1.47,2.52-2.39c1.47,0.55,1.48,2.82,0.4,3.96
		c-1.08,1.14-2.74,1.47-4.26,1.85c-1.52,0.38-3.17,0.99-3.9,2.39c0.79,0.43,1.61,0.79,2.46,1.09c0.76,0.89,0.23,2.38-0.77,3
		c-0.99,0.62-2.24,0.61-3.42,0.56c-1.17-0.06-2.4-0.13-3.46,0.38c-1.03,0.5-1.72,1.49-2.6,2.22c-2.96,2.46-9.46,2.23-13,1.04
		c-1.96-0.66-2.88-1.95-4.47-3.14C688.36,2505.47,686.1,2505.25,683.8,2503.92z"/>
	<path class="st25" d="M953.26,2584.87c-0.82-0.48-1.43-1.52-1.03-2.37c0.51-1.1,2.07-1.03,3.27-0.82c0.57,0.1,1.34,0.09,1.54-0.46
		c0.1-0.28,0-0.59-0.12-0.86c-0.5-1.15-1.28-2.18-2.26-2.98c-0.56-0.46-1.18-0.84-1.63-1.4c-1.19-1.46-0.7-3.95,0.95-4.85
		c1.26,0.44,2.02,1.71,2.58,2.92c0.56,1.21,1.06,2.53,2.12,3.35c1.06,0.82,2.89,0.8,3.48-0.4c0.55-1.11-0.23-2.36-0.77-3.47
		c-0.53-1.11-0.58-2.84,0.61-3.17c0.63,1.38,2.85,8.52,4.27,8.85c2.4,0.56,3.51-3.45,3.43-5.34c-0.11-2.72-0.95-5.4-2.41-7.69
		c-0.6-0.95-1.33-1.89-1.47-3c-0.14-1.12,0.66-2.44,1.78-2.35c0.98,0.08,1.58,1.15,1.66,2.13c0.08,0.98-0.17,1.96-0.06,2.94
		c0.17,1.42,1.18,2.71,2.52,3.2c1.91-2.18,1.12-5.51,0.55-8.35c-0.24-1.21-0.41-2.54,0.18-3.63c0.6-1.08,2.27-1.62,3.09-0.7
		c0.51,0.57,0.51,1.41,0.47,2.17c-0.11,2.61-0.22,5.22-0.32,7.84c2.1,0.33,4.32-1.12,4.87-3.17c0.86,1.55,1.59,3.8,0.14,4.82
		c-0.72,0.51-1.68,0.43-2.54,0.64c-0.86,0.21-1.74,1.06-1.36,1.85c0.37,0.78,1.49,0.67,2.35,0.56s2.06,0.25,1.94,1.1
		c-0.27,1.21-1.43,2.16-2.67,2.2c-0.71,0.02-1.56-0.17-2,0.39c-0.18,0.23-0.23,0.54-0.28,0.83c-0.34,2.23-0.67,4.47-1.01,6.7
		c1.09,1.4,3.83,0.53,3.9-1.24c0.03-0.79-0.36-1.52-0.48-2.3c-0.18-1.19,0.43-2.56,1.59-2.89c1.16-0.33,2.54,0.91,2.08,2.02
		c1.19-0.16,1.78-1.61,1.67-2.81c-0.11-1.2-0.64-2.34-0.66-3.55c-0.02-1.21,0.81-2.59,2.01-2.5c1.48-0.01,2.02,1.98,1.79,3.44
		s-0.71,3.16,0.27,4.26c0.78,0.87,2.19,0.89,3.24,0.36c1.04-0.53,1.8-1.47,2.52-2.39c1.47,0.55,1.48,2.82,0.4,3.96
		c-1.08,1.14-2.74,1.47-4.26,1.85c-1.52,0.38-3.17,0.99-3.9,2.39c0.79,0.43,1.61,0.79,2.46,1.09c0.76,0.89,0.23,2.38-0.77,3
		c-0.99,0.62-2.24,0.61-3.42,0.56c-1.17-0.06-2.4-0.13-3.46,0.38c-1.03,0.5-1.72,1.49-2.6,2.22c-2.96,2.46-9.46,2.23-13,1.04
		c-1.96-0.66-2.88-1.95-4.47-3.14C957.82,2586.42,955.57,2586.2,953.26,2584.87z"/>
</g>
<text transform="matrix(1 0 0 1 558.9738 2804.6052)"><tspan x="0" y="0" class="st4 st5 st6">Weight: 2.85 kilograms</tspan><tspan x="0" y="56" class="st4 st5 st6">Area covered: 1.21 square meters </tspan><tspan x="0" y="112" class="st4 st5 st6">Depth: 5 to 6 meters</tspan></text>
<path class="st21" d="M1135.65,2116.27c8.06,1.05-39.54-6.56-70.11,5.8"/>
<g>
	<rect x="555.5" y="1692.25" class="st3" width="802.56" height="128.93"/>
	<text transform="matrix(1 0 0 1 555.4982 1728.2517)"><tspan x="0" y="0" class="st7 st5 st8 st9">They are planted in a framed reef </tspan><tspan x="0" y="57.6" class="st7 st5 st8 st9">module, about 5 or 6 meters deep.</tspan></text>
</g>
<g>
	<circle class="st7" cx="600.48" cy="1615.15" r="43.71"/>
	<g>
		<text transform="matrix(1 0 0 1 576.3868 1639.199)" class="st0 st10 st11 st9">2</text>
	</g>
</g>
<line class="st21" x1="565.75" y1="2823.74" x2="1068.05" y2="2823.74"/>
<line class="st21" x1="565.75" y1="2879.28" x2="1068.05" y2="2879.28"/>
<g>
	<rect x="560.46" y="3233.09" class="st3" width="740.61" height="385.54"/>
	<text transform="matrix(1 0 0 1 560.4561 3269.0852)"><tspan x="0" y="0" class="st7 st5 st8 st9">The transplanted coral is constantly </tspan><tspan x="0" y="57.6" class="st7 st5 st8 st9">monitored, along with the marine </tspan><tspan x="0" y="115.2" class="st7 st5 st8 st9">life that grows as a result of its </tspan><tspan x="0" y="172.8" class="st7 st5 st8 st9">presence.</tspan></text>
</g>
<g>
	<circle class="st7" cx="606.46" cy="3149.89" r="43.71"/>
	<g>
		<text transform="matrix(1 0 0 1 583.0166 3169.8206)" class="st0 st10 st11 st9">3</text>
	</g>
</g>
<g>
	<text transform="matrix(1 0 0 1 891.2101 3795.719)" class="st4 st5 st20 st9">0 days</text>
</g>
<g>
	<text transform="matrix(1 0 0 1 868.7091 4426.7188)" class="st4 st5 st20 st9">400 days</text>
</g>
<g>
	<rect x="563.02" y="3561.22" class="st3" width="784.31" height="275.97"/>
	<text transform="matrix(1 0 0 1 563.0236 3585.2161)"><tspan x="0" y="0" class="st4 st5 st6">After 400 days, higher FRMs showed higher survival rates</tspan><tspan x="0" y="38.4" class="st4 st5 st6">Acropora hyacinthus: 86 percent </tspan><tspan x="0" y="76.8" class="st4 st5 st6">Acropora microphthalma: 90 percent</tspan></text>
</g>
<rect x="556.14" y="5332.97" class="st3" width="801.92" height="194.22"/>
<text transform="matrix(1 0 0 1 556.1436 5395.3667)"><tspan x="0" y="0" class="st4 st5 st6">Coral transplanted at a height of at least 30 cm from the </tspan><tspan x="0" y="38.4" class="st4 st5 st6">substrate is resilient against impacts caused by </tspan><tspan x="0" y="76.8" class="st4 st5 st6">macroalgae, turf algae and sedimentation rates.</tspan></text>
<g>
	<text transform="matrix(1 0 0 1 556.7803 5319.0562)" class="st18 st5 st20 st9">Survival rate</text>
</g>
<rect x="556.14" y="5711.97" class="st3" width="801.92" height="194.22"/>
<text transform="matrix(1 0 0 1 556.1436 5735.9663)"><tspan x="0" y="0" class="st4 st5 st6">Acropora coral grows faster than other species used in the </tspan><tspan x="0" y="38.4" class="st4 st5 st6">experiments.  This allows for more complex 3D structures </tspan><tspan x="0" y="76.8" class="st4 st5 st6">to achieve a better ecological restoration effect in the reef </tspan><tspan x="0" y="115.2" class="st4 st5 st6">area.</tspan></text>
<g>
	<text transform="matrix(1 0 0 1 556.7803 5664.0562)" class="st18 st5 st20 st9">Different techniques</text>
</g>
</svg>
