<?xml version="1.0" encoding="utf-8"?>
<!-- Generator: Adobe Illustrator 27.0.0, SVG Export Plug-In . SVG Version: 6.00 Build 0)  -->
<svg version="1.1" id="Layer_1" xmlns="http://www.w3.org/2000/svg" xmlns:xlink="http://www.w3.org/1999/xlink" x="0px" y="0px"
	 viewBox="0 0 1920 5357" style="enable-background:new 0 0 1920 5357;" xml:space="preserve">
<style type="text/css">
	@import url('https://fonts.googleapis.com/css?family=Roboto:300,400,700');
	.st0{fill:none;}
	.st1{fill:#FFFFFF;}
	.st2{font-family:'Roboto';font-weight: 700;}
	.st3{font-size:36px;}
	.st4{fill:none;stroke:#FFFFFF;stroke-width:2;stroke-miterlimit:10;}
	.st5{font-family:'Roboto';font-weight: 700;}
</style>
<image style="overflow:visible;" width="1921" height="5282" xlink:href="81B237427025D09E.jpg"  transform="matrix(1 0 0 1 4 84)">
</image>
<g>
	<rect x="914.91" y="4515.73" class="st0" width="243.5" height="240.06"/>
	<text transform="matrix(1 0 0 1 914.9045 4542.7339)"><tspan x="0" y="0" class="st1 st2 st3">Giant clams </tspan><tspan x="0" y="43.2" class="st1 st2 st3">and coral have </tspan><tspan x="0" y="86.4" class="st1 st2 st3">a symbiotic </tspan><tspan x="0" y="129.6" class="st1 st2 st3">relationship.</tspan></text>
</g>
<rect x="978.55" y="3487.67" class="st0" width="383.92" height="271.73"/>
<text transform="matrix(1 0 0 1 978.5476 3514.6746)"><tspan x="0" y="0" class="st1 st2 st3">There are approximately </tspan><tspan x="0" y="43.2" class="st1 st2 st3">120 species of fish and </tspan><tspan x="0" y="86.4" class="st1 st2 st3">100 species of coral in </tspan><tspan x="0" y="129.6" class="st1 st2 st3">the seagrasses of </tspan><tspan x="0" y="172.8" class="st1 st2 st3">Wuzhizhou Island.</tspan></text>
<circle class="st4" cx="657.77" cy="1171.14" r="46.68"/>
<line class="st4" x1="567.65" y1="1004.38" x2="1358.39" y2="1004.38"/>
<line class="st4" x1="567.65" y1="2774.38" x2="1358.39" y2="2774.38"/>
<line class="st4" x1="567.65" y1="2558.38" x2="1358.39" y2="2558.38"/>
<line class="st4" x1="657.77" y1="1124.46" x2="657.77" y2="1004.7"/>
<circle class="st4" cx="657.77" cy="2014.14" r="46.68"/>
<line class="st4" x1="567.65" y1="1847.38" x2="1358.39" y2="1847.38"/>
<line class="st4" x1="657.77" y1="1967.46" x2="657.77" y2="1847.7"/>
<g>
	<rect x="558.88" y="772.33" class="st0" width="799.51" height="256.36"/>
	<text transform="matrix(1 0 0 1 558.8772 799.3345)"><tspan x="0" y="0" class="st1 st2 st3">Due to climate change and human activities, coral </tspan><tspan x="0" y="43.2" class="st1 st2 st3">reef ecosystems are facing a global degradation </tspan><tspan x="0" y="86.4" class="st1 st2 st3">crisis. The situation will cause a sharp decline in </tspan><tspan x="0" y="129.6" class="st1 st2 st3">marine life, loss of biodiversity, coastal erosion and </tspan><tspan x="0" y="172.8" class="st1 st2 st3">a reduction of food sources.</tspan></text>
</g>
<g>
	<rect x="558.88" y="1646.33" class="st0" width="799.51" height="256.36"/>
	<text transform="matrix(1 0 0 1 558.8772 1673.3344)"><tspan x="0" y="0" class="st1 st2 st3">Coral fragments are planted on grids above sea bed  </tspan><tspan x="0" y="43.2" class="st1 st2 st3">and they are monitored to control their growth over </tspan><tspan x="0" y="86.4" class="st1 st2 st3">the time and how that 3D structures helpe corals to </tspan><tspan x="0" y="129.6" class="st1 st2 st3">grow properly.</tspan></text>
</g>
<g>
	
		<image style="overflow:visible;opacity:0.75;" width="398" height="126" xlink:href="81B237427025D0A2.png"  transform="matrix(1 0 0 1 1342.4803 4159.4805)">
	</image>
	<g>
		<text transform="matrix(1 0 0 1 1386.8796 4233.2041)" class="st1 st5 st3">Acropora hyacinthus</text>
	</g>
</g>
<g>
	<text transform="matrix(1 0 0 1 577.3293 4178.0352)" class="st1 st2 st3">Grouper</text>
</g>
<g>
	<text transform="matrix(1 0 0 1 418.6755 3819.0352)" class="st1 st2 st3">Clownfish</text>
</g>
<g>
	<text transform="matrix(1 0 0 1 1422.5321 3663.1096)" class="st1 st2 st3">Wrasse</text>
</g>
<g>
	
		<image style="overflow:visible;opacity:0.75;" width="462" height="126" xlink:href="81B237427025D0A5.png"  transform="matrix(1 0 0 1 1274.4803 2801.4802)">
	</image>
	<g>
		<text transform="matrix(1 0 0 1 1319.1439 2874.9717)" class="st1 st5 st3">Acropora microphthalma</text>
	</g>
</g>
<g>
	<rect x="562.39" y="2589.52" class="st0" width="790.39" height="351.18"/>
	<text transform="matrix(1 0 0 1 562.3868 2616.5193)"><tspan x="0" y="0" class="st1 st2 st3">Researchers have tested different </tspan><tspan x="0" y="43.2" class="st1 st2 st3">three-dimensional hollow reef structures, which </tspan><tspan x="0" y="86.4" class="st1 st2 st3">have attracted significant numbers of large </tspan><tspan x="0" y="129.6" class="st1 st2 st3">invertebrates and reef fish.</tspan></text>
</g>
<circle class="st4" cx="1014.2" cy="2933.92" r="46.68"/>
<circle class="st4" cx="617.2" cy="2399.92" r="46.68"/>
<polyline class="st4" points="964.19,2940.59 802.39,2940.59 802.39,2774.7 "/>
<polyline class="st4" points="663.88,2399.92 802.39,2399.92 802.39,2558.38 "/>
</svg>
