<?xml version="1.0" encoding="utf-8"?>
<!-- Generator: Adobe Illustrator 27.0.0, SVG Export Plug-In . SVG Version: 6.00 Build 0)  -->
<svg version="1.1" id="Layer_1" xmlns="http://www.w3.org/2000/svg" xmlns:xlink="http://www.w3.org/1999/xlink" x="0px" y="0px"
	 viewBox="0 0 800 4124" style="enable-background:new 0 0 800 4124;" xml:space="preserve">
<style type="text/css">
	@import url('https://fonts.googleapis.com/css?family=Roboto:300,400,700');
	.st0{fill:none;}
	.st1{fill:#FFFFFF;}
	.st2{font-family:'Roboto';font-weight: 700;}
	.st3{font-size:36px;}
	.st4{fill:none;stroke:#FFFFFF;stroke-width:2;stroke-miterlimit:10;}
	.st5{font-size:36.0671px;}
	.st6{font-family:'Roboto';font-weight: 700;}
	.st7{font-size:27.1618px;}
</style>
<image style="overflow:visible;" width="807" height="4273" xlink:href="81FDFAB4FAA6C731.jpg"  transform="matrix(1 0 0 1 -5 -141)">
</image>
<g>
	<rect x="315.99" y="3480.8" class="st0" width="328.4" height="181.12"/>
	<text transform="matrix(1 0 0 1 315.9854 3507.7959)"><tspan x="0" y="0" class="st1 st2 st3">Giant clams and </tspan><tspan x="0" y="43.2" class="st1 st2 st3">coral have a </tspan><tspan x="0" y="86.4" class="st1 st2 st3">symbiotic </tspan><tspan x="0" y="129.6" class="st1 st2 st3">relationship.</tspan></text>
</g>
<g>
	<rect x="408" y="2603.13" class="st0" width="387.38" height="205.02"/>
	<text transform="matrix(1 0 0 1 408.0029 2630.1318)"><tspan x="0" y="0" class="st1 st2 st3">There are approximately </tspan><tspan x="0" y="43.2" class="st1 st2 st3">120 species of fish and </tspan><tspan x="0" y="86.4" class="st1 st2 st3">100 species of coral in </tspan><tspan x="0" y="129.6" class="st1 st2 st3">the seagrasses of </tspan><tspan x="0" y="172.8" class="st1 st2 st3">Wuzhizhou Island.</tspan></text>
</g>
<circle class="st4" cx="102.47" cy="927.78" r="46.76"/>
<line class="st4" x1="12.18" y1="760.7" x2="804.39" y2="760.7"/>
<line class="st4" x1="11.91" y1="2202.81" x2="805.39" y2="2202.81"/>
<line class="st4" x1="11.91" y1="1986.06" x2="805.39" y2="1986.06"/>
<line class="st4" x1="102.47" y1="881.01" x2="102.47" y2="761.02"/>
<circle class="st4" cx="232.72" cy="1691.85" r="46.41"/>
<line class="st4" x1="18.11" y1="1526.03" x2="804.39" y2="1526.03"/>
<line class="st4" x1="232.72" y1="1645.44" x2="232.72" y2="1526.34"/>
<g>
	<rect x="3.39" y="528.23" class="st0" width="801" height="256.84"/>
	<text transform="matrix(1 0 0 1 3.3867 555.2778)"><tspan x="0" y="0" class="st1 st2 st5">Due to climate change and human activities, coral </tspan><tspan x="0" y="43.28" class="st1 st2 st5">reef ecosystems are facing a global degradation </tspan><tspan x="0" y="86.56" class="st1 st2 st5">crisis. The situation will cause a sharp decline in </tspan><tspan x="0" y="129.84" class="st1 st2 st5">marine life, loss of biodiversity, coastal erosion and </tspan><tspan x="0" y="173.12" class="st1 st2 st5">a reduction of food sources.</tspan></text>
</g>
<g>
	<rect x="9.39" y="1326.12" class="st0" width="795" height="254.92"/>
	<text transform="matrix(1 0 0 1 9.3867 1353.1172)"><tspan x="0" y="0" class="st1 st2 st3">Coral fragments are planted on grids above sea bed  </tspan><tspan x="0" y="43.2" class="st1 st2 st3">and they are monitored to control their growth over </tspan><tspan x="0" y="86.4" class="st1 st2 st3">the time and how that 3D structures helpe corals to </tspan><tspan x="0" y="129.6" class="st1 st2 st3">grow properly.</tspan></text>
</g>
<g>
	
		<image style="overflow:visible;opacity:0.75;" width="399" height="127" xlink:href="81FDFAB4FAA6C733.png"  transform="matrix(1 0 0 1 377.4803 3219.4802)">
	</image>
	<g>
		<text transform="matrix(1 0 0 1 422.0869 3293.6299)" class="st1 st6 st3">Acropora hyacinthus</text>
	</g>
</g>
<g>
	<text transform="matrix(1 0 0 1 115.2861 3208.0059)" class="st1 st2 st3">Grouper</text>
</g>
<g>
	<text transform="matrix(1 0 0 1 43.583 2973.1431)" class="st1 st2 st3">Clownfish</text>
</g>
<g>
	<text transform="matrix(1 0 0 1 631.9854 2864.4985)" class="st1 st2 st7">Wrasse</text>
</g>
<g>
	
		<image style="overflow:visible;opacity:0.75;" width="462" height="126" xlink:href="81FDFAB4FAA6C731.png"  transform="matrix(1 0 0 1 375.4803 2452.4802)">
	</image>
	<g>
		<text transform="matrix(1 0 0 1 419.9795 2525.854)" class="st1 st6 st3">Acropora microphthalma</text>
	</g>
</g>
<g>
	<rect x="6.62" y="2017.31" class="st0" width="793.13" height="352.4"/>
	<text transform="matrix(1 0 0 1 6.6211 2044.3105)"><tspan x="0" y="0" class="st1 st2 st3">Researchers have tested different </tspan><tspan x="0" y="43.2" class="st1 st2 st3">three-dimensional hollow reef structures, which </tspan><tspan x="0" y="86.4" class="st1 st2 st3">have attracted significant numbers of large </tspan><tspan x="0" y="129.6" class="st1 st2 st3">invertebrates and reef fish.</tspan></text>
</g>
<circle class="st4" cx="460" cy="2287.91" r="46.84"/>
<circle class="st4" cx="609.62" cy="1860.05" r="46.84"/>
<polyline class="st4" points="409.82,2288.31 347.39,2288.31 347.39,2203.13 "/>
<polyline class="st4" points="562.39,1860.31 347.46,1860.31 347.46,1986.06 "/>
</svg>
